G04 start of page 5 for group 9 idx 9 *
G04 Title: (unknown), fab_notes *
G04 Creator: pcb 20091103 *
G04 CreationDate: Thu Jan 29 12:21:00 2026 UTC *
G04 For: estimfr *
G04 Format: Gerber/RS-274X *
G04 PCB-Dimensions: 350000 550000 *
G04 PCB-Coordinate-Origin: lower left *
%MOIN*%
%FSLAX25Y25*%
%LNGROUP9*%
%ADD11C,0.0200*%
%ADD14C,0.0100*%
%ADD17C,0.0650*%
%ADD18C,0.0500*%
%ADD19C,0.0600*%
%ADD20C,0.1216*%
%ADD21C,0.1661*%
%ADD22C,0.0900*%
%ADD23C,0.0360*%
%ADD30C,0.0430*%
%ADD31C,0.1614*%
%ADD32C,0.0380*%
%ADD33C,0.0672*%
%ADD34C,0.1027*%
%ADD35C,0.0350*%
%ADD36C,0.0060*%
%ADD38C,0.0102*%
G54D14*X294862Y352650D02*Y37689D01*
G54D36*X40870Y5248D02*X257800D01*
G54D38*X288651Y158130D02*X289921Y159400D01*
X286111Y158130D02*X288651D01*
X286111D02*X284841Y159400D01*
Y161940D02*Y159400D01*
Y161940D02*X286111Y163210D01*
X288651D01*
X289921Y161940D02*X288651Y163210D01*
X289921Y161940D02*Y159400D01*
X283571Y158130D02*X284841Y159400D01*
X281031Y158130D02*X283571D01*
X281031D02*X279761Y159400D01*
Y161940D02*Y159400D01*
Y161940D02*X281031Y163210D01*
X283571D01*
X284841Y161940D02*X283571Y163210D01*
X288651Y166260D02*X289921Y167530D01*
X281031Y166260D02*X288651D01*
X281031D02*X279761Y167530D01*
Y170070D02*Y167530D01*
Y170070D02*X281031Y171340D01*
X288651D01*
X289921Y170070D02*X288651Y171340D01*
X289921Y170070D02*Y167530D01*
X287381Y166260D02*X282301Y171340D01*
X286111Y175661D02*X289921D01*
X286111D02*X284841Y176931D01*
Y178201D02*Y176931D01*
Y178201D02*X286111Y179471D01*
X289921D01*
X286111D02*X284841Y180741D01*
Y182011D02*Y180741D01*
Y182011D02*X286111Y183281D01*
X289921D01*
X284841Y174391D02*X286111Y175661D01*
Y187601D02*X289921D01*
X286111D02*X284841Y188871D01*
Y190141D02*Y188871D01*
Y190141D02*X286111Y191411D01*
X289921D01*
X286111D02*X284841Y192681D01*
Y193951D02*Y192681D01*
Y193951D02*X286111Y195221D01*
X289921D01*
X284841Y186331D02*X286111Y187601D01*
X123500Y18460D02*X128580D01*
X123500D02*Y13380D01*
X124770Y14650D01*
X127310D01*
X128580Y13380D01*
Y9570D01*
X127310Y8300D02*X128580Y9570D01*
X124770Y8300D02*X127310D01*
X123500Y9570D02*X124770Y8300D01*
X131630Y18460D02*X136710D01*
X131630D02*Y13380D01*
X132900Y14650D01*
X135440D01*
X136710Y13380D01*
Y9570D01*
X135440Y8300D02*X136710Y9570D01*
X132900Y8300D02*X135440D01*
X131630Y9570D02*X132900Y8300D01*
X141031Y12110D02*Y8300D01*
Y12110D02*X142301Y13380D01*
X143571D01*
X144841Y12110D01*
Y8300D01*
Y12110D02*X146111Y13380D01*
X147381D01*
X148651Y12110D01*
Y8300D01*
X139761Y13380D02*X141031Y12110D01*
X152971D02*Y8300D01*
Y12110D02*X154241Y13380D01*
X155511D01*
X156781Y12110D01*
Y8300D01*
Y12110D02*X158051Y13380D01*
X159321D01*
X160591Y12110D01*
Y8300D01*
X151701Y13380D02*X152971Y12110D01*
G54D11*G36*
X180000Y316000D02*Y311000D01*
X185000D01*
Y316000D01*
X180000D01*
G37*
G36*
X182750Y339250D02*Y332750D01*
X189250D01*
Y339250D01*
X182750D01*
G37*
G54D17*X196000Y336000D03*
G54D18*X212500Y313500D03*
G54D11*G36*
X99750Y338750D02*Y332250D01*
X106250D01*
Y338750D01*
X99750D01*
G37*
G54D17*X113000Y335500D03*
G54D11*G36*
X141250Y338750D02*Y332250D01*
X147750D01*
Y338750D01*
X141250D01*
G37*
G54D17*X154500Y335500D03*
G54D11*G36*
X188000Y284500D02*Y278500D01*
X194000D01*
Y284500D01*
X188000D01*
G37*
G54D19*X191000Y271500D03*
Y261500D03*
G54D20*X63500Y272200D03*
G54D21*X45800D03*
X63500Y252500D03*
Y291900D03*
G54D11*G36*
X168000Y100500D02*Y91500D01*
X177000D01*
Y100500D01*
X168000D01*
G37*
G54D22*X172500Y106000D03*
Y116000D03*
G54D11*G36*
X145500Y143500D02*Y138500D01*
X150500D01*
Y143500D01*
X145500D01*
G37*
G54D18*X148000Y111000D03*
G54D11*G36*
X127500Y58000D02*Y52000D01*
X133500D01*
Y58000D01*
X127500D01*
G37*
G54D19*X130500Y65000D03*
G54D11*G36*
X180000Y51000D02*Y42000D01*
X189000D01*
Y51000D01*
X180000D01*
G37*
G54D22*X184500Y56500D03*
Y66500D03*
G54D23*X178500Y179500D03*
X165500Y162000D03*
X192500Y167500D03*
X184000Y172500D03*
X203500Y178000D03*
X202000Y152500D03*
X189000Y154000D03*
X135500Y156000D03*
X165000Y215500D03*
X178000Y210000D03*
X165500Y189000D03*
X189500Y215500D03*
X165500Y195000D03*
X138500Y185500D03*
Y180500D03*
X184000Y160500D03*
X190500Y130000D03*
X113500Y199500D03*
X118000Y185500D03*
X123000Y186000D03*
X118000Y195500D03*
Y190500D03*
X147500Y170500D03*
Y194000D03*
X143500Y147000D03*
Y189000D03*
X123500Y178500D03*
X128000Y147000D03*
X106500Y199500D03*
X121000Y215500D03*
X155000Y48500D03*
X150000Y42500D03*
X155000Y57500D03*
X150000Y62500D03*
X155000D03*
X101000Y42000D03*
X121500Y42500D03*
X126500Y76000D03*
X121500Y62500D03*
Y57500D03*
Y67500D03*
X106500Y76000D03*
X81000Y122000D03*
X86000D03*
X93500Y132500D03*
X101000Y143000D03*
X99000Y148000D03*
X98500Y172500D03*
X106500Y143000D03*
X113500Y132500D03*
X107000Y150000D03*
X65500Y94000D03*
X60500Y90000D03*
X65500Y85500D03*
X56000Y81500D03*
X65500Y117000D03*
X83500D03*
Y112000D03*
X45000Y92000D03*
Y87000D03*
Y102000D03*
X64500D03*
X83500Y107000D03*
X45000Y122000D03*
X69500Y142000D03*
Y138000D03*
X127500Y117000D03*
X142500Y107000D03*
X124000Y104000D03*
X131500Y82000D03*
X132000Y76000D03*
X155000Y72500D03*
X148000Y87000D03*
X83500Y99000D03*
X94000Y82000D03*
Y77000D03*
X106500Y107500D03*
X101500Y102000D03*
Y92000D03*
X104500Y114500D03*
X101500Y97000D03*
X53500Y172500D03*
X74500D03*
X56500Y160500D03*
X75500D03*
X74500Y177500D03*
G54D19*X75000Y197500D03*
Y191000D03*
Y212000D03*
G54D23*X99000Y210000D03*
X129500Y280500D03*
X122500Y256500D03*
X126000Y265500D03*
X167500Y262000D03*
X164500Y301500D03*
X167500Y269500D03*
Y275500D03*
X164500Y306500D03*
X164000Y294500D03*
X140500Y275500D03*
Y280500D03*
X167500Y257000D03*
Y249500D03*
X150500Y235500D03*
X121000Y232000D03*
X102500Y242000D03*
X94500D03*
X171500Y232000D03*
X97500Y227000D03*
X190500Y240500D03*
X184000Y234500D03*
X120000Y311500D03*
X100000D03*
X105500Y325500D03*
X120000Y306500D03*
G54D19*X93000Y290000D03*
G54D23*X164500Y311500D03*
X144500Y313500D03*
X184000Y306500D03*
X111000Y275500D03*
X113000Y261000D03*
X111000Y280500D03*
X97500Y266000D03*
X93500Y260000D03*
X85000Y266000D03*
X130500Y335500D03*
G54D19*X169500Y336000D03*
X88000Y339500D03*
X185500Y322500D03*
G54D23*X81500Y296500D03*
Y248000D03*
Y252000D03*
X82000Y230000D03*
G54D19*X52000Y228500D03*
G54D23*X45500Y215500D03*
Y211000D03*
X55000Y204500D03*
X62000D03*
G54D19*Y225500D03*
G54D23*X39500Y252500D03*
X46000D03*
X81500Y290500D03*
G54D11*G54D30*G54D11*G54D31*G54D30*G54D32*G54D33*G54D34*G54D19*G54D11*G54D32*G54D31*G54D19*G54D31*G54D11*G54D35*G54D11*G54D35*G54D11*G54D35*G54D11*G54D35*G54D11*G54D35*G54D11*G54D36*X31500Y343500D02*Y42500D01*
X48000Y360000D02*X205000D01*
X48000Y26000D02*X246500D01*
X263000Y134500D02*Y42500D01*
X31500Y343500D02*G75*G02X48000Y360000I16500J0D01*G01*
X31500Y42500D02*G75*G03X48000Y26000I16500J0D01*G01*
X246500D02*G75*G03X263000Y42500I0J16500D01*G01*
M02*
