G04 start of page 2 for group 0 idx 0 *
G04 Title: (unknown), component *
G04 Creator: pcb 20091103 *
G04 CreationDate: Thu Jan 29 12:21:00 2026 UTC *
G04 For: estimfr *
G04 Format: Gerber/RS-274X *
G04 PCB-Dimensions: 350000 550000 *
G04 PCB-Coordinate-Origin: lower left *
%MOIN*%
%FSLAX25Y25*%
%LNTOP*%
%ADD11C,0.0200*%
%ADD12C,0.0400*%
%ADD13C,0.0180*%
%ADD14C,0.0100*%
%ADD15C,0.0250*%
%ADD16C,0.0140*%
%ADD17C,0.0650*%
%ADD18C,0.0500*%
%ADD19C,0.0600*%
%ADD20C,0.1216*%
%ADD21C,0.1661*%
%ADD22C,0.0900*%
%ADD23C,0.0360*%
%ADD24R,0.0200X0.0200*%
%ADD25R,0.0512X0.0512*%
%ADD26R,0.0970X0.0970*%
%ADD27R,0.0340X0.0340*%
%ADD28C,0.0160*%
%ADD29R,0.0160X0.0160*%
%ADD30C,0.0430*%
%ADD31C,0.1614*%
%ADD32C,0.0380*%
%ADD33C,0.0672*%
%ADD34C,0.1027*%
%ADD35C,0.0350*%
%ADD36C,0.0060*%
G54D11*G36*
X83500Y246000D02*X63000D01*
Y254000D01*
X83500D01*
Y246000D01*
G37*
G54D12*X99000Y177500D02*Y204500D01*
G54D13*X93500Y177500D02*X99000D01*
G54D14*X93500D02*X88000D01*
X98500Y172500D02*X88000D01*
X99000Y210000D02*X94650D01*
X92543Y207893D01*
G54D13*X99000Y177500D02*X103000Y173500D01*
G54D14*X105000Y175500D02*X107500D01*
Y185500D02*X105000D01*
X104000Y184500D01*
Y176500D01*
X105000Y175500D01*
G54D12*X82000Y215500D02*X75000Y212000D01*
X113500Y215500D02*X82000D01*
X106500D02*Y210000D01*
X113500D01*
Y215500D01*
X75000Y197500D02*Y191000D01*
G54D14*X74500Y172500D02*X81500D01*
G54D12*X99000Y199500D02*X83000D01*
X78000Y204500D01*
G54D14*X86457Y206607D02*Y199043D01*
X152000Y184000D02*X146500D01*
X153000Y189000D02*X143500D01*
G54D15*X146500Y184000D02*Y176500D01*
X142000Y172500D02*X146500Y176500D01*
G54D14*X134500Y175500D02*X140500D01*
X138500Y180500D02*X134500D01*
X140500Y175500D02*X142000Y177000D01*
Y183000D01*
X138500Y185500D01*
G54D15*X178500Y179500D02*X162000D01*
G54D14*X165500Y189000D02*X172500D01*
X162000Y179500D02*X158500Y184000D01*
Y170500D02*X163000D01*
X147500D02*X152000D01*
X161500Y194000D02*X158500D01*
X161500D02*X165500Y195000D01*
X147500Y194000D02*X152000D01*
G54D12*X165000Y215500D02*X157000D01*
X121000D02*Y204500D01*
G54D15*X123000Y193000D02*X122000Y199500D01*
G54D14*X128000Y190500D02*X123000D01*
G54D12*X127500Y210000D02*Y204500D01*
G54D15*X118000Y179500D02*X120500Y182000D01*
G54D14*X128000Y170500D02*X124000D01*
X114000D02*X118000D01*
X125000Y182500D02*X123500Y178500D01*
G54D15*X123000Y186000D02*Y193000D01*
G54D14*X118000Y185500D02*X114000D01*
X118000Y190500D02*X114000D01*
X118000Y195500D02*X114000D01*
X128000Y185500D02*X125000Y182500D01*
G54D15*X106500Y199500D02*X113500D01*
G54D13*X122000D01*
X120500Y182000D02*X123000Y186000D01*
G54D12*X99000Y204500D02*X184000D01*
G54D14*X134500Y195500D02*Y204500D01*
G54D12*X121000Y210000D02*X146500D01*
Y204500D01*
X134000Y210000D02*Y204500D01*
X140500Y210000D02*Y204500D01*
G54D14*X190543Y178607D02*Y172543D01*
X203500Y178000D02*X198150D01*
X192500Y167500D02*X198000D01*
X202000Y163500D01*
G54D12*X184000Y172500D02*X200500D01*
X208500Y164500D01*
X88000Y339500D02*X80500Y325000D01*
X76000Y318000D01*
G54D14*X85000Y307500D02*Y321000D01*
X98500Y341000D01*
X116000D02*X119000Y338000D01*
X98500Y341000D02*X116000D01*
G54D16*X103000Y334500D02*X125000Y320000D01*
G54D14*X119000Y332000D02*X129000Y322500D01*
G54D16*X150000Y318000D02*X147000Y335500D01*
X144500Y321500D02*X130500Y335500D01*
X182500Y314000D02*X154500Y335500D01*
G54D14*X160000Y311500D02*X171850D01*
G54D16*X191000Y341000D02*X196000Y336000D01*
X144500Y335500D02*X150000Y341000D01*
X191000D01*
G54D12*X169500Y336000D02*X185500Y322500D01*
X81500Y296500D02*X76000D01*
Y318000D02*Y296500D01*
Y306500D02*X63500D01*
X76000Y296500D02*X63500Y291900D01*
G54D14*X88500Y306500D02*X86000D01*
G54D12*X63500D02*Y291900D01*
G54D14*X81500Y290500D02*Y286150D01*
G54D12*Y296500D02*Y290500D01*
G54D14*X166000Y298000D02*X167500Y296500D01*
G54D12*X164000Y294500D02*X148000D01*
G54D14*X151500Y298000D02*X166000D01*
X167500Y296500D02*Y275500D01*
X172000D01*
X140500Y280500D02*X151500D01*
X140500Y275500D02*X151500D01*
G54D12*X148000Y294500D02*X140000Y296500D01*
G54D16*X144500Y313500D02*Y321500D01*
X150000Y318000D02*Y307000D01*
G54D14*X139500Y311500D02*X142000D01*
X144500Y313500D01*
X164500Y306500D02*X160000D01*
X150500D02*X153500D01*
X164500Y301500D02*X174000Y304000D01*
X130000Y306500D02*X133000D01*
G54D16*X150000Y307000D02*X150500Y306500D01*
G54D14*X139500D02*X143000D01*
X151500Y298000D01*
X139500Y301500D02*Y296500D01*
X119000Y338000D02*Y332000D01*
X105500Y296000D02*Y325500D01*
X120000Y306500D02*X115500D01*
G54D16*X124000D02*X120000D01*
G54D14*Y311500D02*X115500D01*
G54D12*X93000Y296500D02*X140000D01*
G54D16*X125000Y320000D02*Y307500D01*
X124000Y306500D01*
G54D14*X129000Y322500D02*Y307500D01*
X130000Y306500D01*
X95000Y311500D02*X100000D01*
X86000Y306500D02*X85000Y307500D01*
X95000Y301500D02*Y296000D01*
X111000Y280500D02*X104000D01*
G54D12*X93000Y296500D02*Y290000D01*
G54D14*X167500Y249500D02*X172000D01*
X178500Y280500D02*X184500D01*
X167500Y249500D02*Y257000D01*
X178500Y254500D02*X184000D01*
X167500Y262000D02*Y269500D01*
X158000Y270500D02*X162500D01*
G54D15*Y294500D02*Y235500D01*
G54D14*X190500Y234936D02*X190893Y234543D01*
X190500Y240500D02*Y234936D01*
X132095Y236319D02*X137181D01*
X138500Y235000D01*
Y231000D01*
X139500Y230000D01*
X143586D01*
X150500Y235500D02*X156300D01*
X152500Y227800D02*X144386D01*
G54D12*X157000Y215500D02*X130500Y221000D01*
G54D14*X151500Y254500D02*X144724D01*
X151500Y249500D02*X145224D01*
X143905Y248181D01*
Y245819D02*Y238681D01*
Y257681D02*Y265819D01*
X179000Y170500D02*X184000D01*
X179000Y194000D02*X184000D01*
G54D15*X165000Y233000D02*X162500Y235500D01*
G54D16*X174819Y224595D02*X165095D01*
G54D14*X158000Y244500D02*X162500D01*
G54D15*X165000Y215500D02*Y233000D01*
G54D12*X184000Y306500D02*Y170500D01*
G54D14*X171500Y232000D02*X176000D01*
X178000Y230000D01*
Y210000D01*
X171500Y232000D02*Y237224D01*
X189500Y215500D02*Y226064D01*
X97500Y275500D02*X92224D01*
G54D16*X88500Y286000D02*X89000Y274586D01*
G54D13*X63500Y272200D02*Y272500D01*
G54D16*Y272200D02*X75000Y259500D01*
G54D14*X97500Y270500D02*Y266000D01*
G54D16*X89500Y270000D02*X88000Y257000D01*
X75000Y259500D02*X79350D01*
G54D13*X85000Y266000D02*X79414D01*
G54D16*X79095Y275319D02*X84181D01*
X85500Y274000D01*
Y271000D01*
X86500Y270000D01*
X89586D01*
G54D14*X94500Y242000D02*Y247200D01*
X98000Y238500D02*X94500Y242000D01*
X102500Y247000D02*X102300Y247200D01*
X102500Y242000D02*Y247000D01*
X102000Y237000D02*X102500Y242000D01*
X102000Y228500D02*X103500Y227000D01*
X107000D01*
X120500Y232000D02*X113500D01*
G54D16*X126000Y229000D02*X131414D01*
X126000D02*X121000Y232000D01*
G54D12*X130500Y221000D02*X119500D01*
X113500Y215500D01*
G54D14*X98000Y238500D02*Y233500D01*
X96500Y232000D01*
X93000D01*
X102000Y237000D02*Y228500D01*
X97500Y227000D02*X93000D01*
X98400Y255400D02*X109450D01*
X93500Y260000D02*X104000Y264000D01*
X109000Y268000D01*
X127000Y262000D02*X132095Y258681D01*
Y248181D02*X121405D01*
G54D13*X63405Y237881D02*Y252405D01*
G54D14*X74500Y177500D02*X67500D01*
G54D15*X75000Y197500D02*X65300D01*
X62900Y195100D01*
G54D12*X82000Y230000D02*Y215500D01*
G54D14*X86500Y222000D02*X82000D01*
X76043Y226607D02*X82393D01*
X62000Y225500D02*X67850D01*
X126000Y265500D02*X131776D01*
X132095Y265819D01*
X122500Y249276D02*Y259500D01*
X129500Y280500D02*X124500D01*
X111000Y275500D02*X118000D01*
X127000Y262000D02*X124000D01*
X118000Y265000D01*
X111000D01*
X122500Y256500D02*X117150D01*
X113000Y261000D02*X119500D01*
X109457Y254607D02*Y248319D01*
X122500Y259500D02*X119500Y261000D01*
X111000Y265000D02*X104500Y258500D01*
Y255500D01*
X109000Y268000D02*X111000Y275500D01*
G54D12*X50000Y150500D02*X45500Y155000D01*
G54D13*X56500Y160500D02*Y164776D01*
G54D14*X61000Y167500D02*Y160064D01*
G54D15*X45500Y183500D02*X56600Y197600D01*
X45500Y211000D02*X60000D01*
G54D12*X45500Y144500D02*X39500D01*
Y138500D02*X45500D01*
X39500Y75000D02*Y240500D01*
X45500Y144500D02*Y127000D01*
G54D14*X45000Y122000D02*Y127500D01*
G54D12*X51500Y132500D02*Y127000D01*
X57500Y132500D02*Y127000D01*
G54D14*X53957Y139107D02*Y132043D01*
X54000Y132000D01*
G54D12*X39500Y234500D02*X45500D01*
X52000Y228500D02*X39500D01*
G54D15*X45500Y215500D02*X53500D01*
G54D12*X39500Y240500D02*X45500D01*
Y222500D01*
X39500D01*
G54D14*X128000Y157500D02*X129500Y156000D01*
X128000Y165500D02*X125000D01*
X124000Y164500D01*
Y151000D01*
X128000Y160500D02*Y157500D01*
X124000Y170500D02*X121500Y168000D01*
Y153500D01*
G54D15*X118000Y179500D02*Y156500D01*
G54D12*X93500Y132500D02*X113500D01*
X87500D02*Y127000D01*
Y132500D02*X39500D01*
X69500D02*Y127000D01*
X75500Y132000D02*Y127000D01*
X81500Y132500D02*Y127000D01*
X63500Y132500D02*Y127000D01*
X119500D02*Y132500D01*
X125500Y127000D02*Y132500D01*
G54D14*X69500Y138000D02*X62150D01*
X69500Y142000D02*X63150D01*
G54D13*X63500Y272200D02*X51500Y260200D01*
G54D12*X45800Y272200D02*X63500Y291900D01*
G54D14*X53500Y172500D02*Y177224D01*
X61000Y172500D02*X53500D01*
G54D13*X56500Y164776D02*X54681Y166595D01*
G54D12*X45500Y155000D02*Y183500D01*
G54D13*X51500Y260200D02*Y237976D01*
G54D15*X62000Y225500D02*Y214300D01*
G54D12*X78000Y204500D02*X39500D01*
Y252500D02*X46000D01*
Y272000D01*
G54D14*X106500Y143000D02*X124000Y151000D01*
X121500Y153500D02*X108000Y146500D01*
G54D15*X118000Y156500D02*X107000Y150000D01*
G54D14*X114000Y160500D02*X118000D01*
X131500Y107000D02*Y102000D01*
X108000Y146500D02*X105500D01*
X101000Y143000D01*
G54D15*X102500Y159500D02*X93500Y150500D01*
G54D12*Y138000D01*
X87500Y150500D02*Y138000D01*
X75500Y144000D02*X93500D01*
X75500Y138000D02*Y150500D01*
X81500D02*Y138000D01*
G54D14*X63150Y142000D02*X61043Y139893D01*
G54D12*X93500Y150500D02*X50000D01*
G54D14*X81350Y160500D02*X69650D01*
X62457Y158607D02*Y150957D01*
X94000Y162000D02*X88500Y161500D01*
G54D15*X102500Y165500D02*Y159500D01*
G54D13*X103000Y171000D02*X94000Y162000D01*
G54D15*X99000Y148000D02*X107000Y150000D01*
G54D13*X103000Y173500D02*Y171000D01*
G54D12*X39500Y127000D02*X160000D01*
X75500Y138000D02*X136500D01*
X143500Y132500D01*
X167000D01*
X159500Y127000D02*X160000D01*
G54D14*X107500Y165500D02*X102500D01*
G54D15*X142000Y172500D02*Y161500D01*
G54D14*X129500Y156000D02*X135500D01*
G54D12*X128000Y147000D02*X143500D01*
X135500Y156000D02*Y147000D01*
X119500Y132500D02*X131500D01*
G54D15*X142000Y161500D02*X148000Y154000D01*
G54D12*X131500Y127000D02*Y132500D01*
G54D14*X152000Y160500D02*Y154000D01*
X158500Y165500D02*X162000D01*
X165500Y162000D02*X162000Y165500D01*
G54D12*X148000Y154000D02*X181500D01*
G54D14*X163000Y170500D02*X168000Y165500D01*
X172500D01*
G54D12*X154500Y147000D02*X167000D01*
X154500Y140000D02*X167000D01*
X160000Y132500D02*Y152500D01*
X154500Y147000D02*Y132500D01*
X167000Y127000D02*Y154000D01*
G54D14*X187500Y137000D02*X190500Y134000D01*
Y130000D01*
X176000Y132000D02*X171500D01*
G54D15*X167500D01*
G54D14*X182500Y137000D02*X187500D01*
X182500Y142000D02*X185500D01*
X192224Y137000D01*
X196500D02*X192224D01*
G54D12*X184000Y160500D02*Y156500D01*
X181500Y154000D01*
G54D15*X184000Y160500D02*X189500D01*
G54D14*X189000Y154000D02*X195436D01*
X189500Y160500D02*X194064D01*
X202000Y163500D02*Y152500D01*
G54D12*X208500Y164500D02*Y142000D01*
G54D14*X203000D01*
X150000Y42500D02*X145500D01*
Y47500D02*X150000D01*
G54D15*X155000Y48500D02*Y36000D01*
G54D14*Y57500D02*X145500D01*
X155000Y62500D02*X159500D01*
X145500D02*X150000D01*
X155000Y72500D02*X159500D01*
X145500Y52500D02*X159500D01*
G54D15*X150000Y42500D02*Y52500D01*
G54D12*X172500Y87000D02*Y36000D01*
X160000Y78000D02*X172500D01*
X160000Y87000D02*X172500D01*
G54D14*X148000Y111000D02*Y104724D01*
X148319Y104405D02*Y104319D01*
X143000Y99000D01*
G54D16*X148000Y87000D02*Y92276D01*
G54D12*X160000Y127000D02*Y78000D01*
G54D15*X167000Y127500D02*X172500Y116000D01*
G54D14*X143000Y99000D02*Y72500D01*
X132000Y76000D02*X138000Y82000D01*
Y92000D01*
X132000Y71000D02*X135500Y67500D01*
X139000D01*
X142500Y107000D02*X138000D01*
X128000Y107500D02*Y90000D01*
G54D15*X124500Y103500D02*Y84000D01*
G54D14*X117500Y102000D02*X120000D01*
X121000Y101000D01*
Y83000D01*
X117500Y88000D02*X121500Y67500D01*
X128000Y90000D02*X131500Y82000D01*
X117500Y92000D02*Y88000D01*
X121000Y83000D02*X123500Y72000D01*
G54D15*X124500Y84000D02*X126500Y76000D01*
G54D14*X132000D02*Y71000D01*
X96500Y62500D02*Y52500D01*
X101500Y61000D02*Y52500D01*
X96500Y47500D01*
X87000Y65500D02*Y78000D01*
G54D12*X82000Y75000D02*Y36000D01*
G54D14*X83500Y87000D02*X89000Y81500D01*
X110500Y67500D02*Y62500D01*
X87000Y65500D02*X90000Y62500D01*
X96500Y67500D02*X99500D01*
X98000Y75000D02*X96500Y72500D01*
X99500Y67500D02*X100500Y68500D01*
X89000Y81500D02*X94000Y77000D01*
X103000Y67500D02*Y81500D01*
G54D15*X106500Y76000D02*Y35500D01*
G54D14*X103000Y81500D02*X105000Y90500D01*
Y95000D01*
G54D12*X172500Y36000D02*X82000D01*
G54D14*X101500Y61000D02*X103000Y67500D01*
X110500Y72500D02*X106500D01*
X123500Y72000D02*X125000Y70500D01*
G54D12*X184500Y66500D02*X172500D01*
G54D14*X101000Y42500D02*X96500D01*
X121500D02*X117000D01*
X121500Y62500D02*X117000D01*
X125000Y70500D02*Y49500D01*
X121500Y57500D02*X117000D01*
X125000Y49500D02*X121500Y42500D01*
X117000Y52500D02*X121500D01*
X117000Y47500D02*X120000D01*
X121500Y57500D02*Y50000D01*
X120000Y47500D01*
X166000Y57500D02*Y52500D01*
X56000Y117000D02*X65500D01*
X56000Y112000D02*X59500D01*
X60500Y111000D01*
X56000Y122000D02*X70000D01*
X60500Y111000D02*Y98000D01*
X59500Y97000D01*
X55500D01*
X45000Y102000D02*X49500D01*
X56000Y107000D02*X60500D01*
X83500D02*X76500D01*
X83500Y112000D02*X76500D01*
Y122000D02*X81000D01*
G54D15*Y126500D02*Y122000D01*
X86000D01*
Y127000D01*
G54D14*X83500Y99000D02*X75500Y102000D01*
X56000D02*X64500D01*
G54D15*X121000Y107000D02*X124500Y103500D01*
G54D14*X124000Y114000D02*X128000Y107500D01*
X120500Y107000D02*X117500D01*
X104500Y114500D02*Y119000D01*
X106500Y107500D02*Y103500D01*
X111000Y122000D02*X107500D01*
X104500Y119000D02*X107500Y122000D01*
X117000Y117000D02*X121000D01*
G54D15*Y126500D02*Y107000D01*
G54D14*X131500Y122000D02*X127000D01*
X124000Y119000D01*
X127500Y117000D02*X131500D01*
X124000Y119000D02*Y114000D01*
X111000Y112000D02*X108500D01*
X102500Y110000D01*
X106500Y103500D02*X108000Y102000D01*
X111000D01*
Y97000D02*X107000D01*
X105000Y95000D01*
X101500Y97000D02*X98000Y95000D01*
Y75000D01*
X94000Y82000D02*Y97500D01*
X100500Y84000D02*X101500Y92000D01*
X100500Y68500D02*Y84000D01*
X94000Y97500D02*X101500Y102000D01*
X102500Y110000D02*X80000Y92000D01*
X83500Y117000D02*X104500Y114500D01*
X84500Y80500D02*X87000Y78000D01*
X65500Y94000D02*X71500Y92000D01*
X60500Y90000D02*X55000Y92000D01*
X76500D02*X80000D01*
X56000Y87000D02*Y81500D01*
X60500Y90000D02*Y82000D01*
X62000Y80500D01*
X71500Y87000D02*X65500Y85500D01*
X62000Y80500D02*X84500D01*
X76500Y87000D02*X83500D01*
G54D12*X39500Y75000D02*X82000D01*
G54D15*X45000Y87000D02*Y83500D01*
X47000Y81500D01*
X56000D01*
G54D14*X45000Y92000D02*X39500D01*
G54D11*G36*
X180000Y316000D02*Y311000D01*
X185000D01*
Y316000D01*
X180000D01*
G37*
G36*
X182750Y339250D02*Y332750D01*
X189250D01*
Y339250D01*
X182750D01*
G37*
G54D17*X196000Y336000D03*
G54D18*X212500Y313500D03*
G54D11*G36*
X99750Y338750D02*Y332250D01*
X106250D01*
Y338750D01*
X99750D01*
G37*
G54D17*X113000Y335500D03*
G54D11*G36*
X141250Y338750D02*Y332250D01*
X147750D01*
Y338750D01*
X141250D01*
G37*
G54D17*X154500Y335500D03*
G54D11*G36*
X188000Y284500D02*Y278500D01*
X194000D01*
Y284500D01*
X188000D01*
G37*
G54D19*X191000Y271500D03*
Y261500D03*
G54D20*X63500Y272200D03*
G54D21*X45800D03*
X63500Y252500D03*
Y291900D03*
G54D11*G36*
X168000Y100500D02*Y91500D01*
X177000D01*
Y100500D01*
X168000D01*
G37*
G54D22*X172500Y106000D03*
Y116000D03*
G54D11*G36*
X145500Y143500D02*Y138500D01*
X150500D01*
Y143500D01*
X145500D01*
G37*
G54D18*X148000Y111000D03*
G54D11*G36*
X127500Y58000D02*Y52000D01*
X133500D01*
Y58000D01*
X127500D01*
G37*
G54D19*X130500Y65000D03*
G54D11*G36*
X180000Y51000D02*Y42000D01*
X189000D01*
Y51000D01*
X180000D01*
G37*
G54D22*X184500Y56500D03*
Y66500D03*
G54D23*X178500Y179500D03*
X165500Y162000D03*
X192500Y167500D03*
X184000Y172500D03*
X203500Y178000D03*
X202000Y152500D03*
X189000Y154000D03*
X135500Y156000D03*
X165000Y215500D03*
X178000Y210000D03*
X165500Y189000D03*
X189500Y215500D03*
X165500Y195000D03*
X138500Y185500D03*
Y180500D03*
X184000Y160500D03*
X190500Y130000D03*
X113500Y199500D03*
X118000Y185500D03*
X123000Y186000D03*
X118000Y195500D03*
Y190500D03*
X147500Y170500D03*
Y194000D03*
X143500Y147000D03*
Y189000D03*
X123500Y178500D03*
X128000Y147000D03*
X106500Y199500D03*
X121000Y215500D03*
X155000Y48500D03*
X150000Y42500D03*
X155000Y57500D03*
X150000Y62500D03*
X155000D03*
X101000Y42000D03*
X121500Y42500D03*
X126500Y76000D03*
X121500Y62500D03*
Y57500D03*
Y67500D03*
X106500Y76000D03*
X81000Y122000D03*
X86000D03*
X93500Y132500D03*
X101000Y143000D03*
X99000Y148000D03*
X98500Y172500D03*
X106500Y143000D03*
X113500Y132500D03*
X107000Y150000D03*
X65500Y94000D03*
X60500Y90000D03*
X65500Y85500D03*
X56000Y81500D03*
X65500Y117000D03*
X83500D03*
Y112000D03*
X45000Y92000D03*
Y87000D03*
Y102000D03*
X64500D03*
X83500Y107000D03*
X45000Y122000D03*
X69500Y142000D03*
Y138000D03*
X127500Y117000D03*
X142500Y107000D03*
X124000Y104000D03*
X131500Y82000D03*
X132000Y76000D03*
X155000Y72500D03*
X148000Y87000D03*
X83500Y99000D03*
X94000Y82000D03*
Y77000D03*
X106500Y107500D03*
X101500Y102000D03*
Y92000D03*
X104500Y114500D03*
X101500Y97000D03*
X53500Y172500D03*
X74500D03*
X56500Y160500D03*
X75500D03*
X74500Y177500D03*
G54D19*X75000Y197500D03*
Y191000D03*
Y212000D03*
G54D23*X99000Y210000D03*
X129500Y280500D03*
X122500Y256500D03*
X126000Y265500D03*
X167500Y262000D03*
X164500Y301500D03*
X167500Y269500D03*
Y275500D03*
X164500Y306500D03*
X164000Y294500D03*
X140500Y275500D03*
Y280500D03*
X167500Y257000D03*
Y249500D03*
X150500Y235500D03*
X121000Y232000D03*
X102500Y242000D03*
X94500D03*
X171500Y232000D03*
X97500Y227000D03*
X190500Y240500D03*
X184000Y234500D03*
X120000Y311500D03*
X100000D03*
X105500Y325500D03*
X120000Y306500D03*
G54D19*X93000Y290000D03*
G54D23*X164500Y311500D03*
X144500Y313500D03*
X184000Y306500D03*
X111000Y275500D03*
X113000Y261000D03*
X111000Y280500D03*
X97500Y266000D03*
X93500Y260000D03*
X85000Y266000D03*
X130500Y335500D03*
G54D19*X169500Y336000D03*
X88000Y339500D03*
X185500Y322500D03*
G54D23*X81500Y296500D03*
Y248000D03*
Y252000D03*
X82000Y230000D03*
G54D19*X52000Y228500D03*
G54D23*X45500Y215500D03*
Y211000D03*
X55000Y204500D03*
X62000D03*
G54D19*Y225500D03*
G54D23*X39500Y252500D03*
X46000D03*
X81500Y290500D03*
G54D24*X172000Y270500D02*X178500D01*
X172000Y244500D02*X178500D01*
G54D25*X170819Y237905D02*X173181D01*
G54D24*X172000Y249500D02*X178500D01*
X172000Y254500D02*X178500D01*
X172000Y259500D02*X178500D01*
X151500Y270500D02*X158000D01*
X151500Y259500D02*X158000D01*
X151500Y254500D02*X158000D01*
G54D25*X143905Y268181D02*Y265819D01*
X132095Y238681D02*Y236319D01*
X143905Y238681D02*Y236319D01*
X132095Y248181D02*Y245819D01*
Y257681D02*Y255319D01*
Y268181D02*Y265819D01*
G54D24*X151500Y244500D02*X158000D01*
G54D25*X143905Y248181D02*Y245819D01*
Y257681D02*Y255319D01*
G54D24*X151500Y285500D02*X158000D01*
X151500Y280500D02*X158000D01*
X151500Y275500D02*X158000D01*
X172000D02*X178500D01*
X172000Y280500D02*X178500D01*
X172000Y285500D02*X178500D01*
X153500Y301500D02*X160000D01*
X153500Y306500D02*X160000D01*
G54D25*X172107Y305457D02*X172893D01*
G54D24*X153500Y311500D02*X160000D01*
G54D25*X172107Y312543D02*X172893D01*
G54D24*X153500Y316500D02*X160000D01*
X110500Y42500D02*X117000D01*
X110500Y47500D02*X117000D01*
X110500Y52500D02*X117000D01*
X110500Y57500D02*X117000D01*
X110500Y62500D02*X117000D01*
X110500Y67500D02*X117000D01*
X110500Y72500D02*X117000D01*
X90000D02*X96500D01*
X90000Y67500D02*X96500D01*
X90000Y62500D02*X96500D01*
X90000Y57500D02*X96500D01*
X90000Y52500D02*X96500D01*
X90000Y47500D02*X96500D01*
X90000Y42500D02*X96500D01*
X70000Y122000D02*X76500D01*
X70000Y117000D02*X76500D01*
X70000Y112000D02*X76500D01*
X70000Y97000D02*X76500D01*
X70000Y102000D02*X76500D01*
X70000Y107000D02*X76500D01*
X49500Y92000D02*X56000D01*
X49500Y87000D02*X56000D01*
X49500Y107000D02*X56000D01*
X49500Y102000D02*X56000D01*
X49500Y97000D02*X56000D01*
X49500Y122000D02*X56000D01*
X49500Y117000D02*X56000D01*
X49500Y112000D02*X56000D01*
X70000Y87000D02*X76500D01*
X70000Y92000D02*X76500D01*
X86500Y237000D02*X93000D01*
X107000D02*X113500D01*
X86500Y232000D02*X93000D01*
X107000D02*X113500D01*
X86500Y227000D02*X93000D01*
X107000D02*X113500D01*
G54D25*X76043Y227393D02*Y226607D01*
G54D24*X86500Y222000D02*X93000D01*
X107000D02*X113500D01*
G54D25*X92543Y207893D02*Y207107D01*
X85457Y207893D02*Y207107D01*
G54D26*X55100Y213900D02*X62900D01*
G54D25*X51595Y238681D02*Y236319D01*
X63405Y238681D02*Y236319D01*
X68957Y227393D02*Y226607D01*
G54D26*X55100Y195100D02*X62900D01*
G54D24*X128000Y160500D02*X134500D01*
X128000Y165500D02*X134500D01*
X128000Y170500D02*X134500D01*
X128000Y175500D02*X134500D01*
X128000Y180500D02*X134500D01*
X128000Y185500D02*X134500D01*
X128000Y190500D02*X134500D01*
X128000Y195500D02*X134500D01*
X61000Y182500D02*X67500D01*
X61000Y177500D02*X67500D01*
X61000Y172500D02*X67500D01*
G54D25*X52319Y166595D02*X54681D01*
X52319Y178405D02*X54681D01*
X61043Y139893D02*Y139107D01*
X53957Y139893D02*Y139107D01*
G54D24*X81500Y167500D02*X88000D01*
X81500Y172500D02*X88000D01*
G54D25*X81457Y159393D02*Y158607D01*
X88543Y159393D02*Y158607D01*
G54D24*X81500Y177500D02*X88000D01*
X81500Y182500D02*X88000D01*
X61000Y167500D02*X67500D01*
G54D25*X69543Y159393D02*Y158607D01*
X62457Y159393D02*Y158607D01*
G54D24*X107500Y170500D02*X114000D01*
X107500Y165500D02*X114000D01*
X107500Y160500D02*X114000D01*
X107500Y195500D02*X114000D01*
X107500Y190500D02*X114000D01*
X107500Y185500D02*X114000D01*
X107500Y180500D02*X114000D01*
X107500Y175500D02*X114000D01*
X118000Y270500D02*X124500D01*
X118000Y275500D02*X124500D01*
X118000Y280500D02*X124500D01*
X118000Y285500D02*X124500D01*
G54D25*X109457Y255393D02*Y254607D01*
X116543Y255393D02*Y254607D01*
X109595Y248181D02*Y245819D01*
X121405Y248181D02*Y245819D01*
G54D24*X133000Y316500D02*X139500D01*
X133000Y311500D02*X139500D01*
X133000Y306500D02*X139500D01*
X133000Y301500D02*X139500D01*
X88500Y316500D02*X95000D01*
X88500Y311500D02*X95000D01*
X109000Y301500D02*X115500D01*
X109000Y306500D02*X115500D01*
X88500D02*X95000D01*
X88500Y301500D02*X95000D01*
X109000Y311500D02*X115500D01*
X109000Y316500D02*X115500D01*
G54D27*X102300Y247800D02*Y247200D01*
X98400Y256000D02*Y255400D01*
X94500Y247800D02*Y247200D01*
G54D24*X97500Y285500D02*X104000D01*
G54D25*X79457Y284893D02*Y284107D01*
X86543Y284893D02*Y284107D01*
G54D24*X97500Y280500D02*X104000D01*
X97500Y275500D02*X104000D01*
X97500Y270500D02*X104000D01*
G54D25*X90905Y268681D02*Y266319D01*
Y277681D02*Y275319D01*
X79095Y268681D02*Y266319D01*
Y277681D02*Y275319D01*
X79457Y259393D02*Y258607D01*
X86543Y259393D02*Y258607D01*
G54D24*X139000Y57500D02*X145500D01*
X139000Y52500D02*X145500D01*
X139000Y47500D02*X145500D01*
X139000Y42500D02*X145500D01*
X159500D02*X166000D01*
X159500Y47500D02*X166000D01*
X159500Y52500D02*X166000D01*
X159500Y57500D02*X166000D01*
X111000Y122000D02*X117500D01*
X111000Y117000D02*X117500D01*
X111000Y112000D02*X117500D01*
X111000Y107000D02*X117500D01*
X111000Y102000D02*X117500D01*
X111000Y97000D02*X117500D01*
X111000Y92000D02*X117500D01*
X131500D02*X138000D01*
G54D25*X148319Y92595D02*X150681D01*
X148319Y104405D02*X150681D01*
G54D24*X131500Y97000D02*X138000D01*
X131500Y102000D02*X138000D01*
X131500Y107000D02*X138000D01*
X131500Y112000D02*X138000D01*
X131500Y117000D02*X138000D01*
X131500Y122000D02*X138000D01*
X139000Y72500D02*X145500D01*
X139000Y67500D02*X145500D01*
X139000Y62500D02*X145500D01*
G54D25*X236957Y77393D02*Y76607D01*
X244043Y77393D02*Y76607D01*
G54D24*X159500Y62500D02*X166000D01*
X159500Y67500D02*X166000D01*
X159500Y72500D02*X166000D01*
X176000Y142000D02*X182500D01*
X176000Y137000D02*X182500D01*
X176000Y132000D02*X182500D01*
X196500D02*X203000D01*
X196500Y137000D02*X203000D01*
X196500Y142000D02*X203000D01*
X196500Y147000D02*X203000D01*
G54D28*X230500Y118000D02*X232700D01*
G54D29*X230500Y115400D02*X232700D01*
G54D25*X236457Y99893D02*Y99107D01*
X243543Y99893D02*Y99107D01*
X236957Y89393D02*Y88607D01*
X244043Y89393D02*Y88607D01*
G54D29*X230500Y112900D02*X232700D01*
X230500Y110300D02*X232700D01*
X247200Y110200D02*X249400D01*
X247200Y112800D02*X249400D01*
X247200Y115300D02*X249400D01*
X247200Y117900D02*X249400D01*
G54D25*X217595Y138181D02*Y135819D01*
X229405Y138181D02*Y135819D01*
X238957Y137393D02*Y136607D01*
X246043Y137393D02*Y136607D01*
G54D24*X151500Y249500D02*X158000D01*
X152000Y199000D02*X158500D01*
X152000Y194000D02*X158500D01*
X152000Y189000D02*X158500D01*
X152000Y184000D02*X158500D01*
G54D27*X156400Y236000D02*Y235400D01*
G54D25*X143905Y229681D02*Y227319D01*
X132095Y229681D02*Y227319D01*
G54D27*X152500Y227800D02*Y227200D01*
G54D24*X152000Y175500D02*X158500D01*
X152000Y170500D02*X158500D01*
X172500D02*X179000D01*
X152000Y165500D02*X158500D01*
X172500D02*X179000D01*
X152000Y160500D02*X158500D01*
X172500D02*X179000D01*
G54D27*X160300Y227800D02*Y227200D01*
G54D25*X170819Y226095D02*X173181D01*
X190107Y234543D02*X190893D01*
X190107Y227457D02*X190893D01*
G54D24*X172500Y175500D02*X179000D01*
X172500Y184000D02*X179000D01*
X172500Y189000D02*X179000D01*
X172500Y194000D02*X179000D01*
X172500Y199000D02*X179000D01*
G54D25*X197543Y179393D02*Y178607D01*
X190457Y179393D02*Y178607D01*
G54D24*X176000Y147000D02*X182500D01*
G54D25*X195107Y154457D02*X195893D01*
X195107Y161543D02*X195893D01*
G54D11*G54D30*G54D11*G54D31*G54D30*G54D32*G54D33*G54D34*G54D19*G54D11*G54D32*G54D31*G54D19*G54D31*G54D11*G54D35*G54D11*G54D35*G54D11*G54D35*G54D11*G54D35*G54D11*G54D35*G54D11*G54D36*X31500Y343500D02*Y42500D01*
X48000Y360000D02*X205000D01*
X48000Y26000D02*X246500D01*
X263000Y134500D02*Y42500D01*
X31500Y343500D02*G75*G02X48000Y360000I16500J0D01*G01*
X31500Y42500D02*G75*G03X48000Y26000I16500J0D01*G01*
X246500D02*G75*G03X263000Y42500I0J16500D01*G01*
M02*
