M48
INCH
T11C0.020
T19C0.060
T30C0.043
T32C0.038
T35C0.035
T52C0.067
T53C0.103
%
T11
X018250Y031350
X021250Y031350
X014800Y014100
X014800Y011100
X017850Y017950
X016550Y016200
X019250Y016750
X018400Y017250
X020350Y017800
X020200Y015250
X018900Y015400
X013550Y015600
X016500Y021550
X017800Y021000
X016550Y018900
X018950Y021550
X016550Y019500
X013850Y018550
X013850Y018050
X018400Y016050
X019050Y013000
X011350Y019950
X011800Y018550
X012300Y018600
X011800Y019550
X011800Y019050
X014750Y017050
X014750Y019400
X014350Y014700
X014350Y018900
X012350Y017850
X012800Y014700
X010650Y019950
X012100Y021550
X015500Y004850
X015000Y004250
X015500Y005750
X015000Y006250
X015500Y006250
X010100Y004200
X012150Y004250
X012650Y007600
X012150Y006250
X012150Y005750
X012150Y006750
X010650Y007600
X008100Y012200
X008600Y012200
X009350Y013250
X010100Y014300
X009900Y014800
X009850Y017250
X010650Y014300
X011350Y013250
X010700Y015000
X006550Y009400
X006050Y009000
X006550Y008550
X005600Y008150
X006550Y011700
X008350Y011700
X008350Y011200
X004500Y009200
X004500Y008700
X004500Y010200
X006450Y010200
X008350Y010700
X004500Y012200
X006950Y014200
X006950Y013800
X012750Y011700
X014250Y010700
X012400Y010400
X013150Y008200
X013200Y007600
X015500Y007250
X014800Y008700
X008350Y009900
X009400Y008200
X009400Y007700
X010650Y010750
X010150Y010200
X010150Y009200
X010450Y011450
X010150Y009700
X005350Y017250
X007450Y017250
X005650Y016050
X007550Y016050
X007450Y017750
X009900Y021000
X012950Y028050
X012250Y025650
X012600Y026550
X016750Y026200
X016450Y030150
X016750Y026950
X016750Y027550
X016450Y030650
X016400Y029450
X014050Y027550
X014050Y028050
X016750Y025700
X016750Y024950
X015050Y023550
X012100Y023200
X010250Y024200
X009450Y024200
X017150Y023200
X009750Y022700
X019050Y024050
X018400Y023450
X012000Y031150
X010000Y031150
X010550Y032550
X012000Y030650
X016450Y031150
X014450Y031350
X018400Y030650
X011100Y027550
X011300Y026100
X011100Y028050
X009750Y026600
X009350Y026000
X008500Y026600
X013050Y033550
X008150Y029650
X008150Y024800
X008150Y025200
X008200Y023000
X004550Y021550
X004550Y021100
X005500Y020450
X006200Y020450
X003950Y025250
X004600Y025250
X008150Y029050
T35
X007500Y019750
X007500Y019100
X007500Y021200
X009300Y029000
X016950Y033600
X008800Y033950
X018550Y032250
X005200Y022850
X006200Y022550
T32
X019100Y028150
X019100Y027150
X019100Y026150
X013050Y005500
X013050Y006500
T30
X018600Y033600
X019600Y033600
X010300Y033550
X011300Y033550
X014450Y033550
X015450Y033550
T19
X017250Y009600
X017250Y010600
X017250Y011600
X018450Y004650
X018450Y005650
X018450Y006650
T52
X006350Y027220
T53
X004580Y027220
X006350Y025250
X006350Y029190
M30
