G04 start of page 14 for group -3984 idx -3984 *
G04 Title: (unknown), fab *
G04 Creator: pcb 20091103 *
G04 CreationDate: Thu Jan 29 12:21:00 2026 UTC *
G04 For: estimfr *
G04 Format: Gerber/RS-274X *
G04 PCB-Dimensions: 350000 550000 *
G04 PCB-Coordinate-Origin: lower left *
%MOIN*%
%FSLAX25Y25*%
%LNFAB*%
%ADD11C,0.0200*%
%ADD14C,0.0100*%
%ADD36C,0.0060*%
%ADD38C,0.0102*%
%ADD57R,0.0080X0.0080*%
G54D11*G36*
X234600Y53466D02*X239965Y48100D01*
X239399Y47535D01*
X234034Y52901D01*
X234600Y53466D01*
G37*
G36*
X234034Y48100D02*X239399Y53466D01*
X239965Y52901D01*
X234600Y47535D01*
X234034Y48100D01*
G37*
G54D57*X235400Y52100D02*X238600D01*
X235400D02*Y48900D01*
X238600D01*
Y52100D02*Y48900D01*
G54D11*G36*
X234600Y338466D02*X239965Y333100D01*
X239399Y332535D01*
X234034Y337901D01*
X234600Y338466D01*
G37*
G36*
X234034Y333100D02*X239399Y338466D01*
X239965Y337901D01*
X234600Y332535D01*
X234034Y333100D01*
G37*
G54D57*X235400Y337100D02*X238600D01*
X235400D02*Y333900D01*
X238600D01*
Y337100D02*Y333900D01*
G54D11*G36*
X53600Y338466D02*X58965Y333100D01*
X58399Y332535D01*
X53034Y337901D01*
X53600Y338466D01*
G37*
G36*
X53034Y333100D02*X58399Y338466D01*
X58965Y337901D01*
X53600Y332535D01*
X53034Y333100D01*
G37*
G54D57*X54400Y337100D02*X57600D01*
X54400D02*Y333900D01*
X57600D01*
Y337100D02*Y333900D01*
G54D11*G36*
X53600Y53466D02*X58965Y48100D01*
X58399Y47535D01*
X53034Y52901D01*
X53600Y53466D01*
G37*
G36*
X53034Y48100D02*X58399Y53466D01*
X58965Y52901D01*
X53600Y47535D01*
X53034Y48100D01*
G37*
G54D57*X54400Y52100D02*X57600D01*
X54400D02*Y48900D01*
X57600D01*
Y52100D02*Y48900D01*
G54D11*G36*
X12600Y564215D02*X17965Y558849D01*
X17399Y558284D01*
X12034Y563650D01*
X12600Y564215D01*
G37*
G36*
X12034Y558849D02*X17399Y564215D01*
X17965Y563650D01*
X12600Y558284D01*
X12034Y558849D01*
G37*
G54D57*X13400Y562850D02*X16600D01*
X13400D02*Y559650D01*
X16600D01*
Y562850D02*Y559650D01*
G54D36*X200000Y563500D02*Y557500D01*
Y563500D02*Y562750D01*
X203750Y559000D01*
Y563500D02*Y557500D01*
X205551Y562750D02*Y558250D01*
Y562750D02*X206301Y563500D01*
X207801D01*
X208551Y562750D01*
Y558250D01*
X207801Y557500D02*X208551Y558250D01*
X206301Y557500D02*X207801D01*
X205551Y558250D02*X206301Y557500D01*
X200000Y554249D02*X210353D01*
X158000Y560500D02*X161000Y563500D01*
X158000Y560500D02*X161750D01*
X161000Y563500D02*Y557500D01*
X158000Y554249D02*X163551D01*
X41000Y558250D02*X41750Y557500D01*
X41000Y562750D02*Y558250D01*
Y562750D02*X41750Y563500D01*
X43250D01*
X44000Y562750D01*
Y558250D01*
X43250Y557500D02*X44000Y558250D01*
X41750Y557500D02*X43250D01*
X41000Y559000D02*X44000Y562000D01*
X45801Y557500D02*X46551D01*
X49103D02*X50603D01*
X49853Y563500D02*Y557500D01*
X48353Y562000D02*X49853Y563500D01*
X54654D02*X55404Y562750D01*
X53154Y563500D02*X54654D01*
X52404Y562750D02*X53154Y563500D01*
X52404Y562750D02*Y558250D01*
X53154Y557500D01*
X54654Y560500D02*X55404Y559750D01*
X52404Y560500D02*X54654D01*
X53154Y557500D02*X54654D01*
X55404Y558250D01*
Y559750D02*Y558250D01*
X57206Y562750D02*X57956Y563500D01*
X60206D01*
X60956Y562750D01*
Y561250D01*
X57206Y557500D02*X60956Y561250D01*
X57206Y557500D02*X60956D01*
X65457Y558250D02*X66207Y557500D01*
X65457Y562750D02*X66207Y563500D01*
X65457Y562750D02*Y558250D01*
X70709Y560500D02*X73709Y563500D01*
X70709Y560500D02*X74459D01*
X73709Y563500D02*Y557500D01*
X76260D02*X77010D01*
X79562D02*X81062D01*
X80312Y563500D02*Y557500D01*
X78812Y562000D02*X80312Y563500D01*
X82863Y558250D02*X83613Y557500D01*
X82863Y562750D02*Y558250D01*
Y562750D02*X83613Y563500D01*
X85113D01*
X85863Y562750D01*
Y558250D01*
X85113Y557500D02*X85863Y558250D01*
X83613Y557500D02*X85113D01*
X82863Y559000D02*X85863Y562000D01*
X87665Y558250D02*X88415Y557500D01*
X87665Y562750D02*Y558250D01*
Y562750D02*X88415Y563500D01*
X89915D01*
X90665Y562750D01*
Y558250D01*
X89915Y557500D02*X90665Y558250D01*
X88415Y557500D02*X89915D01*
X87665Y559000D02*X90665Y562000D01*
X93216Y557500D02*X94716D01*
X93966Y563500D02*Y557500D01*
X92466Y562000D02*X93966Y563500D01*
X99968Y559750D02*Y557500D01*
Y559750D02*X100718Y560500D01*
X101468D01*
X102218Y559750D01*
Y557500D01*
Y559750D02*X102968Y560500D01*
X103718D01*
X104468Y559750D01*
Y557500D01*
X99218Y560500D02*X99968Y559750D01*
X107019D02*Y557500D01*
Y559750D02*X107769Y560500D01*
X108519D01*
X109269Y559750D01*
Y557500D01*
Y559750D02*X110019Y560500D01*
X110769D01*
X111519Y559750D01*
Y557500D01*
X106269Y560500D02*X107019Y559750D01*
X116021Y563500D02*X116771Y562750D01*
Y558250D01*
X116021Y557500D02*X116771Y558250D01*
X41000Y554249D02*X118572D01*
X45800Y275400D02*Y269000D01*
X42600Y272200D02*X49000D01*
X44200Y273800D02*X47400D01*
X44200D02*Y270600D01*
X47400D01*
Y273800D02*Y270600D01*
X63500Y255700D02*Y249300D01*
X60300Y252500D02*X66700D01*
X61900Y254100D02*X65100D01*
X61900D02*Y250900D01*
X65100D01*
Y254100D02*Y250900D01*
X63500Y295100D02*Y288700D01*
X60300Y291900D02*X66700D01*
X61900Y293500D02*X65100D01*
X61900D02*Y290300D01*
X65100D01*
Y293500D02*Y290300D01*
X15000Y579450D02*Y573050D01*
X11800Y576250D02*X18200D01*
X13400Y577850D02*X16600D01*
X13400D02*Y574650D01*
X16600D01*
Y577850D02*Y574650D01*
X195000Y578500D02*Y577750D01*
X196500Y576250D01*
X198000Y577750D01*
Y578500D02*Y577750D01*
X196500Y576250D02*Y572500D01*
X199801Y575500D02*X202051D01*
X199801Y572500D02*X202801D01*
X199801Y578500D02*Y572500D01*
Y578500D02*X202801D01*
X207603D02*X208353Y577750D01*
X205353Y578500D02*X207603D01*
X204603Y577750D02*X205353Y578500D01*
X204603Y577750D02*Y576250D01*
X205353Y575500D01*
X207603D01*
X208353Y574750D01*
Y573250D01*
X207603Y572500D02*X208353Y573250D01*
X205353Y572500D02*X207603D01*
X204603Y573250D02*X205353Y572500D01*
X195000Y569249D02*X210154D01*
X158000Y577750D02*X158750Y578500D01*
X160250D01*
X161000Y577750D01*
Y573250D01*
X160250Y572500D02*X161000Y573250D01*
X158750Y572500D02*X160250D01*
X158000Y573250D02*X158750Y572500D01*
Y575500D02*X161000D01*
X158000Y569249D02*X162801D01*
X41000Y573250D02*X41750Y572500D01*
X41000Y577750D02*Y573250D01*
Y577750D02*X41750Y578500D01*
X43250D01*
X44000Y577750D01*
Y573250D01*
X43250Y572500D02*X44000Y573250D01*
X41750Y572500D02*X43250D01*
X41000Y574000D02*X44000Y577000D01*
X45801Y572500D02*X46551D01*
X49103D02*X50603D01*
X49853Y578500D02*Y572500D01*
X48353Y577000D02*X49853Y578500D01*
X52404Y573250D02*X53154Y572500D01*
X52404Y577750D02*Y573250D01*
Y577750D02*X53154Y578500D01*
X54654D01*
X55404Y577750D01*
Y573250D01*
X54654Y572500D02*X55404Y573250D01*
X53154Y572500D02*X54654D01*
X52404Y574000D02*X55404Y577000D01*
X57206Y577750D02*X57956Y578500D01*
X59456D01*
X60206Y577750D01*
Y573250D01*
X59456Y572500D02*X60206Y573250D01*
X57956Y572500D02*X59456D01*
X57206Y573250D02*X57956Y572500D01*
Y575500D02*X60206D01*
X64707Y573250D02*X65457Y572500D01*
X64707Y577750D02*X65457Y578500D01*
X64707Y577750D02*Y573250D01*
X69959Y577750D02*X70709Y578500D01*
X72959D01*
X73709Y577750D01*
Y576250D01*
X69959Y572500D02*X73709Y576250D01*
X69959Y572500D02*X73709D01*
X75510D02*X76260D01*
X80312Y578500D02*X81062Y577750D01*
X78812Y578500D02*X80312D01*
X78062Y577750D02*X78812Y578500D01*
X78062Y577750D02*Y573250D01*
X78812Y572500D01*
X80312Y575500D02*X81062Y574750D01*
X78062Y575500D02*X80312D01*
X78812Y572500D02*X80312D01*
X81062Y573250D01*
Y574750D02*Y573250D01*
X83613Y572500D02*X85113D01*
X84363Y578500D02*Y572500D01*
X82863Y577000D02*X84363Y578500D01*
X89165D02*X89915Y577750D01*
X87665Y578500D02*X89165D01*
X86915Y577750D02*X87665Y578500D01*
X86915Y577750D02*Y573250D01*
X87665Y572500D01*
X89165Y575500D02*X89915Y574750D01*
X86915Y575500D02*X89165D01*
X87665Y572500D02*X89165D01*
X89915Y573250D01*
Y574750D02*Y573250D01*
X91716Y577750D02*X92466Y578500D01*
X94716D01*
X95466Y577750D01*
Y576250D01*
X91716Y572500D02*X95466Y576250D01*
X91716Y572500D02*X95466D01*
X100718Y574750D02*Y572500D01*
Y574750D02*X101468Y575500D01*
X102218D01*
X102968Y574750D01*
Y572500D01*
Y574750D02*X103718Y575500D01*
X104468D01*
X105218Y574750D01*
Y572500D01*
X99968Y575500D02*X100718Y574750D01*
X107769D02*Y572500D01*
Y574750D02*X108519Y575500D01*
X109269D01*
X110019Y574750D01*
Y572500D01*
Y574750D02*X110769Y575500D01*
X111519D01*
X112269Y574750D01*
Y572500D01*
X107019Y575500D02*X107769Y574750D01*
X116771Y578500D02*X117521Y577750D01*
Y573250D01*
X116771Y572500D02*X117521Y573250D01*
X41000Y569249D02*X119322D01*
X63500Y272200D02*Y269000D01*
Y272200D02*X66273Y273800D01*
X63500Y272200D02*X60727Y273800D01*
X61900Y272200D02*G75*G03X65100Y272200I1600J0D01*G01*
G75*G03X61900Y272200I-1600J0D01*G01*
X15000Y591250D02*Y588050D01*
Y591250D02*X17773Y592850D01*
X15000Y591250D02*X12227Y592850D01*
X13400Y591250D02*G75*G03X16600Y591250I1600J0D01*G01*
G75*G03X13400Y591250I-1600J0D01*G01*
X195000Y593500D02*Y592750D01*
X196500Y591250D01*
X198000Y592750D01*
Y593500D02*Y592750D01*
X196500Y591250D02*Y587500D01*
X199801Y590500D02*X202051D01*
X199801Y587500D02*X202801D01*
X199801Y593500D02*Y587500D01*
Y593500D02*X202801D01*
X207603D02*X208353Y592750D01*
X205353Y593500D02*X207603D01*
X204603Y592750D02*X205353Y593500D01*
X204603Y592750D02*Y591250D01*
X205353Y590500D01*
X207603D01*
X208353Y589750D01*
Y588250D01*
X207603Y587500D02*X208353Y588250D01*
X205353Y587500D02*X207603D01*
X204603Y588250D02*X205353Y587500D01*
X195000Y584249D02*X210154D01*
X158750Y587500D02*X160250D01*
X159500Y593500D02*Y587500D01*
X158000Y592000D02*X159500Y593500D01*
X158000Y584249D02*X162051D01*
X41000Y588250D02*X41750Y587500D01*
X41000Y592750D02*Y588250D01*
Y592750D02*X41750Y593500D01*
X43250D01*
X44000Y592750D01*
Y588250D01*
X43250Y587500D02*X44000Y588250D01*
X41750Y587500D02*X43250D01*
X41000Y589000D02*X44000Y592000D01*
X45801Y587500D02*X46551D01*
X48353Y588250D02*X49103Y587500D01*
X48353Y592750D02*Y588250D01*
Y592750D02*X49103Y593500D01*
X50603D01*
X51353Y592750D01*
Y588250D01*
X50603Y587500D02*X51353Y588250D01*
X49103Y587500D02*X50603D01*
X48353Y589000D02*X51353Y592000D01*
X55404Y593500D02*X56154Y592750D01*
X53904Y593500D02*X55404D01*
X53154Y592750D02*X53904Y593500D01*
X53154Y592750D02*Y588250D01*
X53904Y587500D01*
X55404Y590500D02*X56154Y589750D01*
X53154Y590500D02*X55404D01*
X53904Y587500D02*X55404D01*
X56154Y588250D01*
Y589750D02*Y588250D01*
X57956Y587500D02*X61706Y591250D01*
Y593500D02*Y591250D01*
X57956Y593500D02*X61706D01*
X66207Y588250D02*X66957Y587500D01*
X66207Y592750D02*X66957Y593500D01*
X66207Y592750D02*Y588250D01*
X72209Y587500D02*X73709D01*
X72959Y593500D02*Y587500D01*
X71459Y592000D02*X72959Y593500D01*
X75510Y587500D02*X76260D01*
X78062D02*X81812Y591250D01*
Y593500D02*Y591250D01*
X78062Y593500D02*X81812D01*
X83613Y588250D02*X84363Y587500D01*
X83613Y592750D02*Y588250D01*
Y592750D02*X84363Y593500D01*
X85863D01*
X86613Y592750D01*
Y588250D01*
X85863Y587500D02*X86613Y588250D01*
X84363Y587500D02*X85863D01*
X83613Y589000D02*X86613Y592000D01*
X89165Y587500D02*X90665D01*
X89915Y593500D02*Y587500D01*
X88415Y592000D02*X89915Y593500D01*
X92466Y588250D02*X93216Y587500D01*
X92466Y589750D02*Y588250D01*
Y589750D02*X93216Y590500D01*
X94716D01*
X95466Y589750D01*
Y588250D01*
X94716Y587500D02*X95466Y588250D01*
X93216Y587500D02*X94716D01*
X92466Y591250D02*X93216Y590500D01*
X92466Y592750D02*Y591250D01*
Y592750D02*X93216Y593500D01*
X94716D01*
X95466Y592750D01*
Y591250D01*
X94716Y590500D02*X95466Y591250D01*
X100718Y589750D02*Y587500D01*
Y589750D02*X101468Y590500D01*
X102218D01*
X102968Y589750D01*
Y587500D01*
Y589750D02*X103718Y590500D01*
X104468D01*
X105218Y589750D01*
Y587500D01*
X99968Y590500D02*X100718Y589750D01*
X107769D02*Y587500D01*
Y589750D02*X108519Y590500D01*
X109269D01*
X110019Y589750D01*
Y587500D01*
Y589750D02*X110769Y590500D01*
X111519D01*
X112269Y589750D01*
Y587500D01*
X107019Y590500D02*X107769Y589750D01*
X116771Y593500D02*X117521Y592750D01*
Y588250D01*
X116771Y587500D02*X117521Y588250D01*
X41000Y584249D02*X119322D01*
X182900Y48100D02*X186100D01*
X182900D02*Y44900D01*
X186100D01*
Y48100D02*Y44900D01*
X182900Y58100D02*X186100D01*
X182900D02*Y54900D01*
X186100D01*
Y58100D02*Y54900D01*
X182900Y68100D02*X186100D01*
X182900D02*Y64900D01*
X186100D01*
Y68100D02*Y64900D01*
X170900Y97600D02*X174100D01*
X170900D02*Y94400D01*
X174100D01*
Y97600D02*Y94400D01*
X170900Y107600D02*X174100D01*
X170900D02*Y104400D01*
X174100D01*
Y107600D02*Y104400D01*
X170900Y117600D02*X174100D01*
X170900D02*Y114400D01*
X174100D01*
Y117600D02*Y114400D01*
X13400Y607850D02*X16600D01*
X13400D02*Y604650D01*
X16600D01*
Y607850D02*Y604650D01*
X195000Y608500D02*Y607750D01*
X196500Y606250D01*
X198000Y607750D01*
Y608500D02*Y607750D01*
X196500Y606250D02*Y602500D01*
X199801Y605500D02*X202051D01*
X199801Y602500D02*X202801D01*
X199801Y608500D02*Y602500D01*
Y608500D02*X202801D01*
X207603D02*X208353Y607750D01*
X205353Y608500D02*X207603D01*
X204603Y607750D02*X205353Y608500D01*
X204603Y607750D02*Y606250D01*
X205353Y605500D01*
X207603D01*
X208353Y604750D01*
Y603250D01*
X207603Y602500D02*X208353Y603250D01*
X205353Y602500D02*X207603D01*
X204603Y603250D02*X205353Y602500D01*
X195000Y599249D02*X210154D01*
X160250Y608500D02*X161000Y607750D01*
X158750Y608500D02*X160250D01*
X158000Y607750D02*X158750Y608500D01*
X158000Y607750D02*Y603250D01*
X158750Y602500D01*
X160250Y605500D02*X161000Y604750D01*
X158000Y605500D02*X160250D01*
X158750Y602500D02*X160250D01*
X161000Y603250D01*
Y604750D02*Y603250D01*
X158000Y599249D02*X162801D01*
X41000Y603250D02*X41750Y602500D01*
X41000Y607750D02*Y603250D01*
Y607750D02*X41750Y608500D01*
X43250D01*
X44000Y607750D01*
Y603250D01*
X43250Y602500D02*X44000Y603250D01*
X41750Y602500D02*X43250D01*
X41000Y604000D02*X44000Y607000D01*
X45801Y602500D02*X46551D01*
X48353Y603250D02*X49103Y602500D01*
X48353Y607750D02*Y603250D01*
Y607750D02*X49103Y608500D01*
X50603D01*
X51353Y607750D01*
Y603250D01*
X50603Y602500D02*X51353Y603250D01*
X49103Y602500D02*X50603D01*
X48353Y604000D02*X51353Y607000D01*
X55404Y608500D02*X56154Y607750D01*
X53904Y608500D02*X55404D01*
X53154Y607750D02*X53904Y608500D01*
X53154Y607750D02*Y603250D01*
X53904Y602500D01*
X55404Y605500D02*X56154Y604750D01*
X53154Y605500D02*X55404D01*
X53904Y602500D02*X55404D01*
X56154Y603250D01*
Y604750D02*Y603250D01*
X57956D02*X58706Y602500D01*
X57956Y607750D02*Y603250D01*
Y607750D02*X58706Y608500D01*
X60206D01*
X60956Y607750D01*
Y603250D01*
X60206Y602500D02*X60956Y603250D01*
X58706Y602500D02*X60206D01*
X57956Y604000D02*X60956Y607000D01*
X65457Y603250D02*X66207Y602500D01*
X65457Y607750D02*X66207Y608500D01*
X65457Y607750D02*Y603250D01*
X71459Y602500D02*X72959D01*
X72209Y608500D02*Y602500D01*
X70709Y607000D02*X72209Y608500D01*
X74760Y602500D02*X75510D01*
X77312Y608500D02*X80312D01*
X77312D02*Y605500D01*
X78062Y606250D01*
X79562D01*
X80312Y605500D01*
Y603250D01*
X79562Y602500D02*X80312Y603250D01*
X78062Y602500D02*X79562D01*
X77312Y603250D02*X78062Y602500D01*
X82113Y607750D02*X82863Y608500D01*
X85113D01*
X85863Y607750D01*
Y606250D01*
X82113Y602500D02*X85863Y606250D01*
X82113Y602500D02*X85863D01*
X87665Y605500D02*X90665Y608500D01*
X87665Y605500D02*X91415D01*
X90665Y608500D02*Y602500D01*
X93216Y603250D02*X93966Y602500D01*
X93216Y607750D02*Y603250D01*
Y607750D02*X93966Y608500D01*
X95466D01*
X96216Y607750D01*
Y603250D01*
X95466Y602500D02*X96216Y603250D01*
X93966Y602500D02*X95466D01*
X93216Y604000D02*X96216Y607000D01*
X101468Y604750D02*Y602500D01*
Y604750D02*X102218Y605500D01*
X102968D01*
X103718Y604750D01*
Y602500D01*
Y604750D02*X104468Y605500D01*
X105218D01*
X105968Y604750D01*
Y602500D01*
X100718Y605500D02*X101468Y604750D01*
X108519D02*Y602500D01*
Y604750D02*X109269Y605500D01*
X110019D01*
X110769Y604750D01*
Y602500D01*
Y604750D02*X111519Y605500D01*
X112269D01*
X113019Y604750D01*
Y602500D01*
X107769Y605500D02*X108519Y604750D01*
X117521Y608500D02*X118271Y607750D01*
Y603250D01*
X117521Y602500D02*X118271Y603250D01*
X41000Y599249D02*X120072D01*
X185200Y336000D02*G75*G03X186800Y336000I800J0D01*G01*
G75*G03X185200Y336000I-800J0D01*G01*
X195200D02*G75*G03X196800Y336000I800J0D01*G01*
G75*G03X195200Y336000I-800J0D01*G01*
X143700Y335500D02*G75*G03X145300Y335500I800J0D01*G01*
G75*G03X143700Y335500I-800J0D01*G01*
X153700D02*G75*G03X155300Y335500I800J0D01*G01*
G75*G03X153700Y335500I-800J0D01*G01*
X102200D02*G75*G03X103800Y335500I800J0D01*G01*
G75*G03X102200Y335500I-800J0D01*G01*
X112200D02*G75*G03X113800Y335500I800J0D01*G01*
G75*G03X112200Y335500I-800J0D01*G01*
X14200Y621250D02*G75*G03X15800Y621250I800J0D01*G01*
G75*G03X14200Y621250I-800J0D01*G01*
X195000Y623500D02*Y622750D01*
X196500Y621250D01*
X198000Y622750D01*
Y623500D02*Y622750D01*
X196500Y621250D02*Y617500D01*
X199801Y620500D02*X202051D01*
X199801Y617500D02*X202801D01*
X199801Y623500D02*Y617500D01*
Y623500D02*X202801D01*
X207603D02*X208353Y622750D01*
X205353Y623500D02*X207603D01*
X204603Y622750D02*X205353Y623500D01*
X204603Y622750D02*Y621250D01*
X205353Y620500D01*
X207603D01*
X208353Y619750D01*
Y618250D01*
X207603Y617500D02*X208353Y618250D01*
X205353Y617500D02*X207603D01*
X204603Y618250D02*X205353Y617500D01*
X195000Y614249D02*X210154D01*
X160250Y623500D02*X161000Y622750D01*
X158750Y623500D02*X160250D01*
X158000Y622750D02*X158750Y623500D01*
X158000Y622750D02*Y618250D01*
X158750Y617500D01*
X160250Y620500D02*X161000Y619750D01*
X158000Y620500D02*X160250D01*
X158750Y617500D02*X160250D01*
X161000Y618250D01*
Y619750D02*Y618250D01*
X158000Y614249D02*X162801D01*
X41000Y618250D02*X41750Y617500D01*
X41000Y622750D02*Y618250D01*
Y622750D02*X41750Y623500D01*
X43250D01*
X44000Y622750D01*
Y618250D01*
X43250Y617500D02*X44000Y618250D01*
X41750Y617500D02*X43250D01*
X41000Y619000D02*X44000Y622000D01*
X45801Y617500D02*X46551D01*
X48353Y618250D02*X49103Y617500D01*
X48353Y622750D02*Y618250D01*
Y622750D02*X49103Y623500D01*
X50603D01*
X51353Y622750D01*
Y618250D01*
X50603Y617500D02*X51353Y618250D01*
X49103Y617500D02*X50603D01*
X48353Y619000D02*X51353Y622000D01*
X53154Y620500D02*X56154Y623500D01*
X53154Y620500D02*X56904D01*
X56154Y623500D02*Y617500D01*
X58706Y622750D02*X59456Y623500D01*
X60956D01*
X61706Y622750D01*
Y618250D01*
X60956Y617500D02*X61706Y618250D01*
X59456Y617500D02*X60956D01*
X58706Y618250D02*X59456Y617500D01*
Y620500D02*X61706D01*
X66207Y618250D02*X66957Y617500D01*
X66207Y622750D02*X66957Y623500D01*
X66207Y622750D02*Y618250D01*
X72209Y617500D02*X73709D01*
X72959Y623500D02*Y617500D01*
X71459Y622000D02*X72959Y623500D01*
X75510Y617500D02*X76260D01*
X78062Y618250D02*X78812Y617500D01*
X78062Y622750D02*Y618250D01*
Y622750D02*X78812Y623500D01*
X80312D01*
X81062Y622750D01*
Y618250D01*
X80312Y617500D02*X81062Y618250D01*
X78812Y617500D02*X80312D01*
X78062Y619000D02*X81062Y622000D01*
X82863Y617500D02*X85863Y620500D01*
Y622750D02*Y620500D01*
X85113Y623500D02*X85863Y622750D01*
X83613Y623500D02*X85113D01*
X82863Y622750D02*X83613Y623500D01*
X82863Y622750D02*Y621250D01*
X83613Y620500D01*
X85863D01*
X87665Y622750D02*X88415Y623500D01*
X90665D01*
X91415Y622750D01*
Y621250D01*
X87665Y617500D02*X91415Y621250D01*
X87665Y617500D02*X91415D01*
X93216Y622750D02*X93966Y623500D01*
X96216D01*
X96966Y622750D01*
Y621250D01*
X93216Y617500D02*X96966Y621250D01*
X93216Y617500D02*X96966D01*
X102218Y619750D02*Y617500D01*
Y619750D02*X102968Y620500D01*
X103718D01*
X104468Y619750D01*
Y617500D01*
Y619750D02*X105218Y620500D01*
X105968D01*
X106718Y619750D01*
Y617500D01*
X101468Y620500D02*X102218Y619750D01*
X109269D02*Y617500D01*
Y619750D02*X110019Y620500D01*
X110769D01*
X111519Y619750D01*
Y617500D01*
Y619750D02*X112269Y620500D01*
X113019D01*
X113769Y619750D01*
Y617500D01*
X108519Y620500D02*X109269Y619750D01*
X118271Y623500D02*X119021Y622750D01*
Y618250D01*
X118271Y617500D02*X119021Y618250D01*
X41000Y614249D02*X120822D01*
X189800Y282700D02*X192200Y280300D01*
X189800D02*X192200Y282700D01*
X189800Y272700D02*X192200Y270300D01*
X189800D02*X192200Y272700D01*
X189800Y262700D02*X192200Y260300D01*
X189800D02*X192200Y262700D01*
X129300Y56200D02*X131700Y53800D01*
X129300D02*X131700Y56200D01*
X129300Y66200D02*X131700Y63800D01*
X129300D02*X131700Y66200D01*
X13800Y637450D02*X16200Y635050D01*
X13800D02*X16200Y637450D01*
X195000Y638500D02*Y637750D01*
X196500Y636250D01*
X198000Y637750D01*
Y638500D02*Y637750D01*
X196500Y636250D02*Y632500D01*
X199801Y635500D02*X202051D01*
X199801Y632500D02*X202801D01*
X199801Y638500D02*Y632500D01*
Y638500D02*X202801D01*
X207603D02*X208353Y637750D01*
X205353Y638500D02*X207603D01*
X204603Y637750D02*X205353Y638500D01*
X204603Y637750D02*Y636250D01*
X205353Y635500D01*
X207603D01*
X208353Y634750D01*
Y633250D01*
X207603Y632500D02*X208353Y633250D01*
X205353Y632500D02*X207603D01*
X204603Y633250D02*X205353Y632500D01*
X195000Y629249D02*X210154D01*
X158000Y638500D02*X161000D01*
X158000D02*Y635500D01*
X158750Y636250D01*
X160250D01*
X161000Y635500D01*
Y633250D01*
X160250Y632500D02*X161000Y633250D01*
X158750Y632500D02*X160250D01*
X158000Y633250D02*X158750Y632500D01*
X158000Y629249D02*X162801D01*
X41000Y633250D02*X41750Y632500D01*
X41000Y637750D02*Y633250D01*
Y637750D02*X41750Y638500D01*
X43250D01*
X44000Y637750D01*
Y633250D01*
X43250Y632500D02*X44000Y633250D01*
X41750Y632500D02*X43250D01*
X41000Y634000D02*X44000Y637000D01*
X45801Y632500D02*X46551D01*
X48353Y633250D02*X49103Y632500D01*
X48353Y637750D02*Y633250D01*
Y637750D02*X49103Y638500D01*
X50603D01*
X51353Y637750D01*
Y633250D01*
X50603Y632500D02*X51353Y633250D01*
X49103Y632500D02*X50603D01*
X48353Y634000D02*X51353Y637000D01*
X53154Y637750D02*X53904Y638500D01*
X55404D01*
X56154Y637750D01*
Y633250D01*
X55404Y632500D02*X56154Y633250D01*
X53904Y632500D02*X55404D01*
X53154Y633250D02*X53904Y632500D01*
Y635500D02*X56154D01*
X57956Y633250D02*X58706Y632500D01*
X57956Y634750D02*Y633250D01*
Y634750D02*X58706Y635500D01*
X60206D01*
X60956Y634750D01*
Y633250D01*
X60206Y632500D02*X60956Y633250D01*
X58706Y632500D02*X60206D01*
X57956Y636250D02*X58706Y635500D01*
X57956Y637750D02*Y636250D01*
Y637750D02*X58706Y638500D01*
X60206D01*
X60956Y637750D01*
Y636250D01*
X60206Y635500D02*X60956Y636250D01*
X65457Y633250D02*X66207Y632500D01*
X65457Y637750D02*X66207Y638500D01*
X65457Y637750D02*Y633250D01*
X70709D02*X71459Y632500D01*
X70709Y637750D02*Y633250D01*
Y637750D02*X71459Y638500D01*
X72959D01*
X73709Y637750D01*
Y633250D01*
X72959Y632500D02*X73709Y633250D01*
X71459Y632500D02*X72959D01*
X70709Y634000D02*X73709Y637000D01*
X75510Y632500D02*X76260D01*
X78062D02*X81062Y635500D01*
Y637750D02*Y635500D01*
X80312Y638500D02*X81062Y637750D01*
X78812Y638500D02*X80312D01*
X78062Y637750D02*X78812Y638500D01*
X78062Y637750D02*Y636250D01*
X78812Y635500D01*
X81062D01*
X85113Y638500D02*X85863Y637750D01*
X83613Y638500D02*X85113D01*
X82863Y637750D02*X83613Y638500D01*
X82863Y637750D02*Y633250D01*
X83613Y632500D01*
X85113Y635500D02*X85863Y634750D01*
X82863Y635500D02*X85113D01*
X83613Y632500D02*X85113D01*
X85863Y633250D01*
Y634750D02*Y633250D01*
X87665Y638500D02*X90665D01*
X87665D02*Y635500D01*
X88415Y636250D01*
X89915D01*
X90665Y635500D01*
Y633250D01*
X89915Y632500D02*X90665Y633250D01*
X88415Y632500D02*X89915D01*
X87665Y633250D02*X88415Y632500D01*
X92466Y637750D02*X93216Y638500D01*
X95466D01*
X96216Y637750D01*
Y636250D01*
X92466Y632500D02*X96216Y636250D01*
X92466Y632500D02*X96216D01*
X101468Y634750D02*Y632500D01*
Y634750D02*X102218Y635500D01*
X102968D01*
X103718Y634750D01*
Y632500D01*
Y634750D02*X104468Y635500D01*
X105218D01*
X105968Y634750D01*
Y632500D01*
X100718Y635500D02*X101468Y634750D01*
X108519D02*Y632500D01*
Y634750D02*X109269Y635500D01*
X110019D01*
X110769Y634750D01*
Y632500D01*
Y634750D02*X111519Y635500D01*
X112269D01*
X113019Y634750D01*
Y632500D01*
X107769Y635500D02*X108519Y634750D01*
X117521Y638500D02*X118271Y637750D01*
Y633250D01*
X117521Y632500D02*X118271Y633250D01*
X41000Y629249D02*X120072D01*
X93000Y291600D02*Y288400D01*
X91400Y290000D02*X94600D01*
X75000Y199100D02*Y195900D01*
X73400Y197500D02*X76600D01*
X75000Y192600D02*Y189400D01*
X73400Y191000D02*X76600D01*
X52000Y230100D02*Y226900D01*
X50400Y228500D02*X53600D01*
X75000Y213600D02*Y210400D01*
X73400Y212000D02*X76600D01*
X62000Y227100D02*Y223900D01*
X60400Y225500D02*X63600D01*
X185500Y324100D02*Y320900D01*
X183900Y322500D02*X187100D01*
X169500Y337600D02*Y334400D01*
X167900Y336000D02*X171100D01*
X88000Y341100D02*Y337900D01*
X86400Y339500D02*X89600D01*
X15000Y652850D02*Y649650D01*
X13400Y651250D02*X16600D01*
X195000Y653500D02*Y652750D01*
X196500Y651250D01*
X198000Y652750D01*
Y653500D02*Y652750D01*
X196500Y651250D02*Y647500D01*
X199801Y650500D02*X202051D01*
X199801Y647500D02*X202801D01*
X199801Y653500D02*Y647500D01*
Y653500D02*X202801D01*
X207603D02*X208353Y652750D01*
X205353Y653500D02*X207603D01*
X204603Y652750D02*X205353Y653500D01*
X204603Y652750D02*Y651250D01*
X205353Y650500D01*
X207603D01*
X208353Y649750D01*
Y648250D01*
X207603Y647500D02*X208353Y648250D01*
X205353Y647500D02*X207603D01*
X204603Y648250D02*X205353Y647500D01*
X195000Y644249D02*X210154D01*
X158000Y647500D02*X161000Y650500D01*
Y652750D02*Y650500D01*
X160250Y653500D02*X161000Y652750D01*
X158750Y653500D02*X160250D01*
X158000Y652750D02*X158750Y653500D01*
X158000Y652750D02*Y651250D01*
X158750Y650500D01*
X161000D01*
X158000Y644249D02*X162801D01*
X41000Y648250D02*X41750Y647500D01*
X41000Y652750D02*Y648250D01*
Y652750D02*X41750Y653500D01*
X43250D01*
X44000Y652750D01*
Y648250D01*
X43250Y647500D02*X44000Y648250D01*
X41750Y647500D02*X43250D01*
X41000Y649000D02*X44000Y652000D01*
X45801Y647500D02*X46551D01*
X48353Y648250D02*X49103Y647500D01*
X48353Y652750D02*Y648250D01*
Y652750D02*X49103Y653500D01*
X50603D01*
X51353Y652750D01*
Y648250D01*
X50603Y647500D02*X51353Y648250D01*
X49103Y647500D02*X50603D01*
X48353Y649000D02*X51353Y652000D01*
X53154Y652750D02*X53904Y653500D01*
X55404D01*
X56154Y652750D01*
Y648250D01*
X55404Y647500D02*X56154Y648250D01*
X53904Y647500D02*X55404D01*
X53154Y648250D02*X53904Y647500D01*
Y650500D02*X56154D01*
X57956Y653500D02*X60956D01*
X57956D02*Y650500D01*
X58706Y651250D01*
X60206D01*
X60956Y650500D01*
Y648250D01*
X60206Y647500D02*X60956Y648250D01*
X58706Y647500D02*X60206D01*
X57956Y648250D02*X58706Y647500D01*
X65457Y648250D02*X66207Y647500D01*
X65457Y652750D02*X66207Y653500D01*
X65457Y652750D02*Y648250D01*
X70709D02*X71459Y647500D01*
X70709Y652750D02*Y648250D01*
Y652750D02*X71459Y653500D01*
X72959D01*
X73709Y652750D01*
Y648250D01*
X72959Y647500D02*X73709Y648250D01*
X71459Y647500D02*X72959D01*
X70709Y649000D02*X73709Y652000D01*
X75510Y647500D02*X76260D01*
X78062Y648250D02*X78812Y647500D01*
X78062Y649750D02*Y648250D01*
Y649750D02*X78812Y650500D01*
X80312D01*
X81062Y649750D01*
Y648250D01*
X80312Y647500D02*X81062Y648250D01*
X78812Y647500D02*X80312D01*
X78062Y651250D02*X78812Y650500D01*
X78062Y652750D02*Y651250D01*
Y652750D02*X78812Y653500D01*
X80312D01*
X81062Y652750D01*
Y651250D01*
X80312Y650500D02*X81062Y651250D01*
X82863Y648250D02*X83613Y647500D01*
X82863Y649750D02*Y648250D01*
Y649750D02*X83613Y650500D01*
X85113D01*
X85863Y649750D01*
Y648250D01*
X85113Y647500D02*X85863Y648250D01*
X83613Y647500D02*X85113D01*
X82863Y651250D02*X83613Y650500D01*
X82863Y652750D02*Y651250D01*
Y652750D02*X83613Y653500D01*
X85113D01*
X85863Y652750D01*
Y651250D01*
X85113Y650500D02*X85863Y651250D01*
X87665Y647500D02*X90665Y650500D01*
Y652750D02*Y650500D01*
X89915Y653500D02*X90665Y652750D01*
X88415Y653500D02*X89915D01*
X87665Y652750D02*X88415Y653500D01*
X87665Y652750D02*Y651250D01*
X88415Y650500D01*
X90665D01*
X92466Y648250D02*X93216Y647500D01*
X92466Y652750D02*Y648250D01*
Y652750D02*X93216Y653500D01*
X94716D01*
X95466Y652750D01*
Y648250D01*
X94716Y647500D02*X95466Y648250D01*
X93216Y647500D02*X94716D01*
X92466Y649000D02*X95466Y652000D01*
X100718Y649750D02*Y647500D01*
Y649750D02*X101468Y650500D01*
X102218D01*
X102968Y649750D01*
Y647500D01*
Y649750D02*X103718Y650500D01*
X104468D01*
X105218Y649750D01*
Y647500D01*
X99968Y650500D02*X100718Y649750D01*
X107769D02*Y647500D01*
Y649750D02*X108519Y650500D01*
X109269D01*
X110019Y649750D01*
Y647500D01*
Y649750D02*X110769Y650500D01*
X111519D01*
X112269Y649750D01*
Y647500D01*
X107019Y650500D02*X107769Y649750D01*
X116771Y653500D02*X117521Y652750D01*
Y648250D01*
X116771Y647500D02*X117521Y648250D01*
X41000Y644249D02*X119322D01*
X182500Y313500D02*Y311900D01*
Y313500D02*X183886Y314300D01*
X182500Y313500D02*X181114Y314300D01*
X212500Y313500D02*Y311900D01*
Y313500D02*X213886Y314300D01*
X212500Y313500D02*X211114Y314300D01*
X148000Y141000D02*Y139400D01*
Y141000D02*X149386Y141800D01*
X148000Y141000D02*X146614Y141800D01*
X148000Y111000D02*Y109400D01*
Y111000D02*X149386Y111800D01*
X148000Y111000D02*X146614Y111800D01*
X129500Y280500D02*Y278900D01*
Y280500D02*X130886Y281300D01*
X129500Y280500D02*X128114Y281300D01*
X111000Y275500D02*Y273900D01*
Y275500D02*X112386Y276300D01*
X111000Y275500D02*X109614Y276300D01*
X122500Y256500D02*Y254900D01*
Y256500D02*X123886Y257300D01*
X122500Y256500D02*X121114Y257300D01*
X102500Y242000D02*Y240400D01*
Y242000D02*X103886Y242800D01*
X102500Y242000D02*X101114Y242800D01*
X178500Y179500D02*Y177900D01*
Y179500D02*X179886Y180300D01*
X178500Y179500D02*X177114Y180300D01*
X155000Y48500D02*Y46900D01*
Y48500D02*X156386Y49300D01*
X155000Y48500D02*X153614Y49300D01*
X150000Y42500D02*Y40900D01*
Y42500D02*X151386Y43300D01*
X150000Y42500D02*X148614Y43300D01*
X155000Y57500D02*Y55900D01*
Y57500D02*X156386Y58300D01*
X155000Y57500D02*X153614Y58300D01*
X150000Y62500D02*Y60900D01*
Y62500D02*X151386Y63300D01*
X150000Y62500D02*X148614Y63300D01*
X165500Y162000D02*Y160400D01*
Y162000D02*X166886Y162800D01*
X165500Y162000D02*X164114Y162800D01*
X155000Y72500D02*Y70900D01*
Y72500D02*X156386Y73300D01*
X155000Y72500D02*X153614Y73300D01*
X113500Y199500D02*Y197900D01*
Y199500D02*X114886Y200300D01*
X113500Y199500D02*X112114Y200300D01*
X53500Y172500D02*Y170900D01*
Y172500D02*X54886Y173300D01*
X53500Y172500D02*X52114Y173300D01*
X56500Y160500D02*Y158900D01*
Y160500D02*X57886Y161300D01*
X56500Y160500D02*X55114Y161300D01*
X74500Y172500D02*Y170900D01*
Y172500D02*X75886Y173300D01*
X74500Y172500D02*X73114Y173300D01*
X165000Y215500D02*Y213900D01*
Y215500D02*X166386Y216300D01*
X165000Y215500D02*X163614Y216300D01*
X178000Y210000D02*Y208400D01*
Y210000D02*X179386Y210800D01*
X178000Y210000D02*X176614Y210800D01*
X65500Y94000D02*Y92400D01*
Y94000D02*X66886Y94800D01*
X65500Y94000D02*X64114Y94800D01*
X60500Y90000D02*Y88400D01*
Y90000D02*X61886Y90800D01*
X60500Y90000D02*X59114Y90800D01*
X65500Y117000D02*Y115400D01*
Y117000D02*X66886Y117800D01*
X65500Y117000D02*X64114Y117800D01*
X65500Y85500D02*Y83900D01*
Y85500D02*X66886Y86300D01*
X65500Y85500D02*X64114Y86300D01*
X83500Y99000D02*Y97400D01*
Y99000D02*X84886Y99800D01*
X83500Y99000D02*X82114Y99800D01*
X192500Y167500D02*Y165900D01*
Y167500D02*X193886Y168300D01*
X192500Y167500D02*X191114Y168300D01*
X101500Y102000D02*Y100400D01*
Y102000D02*X102886Y102800D01*
X101500Y102000D02*X100114Y102800D01*
X203500Y178000D02*Y176400D01*
Y178000D02*X204886Y178800D01*
X203500Y178000D02*X202114Y178800D01*
X81000Y122000D02*Y120400D01*
Y122000D02*X82386Y122800D01*
X81000Y122000D02*X79614Y122800D01*
X86000Y122000D02*Y120400D01*
Y122000D02*X87386Y122800D01*
X86000Y122000D02*X84614Y122800D01*
X83500Y117000D02*Y115400D01*
Y117000D02*X84886Y117800D01*
X83500Y117000D02*X82114Y117800D01*
X56000Y81500D02*Y79900D01*
Y81500D02*X57386Y82300D01*
X56000Y81500D02*X54614Y82300D01*
X127500Y117000D02*Y115400D01*
Y117000D02*X128886Y117800D01*
X127500Y117000D02*X126114Y117800D01*
X189000Y154000D02*Y152400D01*
Y154000D02*X190386Y154800D01*
X189000Y154000D02*X187614Y154800D01*
X101500Y92000D02*Y90400D01*
Y92000D02*X102886Y92800D01*
X101500Y92000D02*X100114Y92800D01*
X94000Y82000D02*Y80400D01*
Y82000D02*X95386Y82800D01*
X94000Y82000D02*X92614Y82800D01*
X131500Y82000D02*Y80400D01*
Y82000D02*X132886Y82800D01*
X131500Y82000D02*X130114Y82800D01*
X104500Y114500D02*Y112900D01*
Y114500D02*X105886Y115300D01*
X104500Y114500D02*X103114Y115300D01*
X106500Y107500D02*Y105900D01*
Y107500D02*X107886Y108300D01*
X106500Y107500D02*X105114Y108300D01*
X101000Y42000D02*Y40400D01*
Y42000D02*X102386Y42800D01*
X101000Y42000D02*X99614Y42800D01*
X94000Y77000D02*Y75400D01*
Y77000D02*X95386Y77800D01*
X94000Y77000D02*X92614Y77800D01*
X126500Y76000D02*Y74400D01*
Y76000D02*X127886Y76800D01*
X126500Y76000D02*X125114Y76800D01*
X106500Y76000D02*Y74400D01*
Y76000D02*X107886Y76800D01*
X106500Y76000D02*X105114Y76800D01*
X121500Y62500D02*Y60900D01*
Y62500D02*X122886Y63300D01*
X121500Y62500D02*X120114Y63300D01*
X121500Y57500D02*Y55900D01*
Y57500D02*X122886Y58300D01*
X121500Y57500D02*X120114Y58300D01*
X121500Y42500D02*Y40900D01*
Y42500D02*X122886Y43300D01*
X121500Y42500D02*X120114Y43300D01*
X121500Y67500D02*Y65900D01*
Y67500D02*X122886Y68300D01*
X121500Y67500D02*X120114Y68300D01*
X132000Y76000D02*Y74400D01*
Y76000D02*X133386Y76800D01*
X132000Y76000D02*X130614Y76800D01*
X45000Y92000D02*Y90400D01*
Y92000D02*X46386Y92800D01*
X45000Y92000D02*X43614Y92800D01*
X45000Y87000D02*Y85400D01*
Y87000D02*X46386Y87800D01*
X45000Y87000D02*X43614Y87800D01*
X45000Y102000D02*Y100400D01*
Y102000D02*X46386Y102800D01*
X45000Y102000D02*X43614Y102800D01*
X64500Y102000D02*Y100400D01*
Y102000D02*X65886Y102800D01*
X64500Y102000D02*X63114Y102800D01*
X155000Y62500D02*Y60900D01*
Y62500D02*X156386Y63300D01*
X155000Y62500D02*X153614Y63300D01*
X81500Y296500D02*Y294900D01*
Y296500D02*X82886Y297300D01*
X81500Y296500D02*X80114Y297300D01*
X81500Y248000D02*Y246400D01*
Y248000D02*X82886Y248800D01*
X81500Y248000D02*X80114Y248800D01*
X167500Y262000D02*Y260400D01*
Y262000D02*X168886Y262800D01*
X167500Y262000D02*X166114Y262800D01*
X164500Y301500D02*Y299900D01*
Y301500D02*X165886Y302300D01*
X164500Y301500D02*X163114Y302300D01*
X167500Y269500D02*Y267900D01*
Y269500D02*X168886Y270300D01*
X167500Y269500D02*X166114Y270300D01*
X118000Y185500D02*Y183900D01*
Y185500D02*X119386Y186300D01*
X118000Y185500D02*X116614Y186300D01*
X123500Y178500D02*Y176900D01*
Y178500D02*X124886Y179300D01*
X123500Y178500D02*X122114Y179300D01*
X184000Y172500D02*Y170900D01*
Y172500D02*X185386Y173300D01*
X184000Y172500D02*X182614Y173300D01*
X165500Y189000D02*Y187400D01*
Y189000D02*X166886Y189800D01*
X165500Y189000D02*X164114Y189800D01*
X147500Y170500D02*Y168900D01*
Y170500D02*X148886Y171300D01*
X147500Y170500D02*X146114Y171300D01*
X147500Y194000D02*Y192400D01*
Y194000D02*X148886Y194800D01*
X147500Y194000D02*X146114Y194800D01*
X128000Y147000D02*Y145400D01*
Y147000D02*X129386Y147800D01*
X128000Y147000D02*X126614Y147800D01*
X143500Y147000D02*Y145400D01*
Y147000D02*X144886Y147800D01*
X143500Y147000D02*X142114Y147800D01*
X135500Y156000D02*Y154400D01*
Y156000D02*X136886Y156800D01*
X135500Y156000D02*X134114Y156800D01*
X123000Y186000D02*Y184400D01*
Y186000D02*X124386Y186800D01*
X123000Y186000D02*X121614Y186800D01*
X101000Y143000D02*Y141400D01*
Y143000D02*X102386Y143800D01*
X101000Y143000D02*X99614Y143800D01*
X106500Y143000D02*Y141400D01*
Y143000D02*X107886Y143800D01*
X106500Y143000D02*X105114Y143800D01*
X113500Y132500D02*Y130900D01*
Y132500D02*X114886Y133300D01*
X113500Y132500D02*X112114Y133300D01*
X93500Y132500D02*Y130900D01*
Y132500D02*X94886Y133300D01*
X93500Y132500D02*X92114Y133300D01*
X45000Y122000D02*Y120400D01*
Y122000D02*X46386Y122800D01*
X45000Y122000D02*X43614Y122800D01*
X142500Y107000D02*Y105400D01*
Y107000D02*X143886Y107800D01*
X142500Y107000D02*X141114Y107800D01*
X107000Y150000D02*Y148400D01*
Y150000D02*X108386Y150800D01*
X107000Y150000D02*X105614Y150800D01*
X143500Y189000D02*Y187400D01*
Y189000D02*X144886Y189800D01*
X143500Y189000D02*X142114Y189800D01*
X124000Y104000D02*Y102400D01*
Y104000D02*X125386Y104800D01*
X124000Y104000D02*X122614Y104800D01*
X99000Y148000D02*Y146400D01*
Y148000D02*X100386Y148800D01*
X99000Y148000D02*X97614Y148800D01*
X98500Y172500D02*Y170900D01*
Y172500D02*X99886Y173300D01*
X98500Y172500D02*X97114Y173300D01*
X75500Y160500D02*Y158900D01*
Y160500D02*X76886Y161300D01*
X75500Y160500D02*X74114Y161300D01*
X167500Y257000D02*Y255400D01*
Y257000D02*X168886Y257800D01*
X167500Y257000D02*X166114Y257800D01*
X150500Y235500D02*Y233900D01*
Y235500D02*X151886Y236300D01*
X150500Y235500D02*X149114Y236300D01*
X140500Y275500D02*Y273900D01*
Y275500D02*X141886Y276300D01*
X140500Y275500D02*X139114Y276300D01*
X140500Y280500D02*Y278900D01*
Y280500D02*X141886Y281300D01*
X140500Y280500D02*X139114Y281300D01*
X167500Y275500D02*Y273900D01*
Y275500D02*X168886Y276300D01*
X167500Y275500D02*X166114Y276300D01*
X121000Y232000D02*Y230400D01*
Y232000D02*X122386Y232800D01*
X121000Y232000D02*X119614Y232800D01*
X113000Y261000D02*Y259400D01*
Y261000D02*X114386Y261800D01*
X113000Y261000D02*X111614Y261800D01*
X189500Y215500D02*Y213900D01*
Y215500D02*X190886Y216300D01*
X189500Y215500D02*X188114Y216300D01*
X167500Y249500D02*Y247900D01*
Y249500D02*X168886Y250300D01*
X167500Y249500D02*X166114Y250300D01*
X126000Y265500D02*Y263900D01*
Y265500D02*X127386Y266300D01*
X126000Y265500D02*X124614Y266300D01*
X94500Y242000D02*Y240400D01*
Y242000D02*X95886Y242800D01*
X94500Y242000D02*X93114Y242800D01*
X171500Y232000D02*Y230400D01*
Y232000D02*X172886Y232800D01*
X171500Y232000D02*X170114Y232800D01*
X120000Y311500D02*Y309900D01*
Y311500D02*X121386Y312300D01*
X120000Y311500D02*X118614Y312300D01*
X164500Y311500D02*Y309900D01*
Y311500D02*X165886Y312300D01*
X164500Y311500D02*X163114Y312300D01*
X144500Y313500D02*Y311900D01*
Y313500D02*X145886Y314300D01*
X144500Y313500D02*X143114Y314300D01*
X164500Y306500D02*Y304900D01*
Y306500D02*X165886Y307300D01*
X164500Y306500D02*X163114Y307300D01*
X100000Y311500D02*Y309900D01*
Y311500D02*X101386Y312300D01*
X100000Y311500D02*X98614Y312300D01*
X105500Y325500D02*Y323900D01*
Y325500D02*X106886Y326300D01*
X105500Y325500D02*X104114Y326300D01*
X120000Y306500D02*Y304900D01*
Y306500D02*X121386Y307300D01*
X120000Y306500D02*X118614Y307300D01*
X184000Y306500D02*Y304900D01*
Y306500D02*X185386Y307300D01*
X184000Y306500D02*X182614Y307300D01*
X164000Y294500D02*Y292900D01*
Y294500D02*X165386Y295300D01*
X164000Y294500D02*X162614Y295300D01*
X118000Y195500D02*Y193900D01*
Y195500D02*X119386Y196300D01*
X118000Y195500D02*X116614Y196300D01*
X118000Y190500D02*Y188900D01*
Y190500D02*X119386Y191300D01*
X118000Y190500D02*X116614Y191300D01*
X138500Y185500D02*Y183900D01*
Y185500D02*X139886Y186300D01*
X138500Y185500D02*X137114Y186300D01*
X106500Y199500D02*Y197900D01*
Y199500D02*X107886Y200300D01*
X106500Y199500D02*X105114Y200300D01*
X111000Y280500D02*Y278900D01*
Y280500D02*X112386Y281300D01*
X111000Y280500D02*X109614Y281300D01*
X97500Y266000D02*Y264400D01*
Y266000D02*X98886Y266800D01*
X97500Y266000D02*X96114Y266800D01*
X69500Y142000D02*Y140400D01*
Y142000D02*X70886Y142800D01*
X69500Y142000D02*X68114Y142800D01*
X69500Y138000D02*Y136400D01*
Y138000D02*X70886Y138800D01*
X69500Y138000D02*X68114Y138800D01*
X97500Y227000D02*Y225400D01*
Y227000D02*X98886Y227800D01*
X97500Y227000D02*X96114Y227800D01*
X93500Y260000D02*Y258400D01*
Y260000D02*X94886Y260800D01*
X93500Y260000D02*X92114Y260800D01*
X74500Y177500D02*Y175900D01*
Y177500D02*X75886Y178300D01*
X74500Y177500D02*X73114Y178300D01*
X81500Y252000D02*Y250400D01*
Y252000D02*X82886Y252800D01*
X81500Y252000D02*X80114Y252800D01*
X82000Y230000D02*Y228400D01*
Y230000D02*X83386Y230800D01*
X82000Y230000D02*X80614Y230800D01*
X45500Y215500D02*Y213900D01*
Y215500D02*X46886Y216300D01*
X45500Y215500D02*X44114Y216300D01*
X45500Y211000D02*Y209400D01*
Y211000D02*X46886Y211800D01*
X45500Y211000D02*X44114Y211800D01*
X55000Y204500D02*Y202900D01*
Y204500D02*X56386Y205300D01*
X55000Y204500D02*X53614Y205300D01*
X62000Y204500D02*Y202900D01*
Y204500D02*X63386Y205300D01*
X62000Y204500D02*X60614Y205300D01*
X121000Y215500D02*Y213900D01*
Y215500D02*X122386Y216300D01*
X121000Y215500D02*X119614Y216300D01*
X99000Y210000D02*Y208400D01*
Y210000D02*X100386Y210800D01*
X99000Y210000D02*X97614Y210800D01*
X130500Y335500D02*Y333900D01*
Y335500D02*X131886Y336300D01*
X130500Y335500D02*X129114Y336300D01*
X148000Y87000D02*Y85400D01*
Y87000D02*X149386Y87800D01*
X148000Y87000D02*X146614Y87800D01*
X39500Y252500D02*Y250900D01*
Y252500D02*X40886Y253300D01*
X39500Y252500D02*X38114Y253300D01*
X46000Y252500D02*Y250900D01*
Y252500D02*X47386Y253300D01*
X46000Y252500D02*X44614Y253300D01*
X165500Y195000D02*Y193400D01*
Y195000D02*X166886Y195800D01*
X165500Y195000D02*X164114Y195800D01*
X184000Y160500D02*Y158900D01*
Y160500D02*X185386Y161300D01*
X184000Y160500D02*X182614Y161300D01*
X202000Y152500D02*Y150900D01*
Y152500D02*X203386Y153300D01*
X202000Y152500D02*X200614Y153300D01*
X85000Y266000D02*Y264400D01*
Y266000D02*X86386Y266800D01*
X85000Y266000D02*X83614Y266800D01*
X190500Y130000D02*Y128400D01*
Y130000D02*X191886Y130800D01*
X190500Y130000D02*X189114Y130800D01*
X190500Y240500D02*Y238900D01*
Y240500D02*X191886Y241300D01*
X190500Y240500D02*X189114Y241300D01*
X184000Y234500D02*Y232900D01*
Y234500D02*X185386Y235300D01*
X184000Y234500D02*X182614Y235300D01*
X81500Y290500D02*Y288900D01*
Y290500D02*X82886Y291300D01*
X81500Y290500D02*X80114Y291300D01*
X101500Y97000D02*Y95400D01*
Y97000D02*X102886Y97800D01*
X101500Y97000D02*X100114Y97800D01*
X83500Y107000D02*Y105400D01*
Y107000D02*X84886Y107800D01*
X83500Y107000D02*X82114Y107800D01*
X83500Y112000D02*Y110400D01*
Y112000D02*X84886Y112800D01*
X83500Y112000D02*X82114Y112800D01*
X138500Y180500D02*Y178900D01*
Y180500D02*X139886Y181300D01*
X138500Y180500D02*X137114Y181300D01*
X15000Y666250D02*Y664650D01*
Y666250D02*X16386Y667050D01*
X15000Y666250D02*X13614Y667050D01*
X195000Y668500D02*Y667750D01*
X196500Y666250D01*
X198000Y667750D01*
Y668500D02*Y667750D01*
X196500Y666250D02*Y662500D01*
X199801Y665500D02*X202051D01*
X199801Y662500D02*X202801D01*
X199801Y668500D02*Y662500D01*
Y668500D02*X202801D01*
X207603D02*X208353Y667750D01*
X205353Y668500D02*X207603D01*
X204603Y667750D02*X205353Y668500D01*
X204603Y667750D02*Y666250D01*
X205353Y665500D01*
X207603D01*
X208353Y664750D01*
Y663250D01*
X207603Y662500D02*X208353Y663250D01*
X205353Y662500D02*X207603D01*
X204603Y663250D02*X205353Y662500D01*
X195000Y659249D02*X210154D01*
X158750Y662500D02*X160250D01*
X159500Y668500D02*Y662500D01*
X158000Y667000D02*X159500Y668500D01*
X162051Y667750D02*X162801Y668500D01*
X164301D01*
X165051Y667750D01*
Y663250D01*
X164301Y662500D02*X165051Y663250D01*
X162801Y662500D02*X164301D01*
X162051Y663250D02*X162801Y662500D01*
Y665500D02*X165051D01*
X166853Y662500D02*X170603Y666250D01*
Y668500D02*Y666250D01*
X166853Y668500D02*X170603D01*
X158000Y659249D02*X172404D01*
X41000Y663250D02*X41750Y662500D01*
X41000Y667750D02*Y663250D01*
Y667750D02*X41750Y668500D01*
X43250D01*
X44000Y667750D01*
Y663250D01*
X43250Y662500D02*X44000Y663250D01*
X41750Y662500D02*X43250D01*
X41000Y664000D02*X44000Y667000D01*
X45801Y662500D02*X46551D01*
X48353Y663250D02*X49103Y662500D01*
X48353Y667750D02*Y663250D01*
Y667750D02*X49103Y668500D01*
X50603D01*
X51353Y667750D01*
Y663250D01*
X50603Y662500D02*X51353Y663250D01*
X49103Y662500D02*X50603D01*
X48353Y664000D02*X51353Y667000D01*
X53154Y667750D02*X53904Y668500D01*
X56154D01*
X56904Y667750D01*
Y666250D01*
X53154Y662500D02*X56904Y666250D01*
X53154Y662500D02*X56904D01*
X58706Y663250D02*X59456Y662500D01*
X58706Y667750D02*Y663250D01*
Y667750D02*X59456Y668500D01*
X60956D01*
X61706Y667750D01*
Y663250D01*
X60956Y662500D02*X61706Y663250D01*
X59456Y662500D02*X60956D01*
X58706Y664000D02*X61706Y667000D01*
X66207Y663250D02*X66957Y662500D01*
X66207Y667750D02*X66957Y668500D01*
X66207Y667750D02*Y663250D01*
X71459D02*X72209Y662500D01*
X71459Y667750D02*Y663250D01*
Y667750D02*X72209Y668500D01*
X73709D01*
X74459Y667750D01*
Y663250D01*
X73709Y662500D02*X74459Y663250D01*
X72209Y662500D02*X73709D01*
X71459Y664000D02*X74459Y667000D01*
X76260Y662500D02*X77010D01*
X78812Y668500D02*X81812D01*
X78812D02*Y665500D01*
X79562Y666250D01*
X81062D01*
X81812Y665500D01*
Y663250D01*
X81062Y662500D02*X81812Y663250D01*
X79562Y662500D02*X81062D01*
X78812Y663250D02*X79562Y662500D01*
X83613Y663250D02*X84363Y662500D01*
X83613Y667750D02*Y663250D01*
Y667750D02*X84363Y668500D01*
X85863D01*
X86613Y667750D01*
Y663250D01*
X85863Y662500D02*X86613Y663250D01*
X84363Y662500D02*X85863D01*
X83613Y664000D02*X86613Y667000D01*
X88415Y663250D02*X89165Y662500D01*
X88415Y664750D02*Y663250D01*
Y664750D02*X89165Y665500D01*
X90665D01*
X91415Y664750D01*
Y663250D01*
X90665Y662500D02*X91415Y663250D01*
X89165Y662500D02*X90665D01*
X88415Y666250D02*X89165Y665500D01*
X88415Y667750D02*Y666250D01*
Y667750D02*X89165Y668500D01*
X90665D01*
X91415Y667750D01*
Y666250D01*
X90665Y665500D02*X91415Y666250D01*
X93216Y663250D02*X93966Y662500D01*
X93216Y667750D02*Y663250D01*
Y667750D02*X93966Y668500D01*
X95466D01*
X96216Y667750D01*
Y663250D01*
X95466Y662500D02*X96216Y663250D01*
X93966Y662500D02*X95466D01*
X93216Y664000D02*X96216Y667000D01*
X101468Y664750D02*Y662500D01*
Y664750D02*X102218Y665500D01*
X102968D01*
X103718Y664750D01*
Y662500D01*
Y664750D02*X104468Y665500D01*
X105218D01*
X105968Y664750D01*
Y662500D01*
X100718Y665500D02*X101468Y664750D01*
X108519D02*Y662500D01*
Y664750D02*X109269Y665500D01*
X110019D01*
X110769Y664750D01*
Y662500D01*
Y664750D02*X111519Y665500D01*
X112269D01*
X113019Y664750D01*
Y662500D01*
X107769Y665500D02*X108519Y664750D01*
X117521Y668500D02*X118271Y667750D01*
Y663250D01*
X117521Y662500D02*X118271Y663250D01*
X41000Y659249D02*X120072D01*
X3000Y683500D02*X3750Y682750D01*
X750Y683500D02*X3000D01*
X0Y682750D02*X750Y683500D01*
X0Y682750D02*Y681250D01*
X750Y680500D01*
X3000D01*
X3750Y679750D01*
Y678250D01*
X3000Y677500D02*X3750Y678250D01*
X750Y677500D02*X3000D01*
X0Y678250D02*X750Y677500D01*
X5551Y680500D02*Y678250D01*
X6301Y677500D01*
X8551Y680500D02*Y676000D01*
X7801Y675250D02*X8551Y676000D01*
X6301Y675250D02*X7801D01*
X5551Y676000D02*X6301Y675250D01*
Y677500D02*X7801D01*
X8551Y678250D01*
X11103Y679750D02*Y677500D01*
Y679750D02*X11853Y680500D01*
X12603D01*
X13353Y679750D01*
Y677500D01*
Y679750D02*X14103Y680500D01*
X14853D01*
X15603Y679750D01*
Y677500D01*
X10353Y680500D02*X11103Y679750D01*
X17404Y683500D02*Y677500D01*
Y678250D02*X18154Y677500D01*
X19654D01*
X20404Y678250D01*
Y679750D02*Y678250D01*
X19654Y680500D02*X20404Y679750D01*
X18154Y680500D02*X19654D01*
X17404Y679750D02*X18154Y680500D01*
X22206Y679750D02*Y678250D01*
Y679750D02*X22956Y680500D01*
X24456D01*
X25206Y679750D01*
Y678250D01*
X24456Y677500D02*X25206Y678250D01*
X22956Y677500D02*X24456D01*
X22206Y678250D02*X22956Y677500D01*
X27007Y683500D02*Y678250D01*
X27757Y677500D01*
X41750Y683500D02*Y677500D01*
X44000Y683500D02*X44750Y682750D01*
Y678250D01*
X44000Y677500D02*X44750Y678250D01*
X41000Y677500D02*X44000D01*
X41000Y683500D02*X44000D01*
X46551Y682000D02*Y681250D01*
Y679750D02*Y677500D01*
X50303Y680500D02*X51053Y679750D01*
X48803Y680500D02*X50303D01*
X48053Y679750D02*X48803Y680500D01*
X48053Y679750D02*Y678250D01*
X48803Y677500D01*
X51053Y680500D02*Y678250D01*
X51803Y677500D01*
X48803D02*X50303D01*
X51053Y678250D01*
X54354Y679750D02*Y677500D01*
Y679750D02*X55104Y680500D01*
X55854D01*
X56604Y679750D01*
Y677500D01*
Y679750D02*X57354Y680500D01*
X58104D01*
X58854Y679750D01*
Y677500D01*
X53604Y680500D02*X54354Y679750D01*
X60656Y677500D02*X61406D01*
X65907Y683500D02*X67407D01*
X66657D02*Y677500D01*
X65907D02*X67407D01*
X69959Y679750D02*Y677500D01*
Y679750D02*X70709Y680500D01*
X71459D01*
X72209Y679750D01*
Y677500D01*
X69209Y680500D02*X69959Y679750D01*
X74760Y680500D02*X77010D01*
X74010Y679750D02*X74760Y680500D01*
X74010Y679750D02*Y678250D01*
X74760Y677500D01*
X77010D01*
X78812Y683500D02*Y677500D01*
Y679750D02*X79562Y680500D01*
X81062D01*
X81812Y679750D01*
Y677500D01*
X86313Y678250D02*X87063Y677500D01*
X86313Y682750D02*X87063Y683500D01*
X86313Y682750D02*Y678250D01*
X89615Y679750D02*Y677500D01*
Y679750D02*X90365Y680500D01*
X91115D01*
X91865Y679750D01*
Y677500D01*
Y679750D02*X92615Y680500D01*
X93365D01*
X94115Y679750D01*
Y677500D01*
X88865Y680500D02*X89615Y679750D01*
X96666D02*Y677500D01*
Y679750D02*X97416Y680500D01*
X98166D01*
X98916Y679750D01*
Y677500D01*
Y679750D02*X99666Y680500D01*
X100416D01*
X101166Y679750D01*
Y677500D01*
X95916Y680500D02*X96666Y679750D01*
X102968Y683500D02*X103718Y682750D01*
Y678250D01*
X102968Y677500D02*X103718Y678250D01*
X155750Y677500D02*X158000D01*
X155000Y678250D02*X155750Y677500D01*
X155000Y682750D02*Y678250D01*
Y682750D02*X155750Y683500D01*
X158000D01*
X159801Y679750D02*Y678250D01*
Y679750D02*X160551Y680500D01*
X162051D01*
X162801Y679750D01*
Y678250D01*
X162051Y677500D02*X162801Y678250D01*
X160551Y677500D02*X162051D01*
X159801Y678250D02*X160551Y677500D01*
X164603Y680500D02*Y678250D01*
X165353Y677500D01*
X166853D01*
X167603Y678250D01*
Y680500D02*Y678250D01*
X170154Y679750D02*Y677500D01*
Y679750D02*X170904Y680500D01*
X171654D01*
X172404Y679750D01*
Y677500D01*
X169404Y680500D02*X170154Y679750D01*
X174956Y683500D02*Y678250D01*
X175706Y677500D01*
X174206Y681250D02*X175706D01*
X190750Y683500D02*Y677500D01*
X190000Y683500D02*X193000D01*
X193750Y682750D01*
Y681250D01*
X193000Y680500D02*X193750Y681250D01*
X190750Y680500D02*X193000D01*
X195551Y683500D02*Y678250D01*
X196301Y677500D01*
X200053Y680500D02*X200803Y679750D01*
X198553Y680500D02*X200053D01*
X197803Y679750D02*X198553Y680500D01*
X197803Y679750D02*Y678250D01*
X198553Y677500D01*
X200803Y680500D02*Y678250D01*
X201553Y677500D01*
X198553D02*X200053D01*
X200803Y678250D01*
X204104Y683500D02*Y678250D01*
X204854Y677500D01*
X203354Y681250D02*X204854D01*
X207106Y677500D02*X209356D01*
X206356Y678250D02*X207106Y677500D01*
X206356Y679750D02*Y678250D01*
Y679750D02*X207106Y680500D01*
X208606D01*
X209356Y679750D01*
X206356Y679000D02*X209356D01*
Y679750D02*Y679000D01*
X214157Y683500D02*Y677500D01*
X213407D02*X214157Y678250D01*
X211907Y677500D02*X213407D01*
X211157Y678250D02*X211907Y677500D01*
X211157Y679750D02*Y678250D01*
Y679750D02*X211907Y680500D01*
X213407D01*
X214157Y679750D01*
X217459Y680500D02*Y679750D01*
Y678250D02*Y677500D01*
X215959Y682750D02*Y682000D01*
Y682750D02*X216709Y683500D01*
X218209D01*
X218959Y682750D01*
Y682000D01*
X217459Y680500D02*X218959Y682000D01*
X0Y698500D02*X3000D01*
X1500D02*Y692500D01*
X4801Y698500D02*Y692500D01*
Y694750D02*X5551Y695500D01*
X7051D01*
X7801Y694750D01*
Y692500D01*
X10353D02*X12603D01*
X9603Y693250D02*X10353Y692500D01*
X9603Y694750D02*Y693250D01*
Y694750D02*X10353Y695500D01*
X11853D01*
X12603Y694750D01*
X9603Y694000D02*X12603D01*
Y694750D02*Y694000D01*
X15154Y694750D02*Y692500D01*
Y694750D02*X15904Y695500D01*
X17404D01*
X14404D02*X15154Y694750D01*
X19956Y692500D02*X22206D01*
X19206Y693250D02*X19956Y692500D01*
X19206Y694750D02*Y693250D01*
Y694750D02*X19956Y695500D01*
X21456D01*
X22206Y694750D01*
X19206Y694000D02*X22206D01*
Y694750D02*Y694000D01*
X28957Y695500D02*X29707Y694750D01*
X27457Y695500D02*X28957D01*
X26707Y694750D02*X27457Y695500D01*
X26707Y694750D02*Y693250D01*
X27457Y692500D01*
X29707Y695500D02*Y693250D01*
X30457Y692500D01*
X27457D02*X28957D01*
X29707Y693250D01*
X33009Y694750D02*Y692500D01*
Y694750D02*X33759Y695500D01*
X35259D01*
X32259D02*X33009Y694750D01*
X37810Y692500D02*X40060D01*
X37060Y693250D02*X37810Y692500D01*
X37060Y694750D02*Y693250D01*
Y694750D02*X37810Y695500D01*
X39310D01*
X40060Y694750D01*
X37060Y694000D02*X40060D01*
Y694750D02*Y694000D01*
X44562Y693250D02*X45312Y692500D01*
X44562Y694750D02*Y693250D01*
Y694750D02*X45312Y695500D01*
X46812D01*
X47562Y694750D01*
Y693250D01*
X46812Y692500D02*X47562Y693250D01*
X45312Y692500D02*X46812D01*
X44562Y696250D02*X45312Y695500D01*
X44562Y697750D02*Y696250D01*
Y697750D02*X45312Y698500D01*
X46812D01*
X47562Y697750D01*
Y696250D01*
X46812Y695500D02*X47562Y696250D01*
X55063Y698500D02*Y692500D01*
X54313D02*X55063Y693250D01*
X52813Y692500D02*X54313D01*
X52063Y693250D02*X52813Y692500D01*
X52063Y694750D02*Y693250D01*
Y694750D02*X52813Y695500D01*
X54313D01*
X55063Y694750D01*
X56865Y697000D02*Y696250D01*
Y694750D02*Y692500D01*
X59116Y697750D02*Y692500D01*
Y697750D02*X59866Y698500D01*
X60616D01*
X58366Y695500D02*X59866D01*
X62868Y697750D02*Y692500D01*
Y697750D02*X63618Y698500D01*
X64368D01*
X62118Y695500D02*X63618D01*
X66619Y692500D02*X68869D01*
X65869Y693250D02*X66619Y692500D01*
X65869Y694750D02*Y693250D01*
Y694750D02*X66619Y695500D01*
X68119D01*
X68869Y694750D01*
X65869Y694000D02*X68869D01*
Y694750D02*Y694000D01*
X71421Y694750D02*Y692500D01*
Y694750D02*X72171Y695500D01*
X73671D01*
X70671D02*X71421Y694750D01*
X76222Y692500D02*X78472D01*
X75472Y693250D02*X76222Y692500D01*
X75472Y694750D02*Y693250D01*
Y694750D02*X76222Y695500D01*
X77722D01*
X78472Y694750D01*
X75472Y694000D02*X78472D01*
Y694750D02*Y694000D01*
X81024Y694750D02*Y692500D01*
Y694750D02*X81774Y695500D01*
X82524D01*
X83274Y694750D01*
Y692500D01*
X80274Y695500D02*X81024Y694750D01*
X85825Y698500D02*Y693250D01*
X86575Y692500D01*
X85075Y696250D02*X86575D01*
X93777Y698500D02*Y692500D01*
X93027D02*X93777Y693250D01*
X91527Y692500D02*X93027D01*
X90777Y693250D02*X91527Y692500D01*
X90777Y694750D02*Y693250D01*
Y694750D02*X91527Y695500D01*
X93027D01*
X93777Y694750D01*
X96328D02*Y692500D01*
Y694750D02*X97078Y695500D01*
X98578D01*
X95578D02*X96328Y694750D01*
X100380Y697000D02*Y696250D01*
Y694750D02*Y692500D01*
X101881Y698500D02*Y693250D01*
X102631Y692500D01*
X104133Y698500D02*Y693250D01*
X104883Y692500D01*
X109834D02*X112084D01*
X112834Y693250D01*
X112084Y694000D02*X112834Y693250D01*
X109834Y694000D02*X112084D01*
X109084Y694750D02*X109834Y694000D01*
X109084Y694750D02*X109834Y695500D01*
X112084D01*
X112834Y694750D01*
X109084Y693250D02*X109834Y692500D01*
X114636Y697000D02*Y696250D01*
Y694750D02*Y692500D01*
X116137Y695500D02*X119137D01*
X116137Y692500D02*X119137Y695500D01*
X116137Y692500D02*X119137D01*
X121689D02*X123939D01*
X120939Y693250D02*X121689Y692500D01*
X120939Y694750D02*Y693250D01*
Y694750D02*X121689Y695500D01*
X123189D01*
X123939Y694750D01*
X120939Y694000D02*X123939D01*
Y694750D02*Y694000D01*
X126490Y692500D02*X128740D01*
X129490Y693250D01*
X128740Y694000D02*X129490Y693250D01*
X126490Y694000D02*X128740D01*
X125740Y694750D02*X126490Y694000D01*
X125740Y694750D02*X126490Y695500D01*
X128740D01*
X129490Y694750D01*
X125740Y693250D02*X126490Y692500D01*
X133992Y695500D02*Y693250D01*
X134742Y692500D01*
X136242D01*
X136992Y693250D01*
Y695500D02*Y693250D01*
X139543Y692500D02*X141793D01*
X142543Y693250D01*
X141793Y694000D02*X142543Y693250D01*
X139543Y694000D02*X141793D01*
X138793Y694750D02*X139543Y694000D01*
X138793Y694750D02*X139543Y695500D01*
X141793D01*
X142543Y694750D01*
X138793Y693250D02*X139543Y692500D01*
X145095D02*X147345D01*
X144345Y693250D02*X145095Y692500D01*
X144345Y694750D02*Y693250D01*
Y694750D02*X145095Y695500D01*
X146595D01*
X147345Y694750D01*
X144345Y694000D02*X147345D01*
Y694750D02*Y694000D01*
X152146Y698500D02*Y692500D01*
X151396D02*X152146Y693250D01*
X149896Y692500D02*X151396D01*
X149146Y693250D02*X149896Y692500D01*
X149146Y694750D02*Y693250D01*
Y694750D02*X149896Y695500D01*
X151396D01*
X152146Y694750D01*
X156648Y697000D02*Y696250D01*
Y694750D02*Y692500D01*
X158899Y694750D02*Y692500D01*
Y694750D02*X159649Y695500D01*
X160399D01*
X161149Y694750D01*
Y692500D01*
X158149Y695500D02*X158899Y694750D01*
X166401Y698500D02*Y693250D01*
X167151Y692500D01*
X165651Y696250D02*X167151D01*
X168652Y698500D02*Y692500D01*
Y694750D02*X169402Y695500D01*
X170902D01*
X171652Y694750D01*
Y692500D01*
X173454Y697000D02*Y696250D01*
Y694750D02*Y692500D01*
X175705D02*X177955D01*
X178705Y693250D01*
X177955Y694000D02*X178705Y693250D01*
X175705Y694000D02*X177955D01*
X174955Y694750D02*X175705Y694000D01*
X174955Y694750D02*X175705Y695500D01*
X177955D01*
X178705Y694750D01*
X174955Y693250D02*X175705Y692500D01*
X183207Y698500D02*Y693250D01*
X183957Y692500D01*
X187708Y695500D02*X188458Y694750D01*
X186208Y695500D02*X187708D01*
X185458Y694750D02*X186208Y695500D01*
X185458Y694750D02*Y693250D01*
X186208Y692500D01*
X188458Y695500D02*Y693250D01*
X189208Y692500D01*
X186208D02*X187708D01*
X188458Y693250D01*
X191010Y695500D02*Y693250D01*
X191760Y692500D01*
X194010Y695500D02*Y691000D01*
X193260Y690250D02*X194010Y691000D01*
X191760Y690250D02*X193260D01*
X191010Y691000D02*X191760Y690250D01*
Y692500D02*X193260D01*
X194010Y693250D01*
X195811Y694750D02*Y693250D01*
Y694750D02*X196561Y695500D01*
X198061D01*
X198811Y694750D01*
Y693250D01*
X198061Y692500D02*X198811Y693250D01*
X196561Y692500D02*X198061D01*
X195811Y693250D02*X196561Y692500D01*
X200613Y695500D02*Y693250D01*
X201363Y692500D01*
X202863D01*
X203613Y693250D01*
Y695500D02*Y693250D01*
X206164Y698500D02*Y693250D01*
X206914Y692500D01*
X205414Y696250D02*X206914D01*
X208416Y691000D02*X209916Y692500D01*
X215167D02*X216667D01*
X215917Y698500D02*Y692500D01*
X214417Y697000D02*X215917Y698500D01*
X218469Y692500D02*X222219Y696250D01*
Y698500D02*Y696250D01*
X218469Y698500D02*X222219D01*
X224770Y692500D02*X226270D01*
X225520Y698500D02*Y692500D01*
X224020Y697000D02*X225520Y698500D01*
X230772D02*Y692500D01*
Y694750D02*X231522Y695500D01*
X233022D01*
X233772Y694750D01*
Y692500D01*
X235573Y694750D02*Y693250D01*
Y694750D02*X236323Y695500D01*
X237823D01*
X238573Y694750D01*
Y693250D01*
X237823Y692500D02*X238573Y693250D01*
X236323Y692500D02*X237823D01*
X235573Y693250D02*X236323Y692500D01*
X240375Y698500D02*Y693250D01*
X241125Y692500D01*
X243376D02*X245626D01*
X242626Y693250D02*X243376Y692500D01*
X242626Y694750D02*Y693250D01*
Y694750D02*X243376Y695500D01*
X244876D01*
X245626Y694750D01*
X242626Y694000D02*X245626D01*
Y694750D02*Y694000D01*
X248178Y692500D02*X250428D01*
X251178Y693250D01*
X250428Y694000D02*X251178Y693250D01*
X248178Y694000D02*X250428D01*
X247428Y694750D02*X248178Y694000D01*
X247428Y694750D02*X248178Y695500D01*
X250428D01*
X251178Y694750D01*
X247428Y693250D02*X248178Y692500D01*
X256429Y698500D02*Y693250D01*
X257179Y692500D01*
X255679Y696250D02*X257179D01*
X258681Y694750D02*Y693250D01*
Y694750D02*X259431Y695500D01*
X260931D01*
X261681Y694750D01*
Y693250D01*
X260931Y692500D02*X261681Y693250D01*
X259431Y692500D02*X260931D01*
X258681Y693250D02*X259431Y692500D01*
X264232Y698500D02*Y693250D01*
X264982Y692500D01*
X263482Y696250D02*X264982D01*
X268734Y695500D02*X269484Y694750D01*
X267234Y695500D02*X268734D01*
X266484Y694750D02*X267234Y695500D01*
X266484Y694750D02*Y693250D01*
X267234Y692500D01*
X269484Y695500D02*Y693250D01*
X270234Y692500D01*
X267234D02*X268734D01*
X269484Y693250D01*
X272035Y698500D02*Y693250D01*
X272785Y692500D01*
G54D14*X263000Y134500D02*Y42500D01*
X48000Y26000D02*X246500D01*
X48000Y360000D02*X205000D01*
X31500Y343500D02*Y42500D01*
X246500Y26000D02*G75*G03X263000Y42500I0J16500D01*G01*
X31500D02*G75*G03X48000Y26000I16500J0D01*G01*
X31500Y343500D02*G75*G02X48000Y360000I16500J0D01*G01*
G54D36*X40870Y5248D02*X257800D01*
G54D14*X294862Y352650D02*Y37689D01*
G54D38*X123500Y18460D02*X128580D01*
X123500D02*Y13380D01*
X124770Y14650D01*
X127310D01*
X128580Y13380D01*
Y9570D01*
X127310Y8300D02*X128580Y9570D01*
X124770Y8300D02*X127310D01*
X123500Y9570D02*X124770Y8300D01*
X131630Y18460D02*X136710D01*
X131630D02*Y13380D01*
X132900Y14650D01*
X135440D01*
X136710Y13380D01*
Y9570D01*
X135440Y8300D02*X136710Y9570D01*
X132900Y8300D02*X135440D01*
X131630Y9570D02*X132900Y8300D01*
X141031Y12110D02*Y8300D01*
Y12110D02*X142301Y13380D01*
X143571D01*
X144841Y12110D01*
Y8300D01*
Y12110D02*X146111Y13380D01*
X147381D01*
X148651Y12110D01*
Y8300D01*
X139761Y13380D02*X141031Y12110D01*
X152971D02*Y8300D01*
Y12110D02*X154241Y13380D01*
X155511D01*
X156781Y12110D01*
Y8300D01*
Y12110D02*X158051Y13380D01*
X159321D01*
X160591Y12110D01*
Y8300D01*
X151701Y13380D02*X152971Y12110D01*
X288651Y158130D02*X289921Y159400D01*
X286111Y158130D02*X288651D01*
X286111D02*X284841Y159400D01*
Y161940D02*Y159400D01*
Y161940D02*X286111Y163210D01*
X288651D01*
X289921Y161940D02*X288651Y163210D01*
X289921Y161940D02*Y159400D01*
X283571Y158130D02*X284841Y159400D01*
X281031Y158130D02*X283571D01*
X281031D02*X279761Y159400D01*
Y161940D02*Y159400D01*
Y161940D02*X281031Y163210D01*
X283571D01*
X284841Y161940D02*X283571Y163210D01*
X288651Y166260D02*X289921Y167530D01*
X281031Y166260D02*X288651D01*
X281031D02*X279761Y167530D01*
Y170070D02*Y167530D01*
Y170070D02*X281031Y171340D01*
X288651D01*
X289921Y170070D02*X288651Y171340D01*
X289921Y170070D02*Y167530D01*
X287381Y166260D02*X282301Y171340D01*
X286111Y175661D02*X289921D01*
X286111D02*X284841Y176931D01*
Y178201D02*Y176931D01*
Y178201D02*X286111Y179471D01*
X289921D01*
X286111D02*X284841Y180741D01*
Y182011D02*Y180741D01*
Y182011D02*X286111Y183281D01*
X289921D01*
X284841Y174391D02*X286111Y175661D01*
Y187601D02*X289921D01*
X286111D02*X284841Y188871D01*
Y190141D02*Y188871D01*
Y190141D02*X286111Y191411D01*
X289921D01*
X286111D02*X284841Y192681D01*
Y193951D02*Y192681D01*
Y193951D02*X286111Y195221D01*
X289921D01*
X284841Y186331D02*X286111Y187601D01*
G54D36*X260000Y563500D02*Y557500D01*
Y563500D02*X262250Y561250D01*
X264500Y563500D01*
Y557500D01*
X268551Y560500D02*X269301Y559750D01*
X267051Y560500D02*X268551D01*
X266301Y559750D02*X267051Y560500D01*
X266301Y559750D02*Y558250D01*
X267051Y557500D01*
X269301Y560500D02*Y558250D01*
X270051Y557500D01*
X267051D02*X268551D01*
X269301Y558250D01*
X271853Y560500D02*X274853Y557500D01*
X271853D02*X274853Y560500D01*
X276654Y562000D02*Y561250D01*
Y559750D02*Y557500D01*
X278906Y559750D02*Y557500D01*
Y559750D02*X279656Y560500D01*
X280406D01*
X281156Y559750D01*
Y557500D01*
Y559750D02*X281906Y560500D01*
X282656D01*
X283406Y559750D01*
Y557500D01*
X278156Y560500D02*X278906Y559750D01*
X285207Y560500D02*Y558250D01*
X285957Y557500D01*
X287457D01*
X288207Y558250D01*
Y560500D02*Y558250D01*
X290759Y559750D02*Y557500D01*
Y559750D02*X291509Y560500D01*
X292259D01*
X293009Y559750D01*
Y557500D01*
Y559750D02*X293759Y560500D01*
X294509D01*
X295259Y559750D01*
Y557500D01*
X290009Y560500D02*X290759Y559750D01*
X300510Y563500D02*Y557500D01*
X302760Y563500D02*X303510Y562750D01*
Y558250D01*
X302760Y557500D02*X303510Y558250D01*
X299760Y557500D02*X302760D01*
X299760Y563500D02*X302760D01*
X305312Y562000D02*Y561250D01*
Y559750D02*Y557500D01*
X307563Y559750D02*Y557500D01*
Y559750D02*X308313Y560500D01*
X309063D01*
X309813Y559750D01*
Y557500D01*
Y559750D02*X310563Y560500D01*
X311313D01*
X312063Y559750D01*
Y557500D01*
X306813Y560500D02*X307563Y559750D01*
X314615Y557500D02*X316865D01*
X313865Y558250D02*X314615Y557500D01*
X313865Y559750D02*Y558250D01*
Y559750D02*X314615Y560500D01*
X316115D01*
X316865Y559750D01*
X313865Y559000D02*X316865D01*
Y559750D02*Y559000D01*
X319416Y559750D02*Y557500D01*
Y559750D02*X320166Y560500D01*
X320916D01*
X321666Y559750D01*
Y557500D01*
X318666Y560500D02*X319416Y559750D01*
X324218Y557500D02*X326468D01*
X327218Y558250D01*
X326468Y559000D02*X327218Y558250D01*
X324218Y559000D02*X326468D01*
X323468Y559750D02*X324218Y559000D01*
X323468Y559750D02*X324218Y560500D01*
X326468D01*
X327218Y559750D01*
X323468Y558250D02*X324218Y557500D01*
X329019Y562000D02*Y561250D01*
Y559750D02*Y557500D01*
X330521Y559750D02*Y558250D01*
Y559750D02*X331271Y560500D01*
X332771D01*
X333521Y559750D01*
Y558250D01*
X332771Y557500D02*X333521Y558250D01*
X331271Y557500D02*X332771D01*
X330521Y558250D02*X331271Y557500D01*
X336072Y559750D02*Y557500D01*
Y559750D02*X336822Y560500D01*
X337572D01*
X338322Y559750D01*
Y557500D01*
X335322Y560500D02*X336072Y559750D01*
X340874Y557500D02*X343124D01*
X343874Y558250D01*
X343124Y559000D02*X343874Y558250D01*
X340874Y559000D02*X343124D01*
X340124Y559750D02*X340874Y559000D01*
X340124Y559750D02*X340874Y560500D01*
X343124D01*
X343874Y559750D01*
X340124Y558250D02*X340874Y557500D01*
X345675Y561250D02*X346425D01*
X345675Y559750D02*X346425D01*
X350927Y562750D02*X351677Y563500D01*
X353927D01*
X354677Y562750D01*
Y561250D01*
X350927Y557500D02*X354677Y561250D01*
X350927Y557500D02*X354677D01*
X356478Y562750D02*X357228Y563500D01*
X358728D01*
X359478Y562750D01*
Y558250D01*
X358728Y557500D02*X359478Y558250D01*
X357228Y557500D02*X358728D01*
X356478Y558250D02*X357228Y557500D01*
Y560500D02*X359478D01*
X362030Y557500D02*X363530D01*
X362780Y563500D02*Y557500D01*
X361280Y562000D02*X362780Y563500D01*
X365331D02*X368331D01*
X365331D02*Y560500D01*
X366081Y561250D01*
X367581D01*
X368331Y560500D01*
Y558250D01*
X367581Y557500D02*X368331Y558250D01*
X366081Y557500D02*X367581D01*
X365331Y558250D02*X366081Y557500D01*
X373583Y559750D02*Y557500D01*
Y559750D02*X374333Y560500D01*
X375083D01*
X375833Y559750D01*
Y557500D01*
Y559750D02*X376583Y560500D01*
X377333D01*
X378083Y559750D01*
Y557500D01*
X372833Y560500D02*X373583Y559750D01*
X379884Y562000D02*Y561250D01*
Y559750D02*Y557500D01*
X381386Y563500D02*Y558250D01*
X382136Y557500D01*
X384387D02*X386637D01*
X387387Y558250D01*
X386637Y559000D02*X387387Y558250D01*
X384387Y559000D02*X386637D01*
X383637Y559750D02*X384387Y559000D01*
X383637Y559750D02*X384387Y560500D01*
X386637D01*
X387387Y559750D01*
X383637Y558250D02*X384387Y557500D01*
X391889Y558250D02*X392639Y557500D01*
X391889Y562750D02*X392639Y563500D01*
X391889Y562750D02*Y558250D01*
X397140Y563500D02*X400140D01*
X397140D02*Y560500D01*
X397890Y561250D01*
X399390D01*
X400140Y560500D01*
Y558250D01*
X399390Y557500D02*X400140Y558250D01*
X397890Y557500D02*X399390D01*
X397140Y558250D02*X397890Y557500D01*
X401942Y558250D02*X402692Y557500D01*
X401942Y559750D02*Y558250D01*
Y559750D02*X402692Y560500D01*
X404192D01*
X404942Y559750D01*
Y558250D01*
X404192Y557500D02*X404942Y558250D01*
X402692Y557500D02*X404192D01*
X401942Y561250D02*X402692Y560500D01*
X401942Y562750D02*Y561250D01*
Y562750D02*X402692Y563500D01*
X404192D01*
X404942Y562750D01*
Y561250D01*
X404192Y560500D02*X404942Y561250D01*
X406743Y557500D02*X407493D01*
X409295Y558250D02*X410045Y557500D01*
X409295Y559750D02*Y558250D01*
Y559750D02*X410045Y560500D01*
X411545D01*
X412295Y559750D01*
Y558250D01*
X411545Y557500D02*X412295Y558250D01*
X410045Y557500D02*X411545D01*
X409295Y561250D02*X410045Y560500D01*
X409295Y562750D02*Y561250D01*
Y562750D02*X410045Y563500D01*
X411545D01*
X412295Y562750D01*
Y561250D01*
X411545Y560500D02*X412295Y561250D01*
X414096Y558250D02*X414846Y557500D01*
X414096Y562750D02*Y558250D01*
Y562750D02*X414846Y563500D01*
X416346D01*
X417096Y562750D01*
Y558250D01*
X416346Y557500D02*X417096Y558250D01*
X414846Y557500D02*X416346D01*
X414096Y559000D02*X417096Y562000D01*
X419648Y557500D02*X421148D01*
X420398Y563500D02*Y557500D01*
X418898Y562000D02*X420398Y563500D01*
X426399Y559750D02*Y557500D01*
Y559750D02*X427149Y560500D01*
X427899D01*
X428649Y559750D01*
Y557500D01*
Y559750D02*X429399Y560500D01*
X430149D01*
X430899Y559750D01*
Y557500D01*
X425649Y560500D02*X426399Y559750D01*
X433451D02*Y557500D01*
Y559750D02*X434201Y560500D01*
X434951D01*
X435701Y559750D01*
Y557500D01*
Y559750D02*X436451Y560500D01*
X437201D01*
X437951Y559750D01*
Y557500D01*
X432701Y560500D02*X433451Y559750D01*
X442452Y563500D02*X443202Y562750D01*
Y558250D01*
X442452Y557500D02*X443202Y558250D01*
X447704Y560500D02*Y558250D01*
X448454Y557500D01*
X449204D01*
X449954Y558250D01*
Y560500D02*Y558250D01*
X450704Y557500D01*
X451454D01*
X452204Y558250D01*
Y560500D02*Y558250D01*
X454005Y562000D02*Y561250D01*
Y559750D02*Y557500D01*
X458507Y563500D02*Y557500D01*
X457757D02*X458507Y558250D01*
X456257Y557500D02*X457757D01*
X455507Y558250D02*X456257Y557500D01*
X455507Y559750D02*Y558250D01*
Y559750D02*X456257Y560500D01*
X457757D01*
X458507Y559750D01*
X461058Y557500D02*X463308D01*
X460308Y558250D02*X461058Y557500D01*
X460308Y559750D02*Y558250D01*
Y559750D02*X461058Y560500D01*
X462558D01*
X463308Y559750D01*
X460308Y559000D02*X463308D01*
Y559750D02*Y559000D01*
X465110Y556000D02*X466610Y557500D01*
X471111Y562750D02*X471861Y563500D01*
X473361D01*
X474111Y562750D01*
Y558250D01*
X473361Y557500D02*X474111Y558250D01*
X471861Y557500D02*X473361D01*
X471111Y558250D02*X471861Y557500D01*
Y560500D02*X474111D01*
X475913Y562750D02*X476663Y563500D01*
X478163D01*
X478913Y562750D01*
Y558250D01*
X478163Y557500D02*X478913Y558250D01*
X476663Y557500D02*X478163D01*
X475913Y558250D02*X476663Y557500D01*
Y560500D02*X478913D01*
X480714D02*X483714Y563500D01*
X480714Y560500D02*X484464D01*
X483714Y563500D02*Y557500D01*
X486266Y558250D02*X487016Y557500D01*
X486266Y562750D02*Y558250D01*
Y562750D02*X487016Y563500D01*
X488516D01*
X489266Y562750D01*
Y558250D01*
X488516Y557500D02*X489266Y558250D01*
X487016Y557500D02*X488516D01*
X486266Y559000D02*X489266Y562000D01*
X494517Y559750D02*Y557500D01*
Y559750D02*X495267Y560500D01*
X496017D01*
X496767Y559750D01*
Y557500D01*
Y559750D02*X497517Y560500D01*
X498267D01*
X499017Y559750D01*
Y557500D01*
X493767Y560500D02*X494517Y559750D01*
X500819Y562000D02*Y561250D01*
Y559750D02*Y557500D01*
X502320Y563500D02*Y558250D01*
X503070Y557500D01*
X505322D02*X507572D01*
X508322Y558250D01*
X507572Y559000D02*X508322Y558250D01*
X505322Y559000D02*X507572D01*
X504572Y559750D02*X505322Y559000D01*
X504572Y559750D02*X505322Y560500D01*
X507572D01*
X508322Y559750D01*
X504572Y558250D02*X505322Y557500D01*
X512823Y558250D02*X513573Y557500D01*
X512823Y562750D02*X513573Y563500D01*
X512823Y562750D02*Y558250D01*
X518075D02*X518825Y557500D01*
X518075Y559750D02*Y558250D01*
Y559750D02*X518825Y560500D01*
X520325D01*
X521075Y559750D01*
Y558250D01*
X520325Y557500D02*X521075Y558250D01*
X518825Y557500D02*X520325D01*
X518075Y561250D02*X518825Y560500D01*
X518075Y562750D02*Y561250D01*
Y562750D02*X518825Y563500D01*
X520325D01*
X521075Y562750D01*
Y561250D01*
X520325Y560500D02*X521075Y561250D01*
X522876Y560500D02*X525876Y563500D01*
X522876Y560500D02*X526626D01*
X525876Y563500D02*Y557500D01*
X528428D02*X529178D01*
X530979Y558250D02*X531729Y557500D01*
X530979Y559750D02*Y558250D01*
Y559750D02*X531729Y560500D01*
X533229D01*
X533979Y559750D01*
Y558250D01*
X533229Y557500D02*X533979Y558250D01*
X531729Y557500D02*X533229D01*
X530979Y561250D02*X531729Y560500D01*
X530979Y562750D02*Y561250D01*
Y562750D02*X531729Y563500D01*
X533229D01*
X533979Y562750D01*
Y561250D01*
X533229Y560500D02*X533979Y561250D01*
X535781Y562750D02*X536531Y563500D01*
X538031D01*
X538781Y562750D01*
Y558250D01*
X538031Y557500D02*X538781Y558250D01*
X536531Y557500D02*X538031D01*
X535781Y558250D02*X536531Y557500D01*
Y560500D02*X538781D01*
X542832Y563500D02*X543582Y562750D01*
X541332Y563500D02*X542832D01*
X540582Y562750D02*X541332Y563500D01*
X540582Y562750D02*Y558250D01*
X541332Y557500D01*
X542832Y560500D02*X543582Y559750D01*
X540582Y560500D02*X542832D01*
X541332Y557500D02*X542832D01*
X543582Y558250D01*
Y559750D02*Y558250D01*
X548834Y559750D02*Y557500D01*
Y559750D02*X549584Y560500D01*
X550334D01*
X551084Y559750D01*
Y557500D01*
Y559750D02*X551834Y560500D01*
X552584D01*
X553334Y559750D01*
Y557500D01*
X548084Y560500D02*X548834Y559750D01*
X555885D02*Y557500D01*
Y559750D02*X556635Y560500D01*
X557385D01*
X558135Y559750D01*
Y557500D01*
Y559750D02*X558885Y560500D01*
X559635D01*
X560385Y559750D01*
Y557500D01*
X555135Y560500D02*X555885Y559750D01*
X564887Y563500D02*X565637Y562750D01*
Y558250D01*
X564887Y557500D02*X565637Y558250D01*
X570138Y563500D02*Y557500D01*
Y559750D02*X570888Y560500D01*
X572388D01*
X573138Y559750D01*
Y557500D01*
X574940Y562000D02*Y561250D01*
Y559750D02*Y557500D01*
X578691Y560500D02*X579441Y559750D01*
X577191Y560500D02*X578691D01*
X576441Y559750D02*X577191Y560500D01*
X576441Y559750D02*Y558250D01*
X577191Y557500D01*
X578691D01*
X579441Y558250D01*
X576441Y556000D02*X577191Y555250D01*
X578691D01*
X579441Y556000D01*
Y560500D02*Y556000D01*
X581243Y563500D02*Y557500D01*
Y559750D02*X581993Y560500D01*
X583493D01*
X584243Y559750D01*
Y557500D01*
X6232Y-9500D02*X9232D01*
X9982Y-8750D01*
Y-7250D02*Y-8750D01*
X9232Y-6500D02*X9982Y-7250D01*
X6982Y-6500D02*X9232D01*
X6982Y-3500D02*Y-9500D01*
X6232Y-3500D02*X9232D01*
X9982Y-4250D01*
Y-5750D01*
X9232Y-6500D02*X9982Y-5750D01*
X11783Y-7250D02*Y-8750D01*
Y-7250D02*X12533Y-6500D01*
X14033D01*
X14783Y-7250D01*
Y-8750D01*
X14033Y-9500D02*X14783Y-8750D01*
X12533Y-9500D02*X14033D01*
X11783Y-8750D02*X12533Y-9500D01*
X18835Y-6500D02*X19585Y-7250D01*
X17335Y-6500D02*X18835D01*
X16585Y-7250D02*X17335Y-6500D01*
X16585Y-7250D02*Y-8750D01*
X17335Y-9500D01*
X19585Y-6500D02*Y-8750D01*
X20335Y-9500D01*
X17335D02*X18835D01*
X19585Y-8750D01*
X22886Y-7250D02*Y-9500D01*
Y-7250D02*X23636Y-6500D01*
X25136D01*
X22136D02*X22886Y-7250D01*
X29938Y-3500D02*Y-9500D01*
X29188D02*X29938Y-8750D01*
X27688Y-9500D02*X29188D01*
X26938Y-8750D02*X27688Y-9500D01*
X26938Y-7250D02*Y-8750D01*
Y-7250D02*X27688Y-6500D01*
X29188D01*
X29938Y-7250D01*
X34439D02*Y-8750D01*
Y-7250D02*X35189Y-6500D01*
X36689D01*
X37439Y-7250D01*
Y-8750D01*
X36689Y-9500D02*X37439Y-8750D01*
X35189Y-9500D02*X36689D01*
X34439Y-8750D02*X35189Y-9500D01*
X39241Y-6500D02*Y-8750D01*
X39991Y-9500D01*
X41491D01*
X42241Y-8750D01*
Y-6500D02*Y-8750D01*
X44792Y-3500D02*Y-8750D01*
X45542Y-9500D01*
X44042Y-5750D02*X45542D01*
X47044Y-3500D02*Y-8750D01*
X47794Y-9500D01*
X49295Y-5000D02*Y-5750D01*
Y-7250D02*Y-9500D01*
X51547Y-7250D02*Y-9500D01*
Y-7250D02*X52297Y-6500D01*
X53047D01*
X53797Y-7250D01*
Y-9500D01*
X50797Y-6500D02*X51547Y-7250D01*
X56348Y-9500D02*X58598D01*
X55598Y-8750D02*X56348Y-9500D01*
X55598Y-7250D02*Y-8750D01*
Y-7250D02*X56348Y-6500D01*
X57848D01*
X58598Y-7250D01*
X55598Y-8000D02*X58598D01*
Y-7250D02*Y-8000D01*
X63100Y-5000D02*Y-5750D01*
Y-7250D02*Y-9500D01*
X65351D02*X67601D01*
X68351Y-8750D01*
X67601Y-8000D02*X68351Y-8750D01*
X65351Y-8000D02*X67601D01*
X64601Y-7250D02*X65351Y-8000D01*
X64601Y-7250D02*X65351Y-6500D01*
X67601D01*
X68351Y-7250D01*
X64601Y-8750D02*X65351Y-9500D01*
X73603Y-3500D02*Y-8750D01*
X74353Y-9500D01*
X72853Y-5750D02*X74353D01*
X75854Y-3500D02*Y-9500D01*
Y-7250D02*X76604Y-6500D01*
X78104D01*
X78854Y-7250D01*
Y-9500D01*
X81406D02*X83656D01*
X80656Y-8750D02*X81406Y-9500D01*
X80656Y-7250D02*Y-8750D01*
Y-7250D02*X81406Y-6500D01*
X82906D01*
X83656Y-7250D01*
X80656Y-8000D02*X83656D01*
Y-7250D02*Y-8000D01*
X88907Y-6500D02*X91157D01*
X88157Y-7250D02*X88907Y-6500D01*
X88157Y-7250D02*Y-8750D01*
X88907Y-9500D01*
X91157D01*
X93709D02*X95959D01*
X92959Y-8750D02*X93709Y-9500D01*
X92959Y-7250D02*Y-8750D01*
Y-7250D02*X93709Y-6500D01*
X95209D01*
X95959Y-7250D01*
X92959Y-8000D02*X95959D01*
Y-7250D02*Y-8000D01*
X98510Y-7250D02*Y-9500D01*
Y-7250D02*X99260Y-6500D01*
X100010D01*
X100760Y-7250D01*
Y-9500D01*
X97760Y-6500D02*X98510Y-7250D01*
X103312Y-3500D02*Y-8750D01*
X104062Y-9500D01*
X102562Y-5750D02*X104062D01*
X106313Y-9500D02*X108563D01*
X105563Y-8750D02*X106313Y-9500D01*
X105563Y-7250D02*Y-8750D01*
Y-7250D02*X106313Y-6500D01*
X107813D01*
X108563Y-7250D01*
X105563Y-8000D02*X108563D01*
Y-7250D02*Y-8000D01*
X111115Y-7250D02*Y-9500D01*
Y-7250D02*X111865Y-6500D01*
X113365D01*
X110365D02*X111115Y-7250D01*
X115166Y-3500D02*Y-8750D01*
X115916Y-9500D01*
X117418Y-5000D02*Y-5750D01*
Y-7250D02*Y-9500D01*
X119669Y-7250D02*Y-9500D01*
Y-7250D02*X120419Y-6500D01*
X121169D01*
X121919Y-7250D01*
Y-9500D01*
X118919Y-6500D02*X119669Y-7250D01*
X124471Y-9500D02*X126721D01*
X123721Y-8750D02*X124471Y-9500D01*
X123721Y-7250D02*Y-8750D01*
Y-7250D02*X124471Y-6500D01*
X125971D01*
X126721Y-7250D01*
X123721Y-8000D02*X126721D01*
Y-7250D02*Y-8000D01*
X131222Y-7250D02*Y-8750D01*
Y-7250D02*X131972Y-6500D01*
X133472D01*
X134222Y-7250D01*
Y-8750D01*
X133472Y-9500D02*X134222Y-8750D01*
X131972Y-9500D02*X133472D01*
X131222Y-8750D02*X131972Y-9500D01*
X136774Y-4250D02*Y-9500D01*
Y-4250D02*X137524Y-3500D01*
X138274D01*
X136024Y-6500D02*X137524D01*
X143225Y-3500D02*Y-8750D01*
X143975Y-9500D01*
X142475Y-5750D02*X143975D01*
X145477Y-3500D02*Y-9500D01*
Y-7250D02*X146227Y-6500D01*
X147727D01*
X148477Y-7250D01*
Y-9500D01*
X150278Y-5000D02*Y-5750D01*
Y-7250D02*Y-9500D01*
X152530D02*X154780D01*
X155530Y-8750D01*
X154780Y-8000D02*X155530Y-8750D01*
X152530Y-8000D02*X154780D01*
X151780Y-7250D02*X152530Y-8000D01*
X151780Y-7250D02*X152530Y-6500D01*
X154780D01*
X155530Y-7250D01*
X151780Y-8750D02*X152530Y-9500D01*
X160781D02*X162281D01*
X161531Y-3500D02*Y-9500D01*
X160031Y-5000D02*X161531Y-3500D01*
X164083Y-8750D02*X164833Y-9500D01*
X164083Y-4250D02*Y-8750D01*
Y-4250D02*X164833Y-3500D01*
X166333D01*
X167083Y-4250D01*
Y-8750D01*
X166333Y-9500D02*X167083Y-8750D01*
X164833Y-9500D02*X166333D01*
X164083Y-8000D02*X167083Y-5000D01*
X172334Y-7250D02*Y-9500D01*
Y-7250D02*X173084Y-6500D01*
X173834D01*
X174584Y-7250D01*
Y-9500D01*
Y-7250D02*X175334Y-6500D01*
X176084D01*
X176834Y-7250D01*
Y-9500D01*
X171584Y-6500D02*X172334Y-7250D01*
X178636Y-5000D02*Y-5750D01*
Y-7250D02*Y-9500D01*
X180137Y-3500D02*Y-8750D01*
X180887Y-9500D01*
X185839Y-7250D02*Y-11750D01*
X185089Y-6500D02*X185839Y-7250D01*
X186589Y-6500D01*
X188089D01*
X188839Y-7250D01*
Y-8750D01*
X188089Y-9500D02*X188839Y-8750D01*
X186589Y-9500D02*X188089D01*
X185839Y-8750D02*X186589Y-9500D01*
X192890Y-6500D02*X193640Y-7250D01*
X191390Y-6500D02*X192890D01*
X190640Y-7250D02*X191390Y-6500D01*
X190640Y-7250D02*Y-8750D01*
X191390Y-9500D01*
X193640Y-6500D02*Y-8750D01*
X194390Y-9500D01*
X191390D02*X192890D01*
X193640Y-8750D01*
X196942Y-3500D02*Y-8750D01*
X197692Y-9500D01*
X196192Y-5750D02*X197692D01*
X199193Y-3500D02*Y-9500D01*
Y-7250D02*X199943Y-6500D01*
X201443D01*
X202193Y-7250D01*
Y-9500D01*
X207445Y-4250D02*Y-9500D01*
Y-4250D02*X208195Y-3500D01*
X208945D01*
X206695Y-6500D02*X208195D01*
X210446Y-7250D02*Y-8750D01*
Y-7250D02*X211196Y-6500D01*
X212696D01*
X213446Y-7250D01*
Y-8750D01*
X212696Y-9500D02*X213446Y-8750D01*
X211196Y-9500D02*X212696D01*
X210446Y-8750D02*X211196Y-9500D01*
X215998Y-7250D02*Y-9500D01*
Y-7250D02*X216748Y-6500D01*
X218248D01*
X215248D02*X215998Y-7250D01*
X220799D02*Y-9500D01*
Y-7250D02*X221549Y-6500D01*
X222299D01*
X223049Y-7250D01*
Y-9500D01*
Y-7250D02*X223799Y-6500D01*
X224549D01*
X225299Y-7250D01*
Y-9500D01*
X220049Y-6500D02*X220799Y-7250D01*
X0Y-19250D02*X750Y-18500D01*
X2250D01*
X3000Y-19250D01*
Y-23750D01*
X2250Y-24500D02*X3000Y-23750D01*
X750Y-24500D02*X2250D01*
X0Y-23750D02*X750Y-24500D01*
Y-21500D02*X3000D01*
X5551Y-24500D02*X7051D01*
X6301Y-18500D02*Y-24500D01*
X4801Y-20000D02*X6301Y-18500D01*
X8853D02*X11853D01*
X8853D02*Y-21500D01*
X9603Y-20750D01*
X11103D01*
X11853Y-21500D01*
Y-23750D01*
X11103Y-24500D02*X11853Y-23750D01*
X9603Y-24500D02*X11103D01*
X8853Y-23750D02*X9603Y-24500D01*
X16354Y-23750D02*X17104Y-24500D01*
X16354Y-19250D02*X17104Y-18500D01*
X16354Y-19250D02*Y-23750D01*
X21606D02*X22356Y-24500D01*
X21606Y-22250D02*Y-23750D01*
Y-22250D02*X22356Y-21500D01*
X23856D01*
X24606Y-22250D01*
Y-23750D01*
X23856Y-24500D02*X24606Y-23750D01*
X22356Y-24500D02*X23856D01*
X21606Y-20750D02*X22356Y-21500D01*
X21606Y-19250D02*Y-20750D01*
Y-19250D02*X22356Y-18500D01*
X23856D01*
X24606Y-19250D01*
Y-20750D01*
X23856Y-21500D02*X24606Y-20750D01*
X26407Y-24500D02*X27157D01*
X28959Y-23750D02*X29709Y-24500D01*
X28959Y-19250D02*Y-23750D01*
Y-19250D02*X29709Y-18500D01*
X31209D01*
X31959Y-19250D01*
Y-23750D01*
X31209Y-24500D02*X31959Y-23750D01*
X29709Y-24500D02*X31209D01*
X28959Y-23000D02*X31959Y-20000D01*
X33760Y-23750D02*X34510Y-24500D01*
X33760Y-19250D02*Y-23750D01*
Y-19250D02*X34510Y-18500D01*
X36010D01*
X36760Y-19250D01*
Y-23750D01*
X36010Y-24500D02*X36760Y-23750D01*
X34510Y-24500D02*X36010D01*
X33760Y-23000D02*X36760Y-20000D01*
X39312Y-24500D02*X40812D01*
X40062Y-18500D02*Y-24500D01*
X38562Y-20000D02*X40062Y-18500D01*
X43363Y-22250D02*Y-24500D01*
Y-22250D02*X44113Y-21500D01*
X44863D01*
X45613Y-22250D01*
Y-24500D01*
Y-22250D02*X46363Y-21500D01*
X47113D01*
X47863Y-22250D01*
Y-24500D01*
X42613Y-21500D02*X43363Y-22250D01*
X50415D02*Y-24500D01*
Y-22250D02*X51165Y-21500D01*
X51915D01*
X52665Y-22250D01*
Y-24500D01*
Y-22250D02*X53415Y-21500D01*
X54165D01*
X54915Y-22250D01*
Y-24500D01*
X49665Y-21500D02*X50415Y-22250D01*
X59416Y-18500D02*X60166Y-19250D01*
Y-23750D01*
X59416Y-24500D02*X60166Y-23750D01*
X61968Y-26000D02*X63468Y-24500D01*
X68719D02*X70219D01*
X69469Y-18500D02*Y-24500D01*
X67969Y-20000D02*X69469Y-18500D01*
X72021Y-24500D02*X75021Y-21500D01*
Y-19250D02*Y-21500D01*
X74271Y-18500D02*X75021Y-19250D01*
X72771Y-18500D02*X74271D01*
X72021Y-19250D02*X72771Y-18500D01*
X72021Y-19250D02*Y-20750D01*
X72771Y-21500D01*
X75021D01*
X76822Y-23750D02*X77572Y-24500D01*
X76822Y-19250D02*Y-23750D01*
Y-19250D02*X77572Y-18500D01*
X79072D01*
X79822Y-19250D01*
Y-23750D01*
X79072Y-24500D02*X79822Y-23750D01*
X77572Y-24500D02*X79072D01*
X76822Y-23000D02*X79822Y-20000D01*
X81624Y-23750D02*X82374Y-24500D01*
X81624Y-19250D02*Y-23750D01*
Y-19250D02*X82374Y-18500D01*
X83874D01*
X84624Y-19250D01*
Y-23750D01*
X83874Y-24500D02*X84624Y-23750D01*
X82374Y-24500D02*X83874D01*
X81624Y-23000D02*X84624Y-20000D01*
X89125Y-23750D02*X89875Y-24500D01*
X89125Y-19250D02*X89875Y-18500D01*
X89125Y-19250D02*Y-23750D01*
X94377Y-21500D02*X97377Y-18500D01*
X94377Y-21500D02*X98127D01*
X97377Y-18500D02*Y-24500D01*
X99928Y-23750D02*X100678Y-24500D01*
X99928Y-22250D02*Y-23750D01*
Y-22250D02*X100678Y-21500D01*
X102178D01*
X102928Y-22250D01*
Y-23750D01*
X102178Y-24500D02*X102928Y-23750D01*
X100678Y-24500D02*X102178D01*
X99928Y-20750D02*X100678Y-21500D01*
X99928Y-19250D02*Y-20750D01*
Y-19250D02*X100678Y-18500D01*
X102178D01*
X102928Y-19250D01*
Y-20750D01*
X102178Y-21500D02*X102928Y-20750D01*
X104730Y-24500D02*X105480D01*
X107281Y-19250D02*X108031Y-18500D01*
X110281D01*
X111031Y-19250D01*
Y-20750D01*
X107281Y-24500D02*X111031Y-20750D01*
X107281Y-24500D02*X111031D01*
X115083Y-18500D02*X115833Y-19250D01*
X113583Y-18500D02*X115083D01*
X112833Y-19250D02*X113583Y-18500D01*
X112833Y-19250D02*Y-23750D01*
X113583Y-24500D01*
X115083Y-21500D02*X115833Y-22250D01*
X112833Y-21500D02*X115083D01*
X113583Y-24500D02*X115083D01*
X115833Y-23750D01*
Y-22250D02*Y-23750D01*
X117634D02*X118384Y-24500D01*
X117634Y-19250D02*Y-23750D01*
Y-19250D02*X118384Y-18500D01*
X119884D01*
X120634Y-19250D01*
Y-23750D01*
X119884Y-24500D02*X120634Y-23750D01*
X118384Y-24500D02*X119884D01*
X117634Y-23000D02*X120634Y-20000D01*
X123186Y-22250D02*Y-24500D01*
Y-22250D02*X123936Y-21500D01*
X124686D01*
X125436Y-22250D01*
Y-24500D01*
Y-22250D02*X126186Y-21500D01*
X126936D01*
X127686Y-22250D01*
Y-24500D01*
X122436Y-21500D02*X123186Y-22250D01*
X130237D02*Y-24500D01*
Y-22250D02*X130987Y-21500D01*
X131737D01*
X132487Y-22250D01*
Y-24500D01*
Y-22250D02*X133237Y-21500D01*
X133987D01*
X134737Y-22250D01*
Y-24500D01*
X129487Y-21500D02*X130237Y-22250D01*
X139239Y-18500D02*X139989Y-19250D01*
Y-23750D01*
X139239Y-24500D02*X139989Y-23750D01*
X147940Y-18500D02*Y-23750D01*
X148690Y-24500D01*
X147190Y-20750D02*X148690D01*
X150192Y-22250D02*Y-23750D01*
Y-22250D02*X150942Y-21500D01*
X152442D01*
X153192Y-22250D01*
Y-23750D01*
X152442Y-24500D02*X153192Y-23750D01*
X150942Y-24500D02*X152442D01*
X150192Y-23750D02*X150942Y-24500D01*
X160393Y-19250D02*X161143Y-18500D01*
X163393D01*
X164143Y-19250D01*
Y-20750D01*
X160393Y-24500D02*X164143Y-20750D01*
X160393Y-24500D02*X164143D01*
X168195Y-18500D02*X168945Y-19250D01*
X166695Y-18500D02*X168195D01*
X165945Y-19250D02*X166695Y-18500D01*
X165945Y-19250D02*Y-23750D01*
X166695Y-24500D01*
X168195Y-21500D02*X168945Y-22250D01*
X165945Y-21500D02*X168195D01*
X166695Y-24500D02*X168195D01*
X168945Y-23750D01*
Y-22250D02*Y-23750D01*
X170746Y-19250D02*X171496Y-18500D01*
X172996D01*
X173746Y-19250D01*
Y-23750D01*
X172996Y-24500D02*X173746Y-23750D01*
X171496Y-24500D02*X172996D01*
X170746Y-23750D02*X171496Y-24500D01*
Y-21500D02*X173746D01*
X175548Y-23750D02*X176298Y-24500D01*
X175548Y-19250D02*Y-23750D01*
Y-19250D02*X176298Y-18500D01*
X177798D01*
X178548Y-19250D01*
Y-23750D01*
X177798Y-24500D02*X178548Y-23750D01*
X176298Y-24500D02*X177798D01*
X175548Y-23000D02*X178548Y-20000D01*
X183049Y-23750D02*X183799Y-24500D01*
X183049Y-19250D02*X183799Y-18500D01*
X183049Y-19250D02*Y-23750D01*
X190551Y-18500D02*X191301Y-19250D01*
X189051Y-18500D02*X190551D01*
X188301Y-19250D02*X189051Y-18500D01*
X188301Y-19250D02*Y-23750D01*
X189051Y-24500D01*
X190551Y-21500D02*X191301Y-22250D01*
X188301Y-21500D02*X190551D01*
X189051Y-24500D02*X190551D01*
X191301Y-23750D01*
Y-22250D02*Y-23750D01*
X195352Y-18500D02*X196102Y-19250D01*
X193852Y-18500D02*X195352D01*
X193102Y-19250D02*X193852Y-18500D01*
X193102Y-19250D02*Y-23750D01*
X193852Y-24500D01*
X195352Y-21500D02*X196102Y-22250D01*
X193102Y-21500D02*X195352D01*
X193852Y-24500D02*X195352D01*
X196102Y-23750D01*
Y-22250D02*Y-23750D01*
X197904Y-24500D02*X198654D01*
X200455Y-23750D02*X201205Y-24500D01*
X200455Y-22250D02*Y-23750D01*
Y-22250D02*X201205Y-21500D01*
X202705D01*
X203455Y-22250D01*
Y-23750D01*
X202705Y-24500D02*X203455Y-23750D01*
X201205Y-24500D02*X202705D01*
X200455Y-20750D02*X201205Y-21500D01*
X200455Y-19250D02*Y-20750D01*
Y-19250D02*X201205Y-18500D01*
X202705D01*
X203455Y-19250D01*
Y-20750D01*
X202705Y-21500D02*X203455Y-20750D01*
X205257Y-23750D02*X206007Y-24500D01*
X205257Y-19250D02*Y-23750D01*
Y-19250D02*X206007Y-18500D01*
X207507D01*
X208257Y-19250D01*
Y-23750D01*
X207507Y-24500D02*X208257Y-23750D01*
X206007Y-24500D02*X207507D01*
X205257Y-23000D02*X208257Y-20000D01*
X210058Y-19250D02*X210808Y-18500D01*
X213058D01*
X213808Y-19250D01*
Y-20750D01*
X210058Y-24500D02*X213808Y-20750D01*
X210058Y-24500D02*X213808D01*
X216360Y-22250D02*Y-24500D01*
Y-22250D02*X217110Y-21500D01*
X217860D01*
X218610Y-22250D01*
Y-24500D01*
Y-22250D02*X219360Y-21500D01*
X220110D01*
X220860Y-22250D01*
Y-24500D01*
X215610Y-21500D02*X216360Y-22250D01*
X223411D02*Y-24500D01*
Y-22250D02*X224161Y-21500D01*
X224911D01*
X225661Y-22250D01*
Y-24500D01*
Y-22250D02*X226411Y-21500D01*
X227161D01*
X227911Y-22250D01*
Y-24500D01*
X222661Y-21500D02*X223411Y-22250D01*
X232413Y-18500D02*X233163Y-19250D01*
Y-23750D01*
X232413Y-24500D02*X233163Y-23750D01*
X234964Y-26000D02*X236464Y-24500D01*
X240966Y-18500D02*X243966D01*
X240966D02*Y-21500D01*
X241716Y-20750D01*
X243216D01*
X243966Y-21500D01*
Y-23750D01*
X243216Y-24500D02*X243966Y-23750D01*
X241716Y-24500D02*X243216D01*
X240966Y-23750D02*X241716Y-24500D01*
X245767Y-19250D02*X246517Y-18500D01*
X248767D01*
X249517Y-19250D01*
Y-20750D01*
X245767Y-24500D02*X249517Y-20750D01*
X245767Y-24500D02*X249517D01*
X251319Y-21500D02*X254319Y-18500D01*
X251319Y-21500D02*X255069D01*
X254319Y-18500D02*Y-24500D01*
X256870Y-23750D02*X257620Y-24500D01*
X256870Y-19250D02*Y-23750D01*
Y-19250D02*X257620Y-18500D01*
X259120D01*
X259870Y-19250D01*
Y-23750D01*
X259120Y-24500D02*X259870Y-23750D01*
X257620Y-24500D02*X259120D01*
X256870Y-23000D02*X259870Y-20000D01*
X264372Y-23750D02*X265122Y-24500D01*
X264372Y-19250D02*X265122Y-18500D01*
X264372Y-19250D02*Y-23750D01*
X270373Y-24500D02*X271873D01*
X271123Y-18500D02*Y-24500D01*
X269623Y-20000D02*X271123Y-18500D01*
X273675Y-19250D02*X274425Y-18500D01*
X275925D01*
X276675Y-19250D01*
Y-23750D01*
X275925Y-24500D02*X276675Y-23750D01*
X274425Y-24500D02*X275925D01*
X273675Y-23750D02*X274425Y-24500D01*
Y-21500D02*X276675D01*
X278476Y-19250D02*X279226Y-18500D01*
X280726D01*
X281476Y-19250D01*
Y-23750D01*
X280726Y-24500D02*X281476Y-23750D01*
X279226Y-24500D02*X280726D01*
X278476Y-23750D02*X279226Y-24500D01*
Y-21500D02*X281476D01*
X283278Y-24500D02*X284028D01*
X285829Y-23750D02*X286579Y-24500D01*
X285829Y-19250D02*Y-23750D01*
Y-19250D02*X286579Y-18500D01*
X288079D01*
X288829Y-19250D01*
Y-23750D01*
X288079Y-24500D02*X288829Y-23750D01*
X286579Y-24500D02*X288079D01*
X285829Y-23000D02*X288829Y-20000D01*
X290631Y-24500D02*X293631Y-21500D01*
Y-19250D02*Y-21500D01*
X292881Y-18500D02*X293631Y-19250D01*
X291381Y-18500D02*X292881D01*
X290631Y-19250D02*X291381Y-18500D01*
X290631Y-19250D02*Y-20750D01*
X291381Y-21500D01*
X293631D01*
X297682Y-18500D02*X298432Y-19250D01*
X296182Y-18500D02*X297682D01*
X295432Y-19250D02*X296182Y-18500D01*
X295432Y-19250D02*Y-23750D01*
X296182Y-24500D01*
X297682Y-21500D02*X298432Y-22250D01*
X295432Y-21500D02*X297682D01*
X296182Y-24500D02*X297682D01*
X298432Y-23750D01*
Y-22250D02*Y-23750D01*
X300984Y-22250D02*Y-24500D01*
Y-22250D02*X301734Y-21500D01*
X302484D01*
X303234Y-22250D01*
Y-24500D01*
Y-22250D02*X303984Y-21500D01*
X304734D01*
X305484Y-22250D01*
Y-24500D01*
X300234Y-21500D02*X300984Y-22250D01*
X308035D02*Y-24500D01*
Y-22250D02*X308785Y-21500D01*
X309535D01*
X310285Y-22250D01*
Y-24500D01*
Y-22250D02*X311035Y-21500D01*
X311785D01*
X312535Y-22250D01*
Y-24500D01*
X307285Y-21500D02*X308035Y-22250D01*
X317037Y-18500D02*X317787Y-19250D01*
Y-23750D01*
X317037Y-24500D02*X317787Y-23750D01*
X323038Y-22250D02*Y-24500D01*
Y-22250D02*X323788Y-21500D01*
X324538D01*
X325288Y-22250D01*
Y-24500D01*
Y-22250D02*X326038Y-21500D01*
X326788D01*
X327538Y-22250D01*
Y-24500D01*
X322288Y-21500D02*X323038Y-22250D01*
X329340Y-20000D02*Y-20750D01*
Y-22250D02*Y-24500D01*
X330841Y-18500D02*Y-23750D01*
X331591Y-24500D01*
X333843D02*X336093D01*
X336843Y-23750D01*
X336093Y-23000D02*X336843Y-23750D01*
X333843Y-23000D02*X336093D01*
X333093Y-22250D02*X333843Y-23000D01*
X333093Y-22250D02*X333843Y-21500D01*
X336093D01*
X336843Y-22250D01*
X333093Y-23750D02*X333843Y-24500D01*
X260750Y578500D02*Y572500D01*
X263000Y578500D02*X263750Y577750D01*
Y573250D01*
X263000Y572500D02*X263750Y573250D01*
X260000Y572500D02*X263000D01*
X260000Y578500D02*X263000D01*
X267801Y575500D02*X268551Y574750D01*
X266301Y575500D02*X267801D01*
X265551Y574750D02*X266301Y575500D01*
X265551Y574750D02*Y573250D01*
X266301Y572500D01*
X268551Y575500D02*Y573250D01*
X269301Y572500D01*
X266301D02*X267801D01*
X268551Y573250D01*
X271853Y578500D02*Y573250D01*
X272603Y572500D01*
X271103Y576250D02*X272603D01*
X274854Y572500D02*X277104D01*
X274104Y573250D02*X274854Y572500D01*
X274104Y574750D02*Y573250D01*
Y574750D02*X274854Y575500D01*
X276354D01*
X277104Y574750D01*
X274104Y574000D02*X277104D01*
Y574750D02*Y574000D01*
X278906Y576250D02*X279656D01*
X278906Y574750D02*X279656D01*
X284157Y578500D02*X287157D01*
X285657D02*Y572500D01*
X288959Y578500D02*Y572500D01*
Y574750D02*X289709Y575500D01*
X291209D01*
X291959Y574750D01*
Y572500D01*
X293760Y575500D02*Y573250D01*
X294510Y572500D01*
X296010D01*
X296760Y573250D01*
Y575500D02*Y573250D01*
X301262Y578500D02*X303512D01*
Y573250D01*
X302762Y572500D02*X303512Y573250D01*
X302012Y572500D02*X302762D01*
X301262Y573250D02*X302012Y572500D01*
X307563Y575500D02*X308313Y574750D01*
X306063Y575500D02*X307563D01*
X305313Y574750D02*X306063Y575500D01*
X305313Y574750D02*Y573250D01*
X306063Y572500D01*
X308313Y575500D02*Y573250D01*
X309063Y572500D01*
X306063D02*X307563D01*
X308313Y573250D01*
X311615Y574750D02*Y572500D01*
Y574750D02*X312365Y575500D01*
X313115D01*
X313865Y574750D01*
Y572500D01*
X310865Y575500D02*X311615Y574750D01*
X318366Y577750D02*X319116Y578500D01*
X321366D01*
X322116Y577750D01*
Y576250D01*
X318366Y572500D02*X322116Y576250D01*
X318366Y572500D02*X322116D01*
X323918D02*X326918Y575500D01*
Y577750D02*Y575500D01*
X326168Y578500D02*X326918Y577750D01*
X324668Y578500D02*X326168D01*
X323918Y577750D02*X324668Y578500D01*
X323918Y577750D02*Y576250D01*
X324668Y575500D01*
X326918D01*
X332169Y572500D02*X333669D01*
X332919Y578500D02*Y572500D01*
X331419Y577000D02*X332919Y578500D01*
X335471Y577750D02*X336221Y578500D01*
X338471D01*
X339221Y577750D01*
Y576250D01*
X335471Y572500D02*X339221Y576250D01*
X335471Y572500D02*X339221D01*
X341022Y576250D02*X341772D01*
X341022Y574750D02*X341772D01*
X343574Y577750D02*X344324Y578500D01*
X346574D01*
X347324Y577750D01*
Y576250D01*
X343574Y572500D02*X347324Y576250D01*
X343574Y572500D02*X347324D01*
X349875D02*X351375D01*
X350625Y578500D02*Y572500D01*
X349125Y577000D02*X350625Y578500D01*
X353177Y576250D02*X353927D01*
X353177Y574750D02*X353927D01*
X355728Y573250D02*X356478Y572500D01*
X355728Y577750D02*Y573250D01*
Y577750D02*X356478Y578500D01*
X357978D01*
X358728Y577750D01*
Y573250D01*
X357978Y572500D02*X358728Y573250D01*
X356478Y572500D02*X357978D01*
X355728Y574000D02*X358728Y577000D01*
X360530Y573250D02*X361280Y572500D01*
X360530Y577750D02*Y573250D01*
Y577750D02*X361280Y578500D01*
X362780D01*
X363530Y577750D01*
Y573250D01*
X362780Y572500D02*X363530Y573250D01*
X361280Y572500D02*X362780D01*
X360530Y574000D02*X363530Y577000D01*
X368031Y577750D02*X368781Y578500D01*
X371031D01*
X371781Y577750D01*
Y576250D01*
X368031Y572500D02*X371781Y576250D01*
X368031Y572500D02*X371781D01*
X373583Y573250D02*X374333Y572500D01*
X373583Y577750D02*Y573250D01*
Y577750D02*X374333Y578500D01*
X375833D01*
X376583Y577750D01*
Y573250D01*
X375833Y572500D02*X376583Y573250D01*
X374333Y572500D02*X375833D01*
X373583Y574000D02*X376583Y577000D01*
X378384Y577750D02*X379134Y578500D01*
X381384D01*
X382134Y577750D01*
Y576250D01*
X378384Y572500D02*X382134Y576250D01*
X378384Y572500D02*X382134D01*
X386186Y578500D02*X386936Y577750D01*
X384686Y578500D02*X386186D01*
X383936Y577750D02*X384686Y578500D01*
X383936Y577750D02*Y573250D01*
X384686Y572500D01*
X386186Y575500D02*X386936Y574750D01*
X383936Y575500D02*X386186D01*
X384686Y572500D02*X386186D01*
X386936Y573250D01*
Y574750D02*Y573250D01*
X391437Y578500D02*Y573250D01*
X392187Y572500D01*
X393687D01*
X394437Y573250D01*
Y578500D02*Y573250D01*
X396239Y578500D02*X399239D01*
X397739D02*Y572500D01*
X401790D02*X404040D01*
X401040Y573250D02*X401790Y572500D01*
X401040Y577750D02*Y573250D01*
Y577750D02*X401790Y578500D01*
X404040D01*
X260000Y592750D02*Y587500D01*
Y592750D02*X260750Y593500D01*
X263000D01*
X263750Y592750D01*
Y587500D01*
X260000Y590500D02*X263750D01*
X265551D02*Y588250D01*
X266301Y587500D01*
X267801D01*
X268551Y588250D01*
Y590500D02*Y588250D01*
X271103Y593500D02*Y588250D01*
X271853Y587500D01*
X270353Y591250D02*X271853D01*
X273354Y593500D02*Y587500D01*
Y589750D02*X274104Y590500D01*
X275604D01*
X276354Y589750D01*
Y587500D01*
X278156Y589750D02*Y588250D01*
Y589750D02*X278906Y590500D01*
X280406D01*
X281156Y589750D01*
Y588250D01*
X280406Y587500D02*X281156Y588250D01*
X278906Y587500D02*X280406D01*
X278156Y588250D02*X278906Y587500D01*
X283707Y589750D02*Y587500D01*
Y589750D02*X284457Y590500D01*
X285957D01*
X282957D02*X283707Y589750D01*
X287759Y591250D02*X288509D01*
X287759Y589750D02*X288509D01*
X293760Y587500D02*X296010D01*
X293010Y588250D02*X293760Y587500D01*
X293010Y589750D02*Y588250D01*
Y589750D02*X293760Y590500D01*
X295260D01*
X296010Y589750D01*
X293010Y589000D02*X296010D01*
Y589750D02*Y589000D01*
X297812Y593500D02*Y588250D01*
X298562Y587500D01*
X300813D02*X303063D01*
X300063Y588250D02*X300813Y587500D01*
X300063Y589750D02*Y588250D01*
Y589750D02*X300813Y590500D01*
X302313D01*
X303063Y589750D01*
X300063Y589000D02*X303063D01*
Y589750D02*Y589000D01*
X305615Y590500D02*X307865D01*
X304865Y589750D02*X305615Y590500D01*
X304865Y589750D02*Y588250D01*
X305615Y587500D01*
X307865D01*
X311916Y590500D02*X312666Y589750D01*
X310416Y590500D02*X311916D01*
X309666Y589750D02*X310416Y590500D01*
X309666Y589750D02*Y588250D01*
X310416Y587500D01*
X311916D01*
X312666Y588250D01*
X309666Y586000D02*X310416Y585250D01*
X311916D01*
X312666Y586000D01*
Y590500D02*Y586000D01*
X315218Y587500D02*X317468D01*
X314468Y588250D02*X315218Y587500D01*
X314468Y589750D02*Y588250D01*
Y589750D02*X315218Y590500D01*
X316718D01*
X317468Y589750D01*
X314468Y589000D02*X317468D01*
Y589750D02*Y589000D01*
X320019Y587500D02*X322269D01*
X319269Y588250D02*X320019Y587500D01*
X319269Y589750D02*Y588250D01*
Y589750D02*X320019Y590500D01*
X321519D01*
X322269Y589750D01*
X319269Y589000D02*X322269D01*
Y589750D02*Y589000D01*
X324071Y593500D02*Y587500D01*
Y589750D02*X326321Y587500D01*
X324071Y589750D02*X325571Y591250D01*
X260000Y608500D02*X263000D01*
X261500D02*Y602500D01*
X264801Y607000D02*Y606250D01*
Y604750D02*Y602500D01*
X267053Y608500D02*Y603250D01*
X267803Y602500D01*
X266303Y606250D02*X267803D01*
X269304Y608500D02*Y603250D01*
X270054Y602500D01*
X272306D02*X274556D01*
X271556Y603250D02*X272306Y602500D01*
X271556Y604750D02*Y603250D01*
Y604750D02*X272306Y605500D01*
X273806D01*
X274556Y604750D01*
X271556Y604000D02*X274556D01*
Y604750D02*Y604000D01*
X276357Y606250D02*X277107D01*
X276357Y604750D02*X277107D01*
X281609Y603250D02*X282359Y602500D01*
X281609Y607750D02*X282359Y608500D01*
X281609Y607750D02*Y603250D01*
X284160Y605500D02*Y603250D01*
X284910Y602500D01*
X286410D01*
X287160Y603250D01*
Y605500D02*Y603250D01*
X289712Y604750D02*Y602500D01*
Y604750D02*X290462Y605500D01*
X291212D01*
X291962Y604750D01*
Y602500D01*
X288962Y605500D02*X289712Y604750D01*
X293763Y608500D02*Y602500D01*
Y604750D02*X296013Y602500D01*
X293763Y604750D02*X295263Y606250D01*
X298565Y604750D02*Y602500D01*
Y604750D02*X299315Y605500D01*
X300065D01*
X300815Y604750D01*
Y602500D01*
X297815Y605500D02*X298565Y604750D01*
X302616D02*Y603250D01*
Y604750D02*X303366Y605500D01*
X304866D01*
X305616Y604750D01*
Y603250D01*
X304866Y602500D02*X305616Y603250D01*
X303366Y602500D02*X304866D01*
X302616Y603250D02*X303366Y602500D01*
X307418Y605500D02*Y603250D01*
X308168Y602500D01*
X308918D01*
X309668Y603250D01*
Y605500D02*Y603250D01*
X310418Y602500D01*
X311168D01*
X311918Y603250D01*
Y605500D02*Y603250D01*
X314469Y604750D02*Y602500D01*
Y604750D02*X315219Y605500D01*
X315969D01*
X316719Y604750D01*
Y602500D01*
X313719Y605500D02*X314469Y604750D01*
X318521Y608500D02*X319271Y607750D01*
Y603250D01*
X318521Y602500D02*X319271Y603250D01*
X323772Y605500D02*X326772D01*
X331274Y608500D02*Y602500D01*
Y608500D02*X334274D01*
X331274Y605500D02*X333524D01*
X338325D02*X339075Y604750D01*
X336825Y605500D02*X338325D01*
X336075Y604750D02*X336825Y605500D01*
X336075Y604750D02*Y603250D01*
X336825Y602500D01*
X339075Y605500D02*Y603250D01*
X339825Y602500D01*
X336825D02*X338325D01*
X339075Y603250D01*
X341627Y608500D02*Y602500D01*
Y603250D02*X342377Y602500D01*
X343877D01*
X344627Y603250D01*
Y604750D02*Y603250D01*
X343877Y605500D02*X344627Y604750D01*
X342377Y605500D02*X343877D01*
X341627Y604750D02*X342377Y605500D01*
X347178Y604750D02*Y602500D01*
Y604750D02*X347928Y605500D01*
X349428D01*
X346428D02*X347178Y604750D01*
X351230Y607000D02*Y606250D01*
Y604750D02*Y602500D01*
X353481Y605500D02*X355731D01*
X352731Y604750D02*X353481Y605500D01*
X352731Y604750D02*Y603250D01*
X353481Y602500D01*
X355731D01*
X359783Y605500D02*X360533Y604750D01*
X358283Y605500D02*X359783D01*
X357533Y604750D02*X358283Y605500D01*
X357533Y604750D02*Y603250D01*
X358283Y602500D01*
X360533Y605500D02*Y603250D01*
X361283Y602500D01*
X358283D02*X359783D01*
X360533Y603250D01*
X363834Y608500D02*Y603250D01*
X364584Y602500D01*
X363084Y606250D02*X364584D01*
X366086Y607000D02*Y606250D01*
Y604750D02*Y602500D01*
X367587Y604750D02*Y603250D01*
Y604750D02*X368337Y605500D01*
X369837D01*
X370587Y604750D01*
Y603250D01*
X369837Y602500D02*X370587Y603250D01*
X368337Y602500D02*X369837D01*
X367587Y603250D02*X368337Y602500D01*
X373139Y604750D02*Y602500D01*
Y604750D02*X373889Y605500D01*
X374639D01*
X375389Y604750D01*
Y602500D01*
X372389Y605500D02*X373139Y604750D01*
X380640Y608500D02*Y602500D01*
X382890Y608500D02*X383640Y607750D01*
Y603250D01*
X382890Y602500D02*X383640Y603250D01*
X379890Y602500D02*X382890D01*
X379890Y608500D02*X382890D01*
X386192Y604750D02*Y602500D01*
Y604750D02*X386942Y605500D01*
X388442D01*
X385442D02*X386192Y604750D01*
X392493Y605500D02*X393243Y604750D01*
X390993Y605500D02*X392493D01*
X390243Y604750D02*X390993Y605500D01*
X390243Y604750D02*Y603250D01*
X390993Y602500D01*
X393243Y605500D02*Y603250D01*
X393993Y602500D01*
X390993D02*X392493D01*
X393243Y603250D01*
X395795Y605500D02*Y603250D01*
X396545Y602500D01*
X397295D01*
X398045Y603250D01*
Y605500D02*Y603250D01*
X398795Y602500D01*
X399545D01*
X400295Y603250D01*
Y605500D02*Y603250D01*
X402096Y607000D02*Y606250D01*
Y604750D02*Y602500D01*
X404348Y604750D02*Y602500D01*
Y604750D02*X405098Y605500D01*
X405848D01*
X406598Y604750D01*
Y602500D01*
X403598Y605500D02*X404348Y604750D01*
X410649Y605500D02*X411399Y604750D01*
X409149Y605500D02*X410649D01*
X408399Y604750D02*X409149Y605500D01*
X408399Y604750D02*Y603250D01*
X409149Y602500D01*
X410649D01*
X411399Y603250D01*
X408399Y601000D02*X409149Y600250D01*
X410649D01*
X411399Y601000D01*
Y605500D02*Y601000D01*
M02*
