G04 start of page 6 for group -4063 idx -4063 *
G04 Title: (unknown), componentmask *
G04 Creator: pcb 20091103 *
G04 CreationDate: Thu Jan 29 12:21:00 2026 UTC *
G04 For: estimfr *
G04 Format: Gerber/RS-274X *
G04 PCB-Dimensions: 350000 550000 *
G04 PCB-Coordinate-Origin: lower left *
%MOIN*%
%FSLAX25Y25*%
%LNTOPMASK*%
%ADD11C,0.0200*%
%ADD31C,0.1614*%
%ADD36C,0.0060*%
%ADD39C,0.0710*%
%ADD40C,0.0560*%
%ADD41C,0.0660*%
%ADD42C,0.1055*%
%ADD43C,0.2000*%
%ADD44C,0.0960*%
%ADD45R,0.0300X0.0300*%
%ADD46R,0.0572X0.0572*%
%ADD47R,0.1030X0.1030*%
%ADD48R,0.0400X0.0400*%
%ADD49C,0.0220*%
%ADD50R,0.0220X0.0220*%
G54D11*G36*
X179700Y316300D02*Y310700D01*
X185300D01*
Y316300D01*
X179700D01*
G37*
G36*
X182450Y339550D02*Y332450D01*
X189550D01*
Y339550D01*
X182450D01*
G37*
G54D39*X196000Y336000D03*
G54D40*X212500Y313500D03*
G54D31*X237000Y335500D03*
X56000D03*
G54D11*G36*
X99450Y339050D02*Y331950D01*
X106550D01*
Y339050D01*
X99450D01*
G37*
G54D39*X113000Y335500D03*
G54D11*G36*
X140950Y339050D02*Y331950D01*
X148050D01*
Y339050D01*
X140950D01*
G37*
G54D39*X154500Y335500D03*
G54D11*G36*
X187700Y284800D02*Y278200D01*
X194300D01*
Y284800D01*
X187700D01*
G37*
G54D41*X191000Y271500D03*
Y261500D03*
G54D42*X63500Y272200D03*
G54D43*X45800D03*
X63500Y252500D03*
Y291900D03*
G54D11*G36*
X167700Y100800D02*Y91200D01*
X177300D01*
Y100800D01*
X167700D01*
G37*
G54D44*X172500Y106000D03*
Y116000D03*
G54D11*G36*
X145200Y143800D02*Y138200D01*
X150800D01*
Y143800D01*
X145200D01*
G37*
G54D40*X148000Y111000D03*
G54D11*G36*
X127200Y58300D02*Y51700D01*
X133800D01*
Y58300D01*
X127200D01*
G37*
G54D41*X130500Y65000D03*
G54D31*X56000Y50500D03*
G54D11*G36*
X179700Y51300D02*Y41700D01*
X189300D01*
Y51300D01*
X179700D01*
G37*
G54D44*X184500Y56500D03*
Y66500D03*
G54D31*X237000Y50500D03*
G54D45*X172000Y270500D02*X178500D01*
X172000Y244500D02*X178500D01*
G54D46*X170819Y237905D02*X173181D01*
G54D45*X172000Y249500D02*X178500D01*
X172000Y254500D02*X178500D01*
X172000Y259500D02*X178500D01*
X151500Y270500D02*X158000D01*
X151500Y259500D02*X158000D01*
X151500Y254500D02*X158000D01*
G54D46*X143905Y268181D02*Y265819D01*
X132095Y238681D02*Y236319D01*
X143905Y238681D02*Y236319D01*
X132095Y248181D02*Y245819D01*
Y257681D02*Y255319D01*
Y268181D02*Y265819D01*
G54D45*X151500Y244500D02*X158000D01*
G54D46*X143905Y248181D02*Y245819D01*
Y257681D02*Y255319D01*
G54D45*X151500Y285500D02*X158000D01*
X151500Y280500D02*X158000D01*
X151500Y275500D02*X158000D01*
X172000D02*X178500D01*
X172000Y280500D02*X178500D01*
X172000Y285500D02*X178500D01*
X153500Y301500D02*X160000D01*
X153500Y306500D02*X160000D01*
G54D46*X172107Y305457D02*X172893D01*
G54D45*X153500Y311500D02*X160000D01*
G54D46*X172107Y312543D02*X172893D01*
G54D45*X153500Y316500D02*X160000D01*
X110500Y42500D02*X117000D01*
X110500Y47500D02*X117000D01*
X110500Y52500D02*X117000D01*
X110500Y57500D02*X117000D01*
X110500Y62500D02*X117000D01*
X110500Y67500D02*X117000D01*
X110500Y72500D02*X117000D01*
X90000D02*X96500D01*
X90000Y67500D02*X96500D01*
X90000Y62500D02*X96500D01*
X90000Y57500D02*X96500D01*
X90000Y52500D02*X96500D01*
X90000Y47500D02*X96500D01*
X90000Y42500D02*X96500D01*
X70000Y122000D02*X76500D01*
X70000Y117000D02*X76500D01*
X70000Y112000D02*X76500D01*
X70000Y97000D02*X76500D01*
X70000Y102000D02*X76500D01*
X70000Y107000D02*X76500D01*
X49500Y92000D02*X56000D01*
X49500Y87000D02*X56000D01*
X49500Y107000D02*X56000D01*
X49500Y102000D02*X56000D01*
X49500Y97000D02*X56000D01*
X49500Y122000D02*X56000D01*
X49500Y117000D02*X56000D01*
X49500Y112000D02*X56000D01*
X70000Y87000D02*X76500D01*
X70000Y92000D02*X76500D01*
X86500Y237000D02*X93000D01*
X107000D02*X113500D01*
X86500Y232000D02*X93000D01*
X107000D02*X113500D01*
X86500Y227000D02*X93000D01*
X107000D02*X113500D01*
G54D46*X76043Y227393D02*Y226607D01*
G54D45*X86500Y222000D02*X93000D01*
X107000D02*X113500D01*
G54D46*X92543Y207893D02*Y207107D01*
X85457Y207893D02*Y207107D01*
G54D47*X55100Y213900D02*X62900D01*
G54D46*X51595Y238681D02*Y236319D01*
X63405Y238681D02*Y236319D01*
X68957Y227393D02*Y226607D01*
G54D47*X55100Y195100D02*X62900D01*
G54D45*X128000Y160500D02*X134500D01*
X128000Y165500D02*X134500D01*
X128000Y170500D02*X134500D01*
X128000Y175500D02*X134500D01*
X128000Y180500D02*X134500D01*
X128000Y185500D02*X134500D01*
X128000Y190500D02*X134500D01*
X128000Y195500D02*X134500D01*
X61000Y182500D02*X67500D01*
X61000Y177500D02*X67500D01*
X61000Y172500D02*X67500D01*
G54D46*X52319Y166595D02*X54681D01*
X52319Y178405D02*X54681D01*
X61043Y139893D02*Y139107D01*
X53957Y139893D02*Y139107D01*
G54D45*X81500Y167500D02*X88000D01*
X81500Y172500D02*X88000D01*
G54D46*X81457Y159393D02*Y158607D01*
X88543Y159393D02*Y158607D01*
G54D45*X81500Y177500D02*X88000D01*
X81500Y182500D02*X88000D01*
X61000Y167500D02*X67500D01*
G54D46*X69543Y159393D02*Y158607D01*
X62457Y159393D02*Y158607D01*
G54D45*X107500Y170500D02*X114000D01*
X107500Y165500D02*X114000D01*
X107500Y160500D02*X114000D01*
X107500Y195500D02*X114000D01*
X107500Y190500D02*X114000D01*
X107500Y185500D02*X114000D01*
X107500Y180500D02*X114000D01*
X107500Y175500D02*X114000D01*
X118000Y270500D02*X124500D01*
X118000Y275500D02*X124500D01*
X118000Y280500D02*X124500D01*
X118000Y285500D02*X124500D01*
G54D46*X109457Y255393D02*Y254607D01*
X116543Y255393D02*Y254607D01*
X109595Y248181D02*Y245819D01*
X121405Y248181D02*Y245819D01*
G54D45*X133000Y316500D02*X139500D01*
X133000Y311500D02*X139500D01*
X133000Y306500D02*X139500D01*
X133000Y301500D02*X139500D01*
X88500Y316500D02*X95000D01*
X88500Y311500D02*X95000D01*
X109000Y301500D02*X115500D01*
X109000Y306500D02*X115500D01*
X88500D02*X95000D01*
X88500Y301500D02*X95000D01*
X109000Y311500D02*X115500D01*
X109000Y316500D02*X115500D01*
G54D48*X102300Y247800D02*Y247200D01*
X98400Y256000D02*Y255400D01*
X94500Y247800D02*Y247200D01*
G54D45*X97500Y285500D02*X104000D01*
G54D46*X79457Y284893D02*Y284107D01*
X86543Y284893D02*Y284107D01*
G54D45*X97500Y280500D02*X104000D01*
X97500Y275500D02*X104000D01*
X97500Y270500D02*X104000D01*
G54D46*X90905Y268681D02*Y266319D01*
Y277681D02*Y275319D01*
X79095Y268681D02*Y266319D01*
Y277681D02*Y275319D01*
X79457Y259393D02*Y258607D01*
X86543Y259393D02*Y258607D01*
G54D45*X139000Y57500D02*X145500D01*
X139000Y52500D02*X145500D01*
X139000Y47500D02*X145500D01*
X139000Y42500D02*X145500D01*
X159500D02*X166000D01*
X159500Y47500D02*X166000D01*
X159500Y52500D02*X166000D01*
X159500Y57500D02*X166000D01*
X111000Y122000D02*X117500D01*
X111000Y117000D02*X117500D01*
X111000Y112000D02*X117500D01*
X111000Y107000D02*X117500D01*
X111000Y102000D02*X117500D01*
X111000Y97000D02*X117500D01*
X111000Y92000D02*X117500D01*
X131500D02*X138000D01*
G54D46*X148319Y92595D02*X150681D01*
X148319Y104405D02*X150681D01*
G54D45*X131500Y97000D02*X138000D01*
X131500Y102000D02*X138000D01*
X131500Y107000D02*X138000D01*
X131500Y112000D02*X138000D01*
X131500Y117000D02*X138000D01*
X131500Y122000D02*X138000D01*
X139000Y72500D02*X145500D01*
X139000Y67500D02*X145500D01*
X139000Y62500D02*X145500D01*
G54D46*X236957Y77393D02*Y76607D01*
X244043Y77393D02*Y76607D01*
G54D45*X159500Y62500D02*X166000D01*
X159500Y67500D02*X166000D01*
X159500Y72500D02*X166000D01*
X176000Y142000D02*X182500D01*
X176000Y137000D02*X182500D01*
X176000Y132000D02*X182500D01*
X196500D02*X203000D01*
X196500Y137000D02*X203000D01*
X196500Y142000D02*X203000D01*
X196500Y147000D02*X203000D01*
G54D49*X230500Y118000D02*X232700D01*
G54D50*X230500Y115400D02*X232700D01*
G54D46*X236457Y99893D02*Y99107D01*
X243543Y99893D02*Y99107D01*
X236957Y89393D02*Y88607D01*
X244043Y89393D02*Y88607D01*
G54D50*X230500Y112900D02*X232700D01*
X230500Y110300D02*X232700D01*
X247200Y110200D02*X249400D01*
X247200Y112800D02*X249400D01*
X247200Y115300D02*X249400D01*
X247200Y117900D02*X249400D01*
G54D46*X217595Y138181D02*Y135819D01*
X229405Y138181D02*Y135819D01*
X238957Y137393D02*Y136607D01*
X246043Y137393D02*Y136607D01*
G54D45*X151500Y249500D02*X158000D01*
X152000Y199000D02*X158500D01*
X152000Y194000D02*X158500D01*
X152000Y189000D02*X158500D01*
X152000Y184000D02*X158500D01*
G54D48*X156400Y236000D02*Y235400D01*
G54D46*X143905Y229681D02*Y227319D01*
X132095Y229681D02*Y227319D01*
G54D48*X152500Y227800D02*Y227200D01*
G54D45*X152000Y175500D02*X158500D01*
X152000Y170500D02*X158500D01*
X172500D02*X179000D01*
X152000Y165500D02*X158500D01*
X172500D02*X179000D01*
X152000Y160500D02*X158500D01*
X172500D02*X179000D01*
G54D48*X160300Y227800D02*Y227200D01*
G54D46*X170819Y226095D02*X173181D01*
X190107Y234543D02*X190893D01*
X190107Y227457D02*X190893D01*
G54D45*X172500Y175500D02*X179000D01*
X172500Y184000D02*X179000D01*
X172500Y189000D02*X179000D01*
X172500Y194000D02*X179000D01*
X172500Y199000D02*X179000D01*
G54D46*X197543Y179393D02*Y178607D01*
X190457Y179393D02*Y178607D01*
G54D45*X176000Y147000D02*X182500D01*
G54D46*X195107Y154457D02*X195893D01*
X195107Y161543D02*X195893D01*
G54D36*X31500Y343500D02*Y42500D01*
X48000Y360000D02*X205000D01*
X48000Y26000D02*X246500D01*
X263000Y134500D02*Y42500D01*
X31500Y343500D02*G75*G02X48000Y360000I16500J0D01*G01*
X31500Y42500D02*G75*G03X48000Y26000I16500J0D01*G01*
X246500D02*G75*G03X263000Y42500I0J16500D01*G01*
M02*
